<mxfile host="app.diagrams.net" modified="2024-02-23T22:32:19.006Z" agent="Mozilla/5.0 (Windows NT 10.0; Win64; x64) AppleWebKit/537.36 (KHTML, like Gecko) Chrome/122.0.0.0 Safari/537.36" etag="SGXHydeBPkBDPaZUFLS0" version="23.0.2" type="device">
  <diagram name="Page-1" id="c9MPXyv6jiTPwXcF9Hdp">
    <mxGraphModel dx="6032" dy="4047" grid="1" gridSize="10" guides="1" tooltips="1" connect="1" arrows="1" fold="1" page="1" pageScale="1" pageWidth="4681" pageHeight="3300" math="0" shadow="0">
      <root>
        <mxCell id="0" />
        <mxCell id="1" parent="0" />
        <mxCell id="dz-a4pQGunZjvAAqzRaD-1" value="University" style="rounded=0;whiteSpace=wrap;html=1;fillColor=#D4E1F5;" vertex="1" parent="1">
          <mxGeometry x="330" y="580" width="120" height="30" as="geometry" />
        </mxCell>
        <mxCell id="dz-a4pQGunZjvAAqzRaD-2" value="Campus" style="rounded=0;whiteSpace=wrap;html=1;fillColor=#D4E1F5;" vertex="1" parent="1">
          <mxGeometry x="330" y="350" width="120" height="30" as="geometry" />
        </mxCell>
        <mxCell id="dz-a4pQGunZjvAAqzRaD-3" value="has" style="rhombus;whiteSpace=wrap;html=1;fillColor=#FFB366;" vertex="1" parent="1">
          <mxGeometry x="350" y="420" width="80" height="50" as="geometry" />
        </mxCell>
        <mxCell id="dz-a4pQGunZjvAAqzRaD-4" value="&lt;u&gt;Uni_ID&lt;/u&gt;" style="ellipse;whiteSpace=wrap;html=1;" vertex="1" parent="1">
          <mxGeometry x="150" y="550" width="120" height="30" as="geometry" />
        </mxCell>
        <mxCell id="dz-a4pQGunZjvAAqzRaD-5" value="Name" style="ellipse;whiteSpace=wrap;html=1;" vertex="1" parent="1">
          <mxGeometry x="185" y="510" width="120" height="30" as="geometry" />
        </mxCell>
        <mxCell id="dz-a4pQGunZjvAAqzRaD-6" value="Address" style="ellipse;whiteSpace=wrap;html=1;" vertex="1" parent="1">
          <mxGeometry x="260" y="470" width="120" height="30" as="geometry" />
        </mxCell>
        <mxCell id="dz-a4pQGunZjvAAqzRaD-7" value="" style="endArrow=none;html=1;rounded=0;exitX=0.5;exitY=0;exitDx=0;exitDy=0;entryX=0.5;entryY=1;entryDx=0;entryDy=0;" edge="1" parent="1" source="dz-a4pQGunZjvAAqzRaD-1" target="dz-a4pQGunZjvAAqzRaD-3">
          <mxGeometry width="50" height="50" relative="1" as="geometry">
            <mxPoint x="490" y="440" as="sourcePoint" />
            <mxPoint x="540" y="390" as="targetPoint" />
          </mxGeometry>
        </mxCell>
        <mxCell id="dz-a4pQGunZjvAAqzRaD-8" value="" style="endArrow=none;html=1;rounded=0;exitX=0.5;exitY=0;exitDx=0;exitDy=0;entryX=0.5;entryY=1;entryDx=0;entryDy=0;" edge="1" parent="1" source="dz-a4pQGunZjvAAqzRaD-3" target="dz-a4pQGunZjvAAqzRaD-2">
          <mxGeometry width="50" height="50" relative="1" as="geometry">
            <mxPoint x="350" y="430" as="sourcePoint" />
            <mxPoint x="400" y="380" as="targetPoint" />
          </mxGeometry>
        </mxCell>
        <mxCell id="dz-a4pQGunZjvAAqzRaD-9" value="Name" style="ellipse;whiteSpace=wrap;html=1;" vertex="1" parent="1">
          <mxGeometry x="290" y="281.25" width="90" height="30" as="geometry" />
        </mxCell>
        <mxCell id="dz-a4pQGunZjvAAqzRaD-10" value="&lt;u&gt;Campus_Id&lt;/u&gt;" style="ellipse;whiteSpace=wrap;html=1;" vertex="1" parent="1">
          <mxGeometry x="200" y="311.25" width="110" height="35" as="geometry" />
        </mxCell>
        <mxCell id="dz-a4pQGunZjvAAqzRaD-11" value="" style="group" vertex="1" connectable="0" parent="1">
          <mxGeometry x="-570" y="70" width="370" height="110" as="geometry" />
        </mxCell>
        <mxCell id="dz-a4pQGunZjvAAqzRaD-12" value="Grades" style="rounded=0;whiteSpace=wrap;html=1;container=0;fillColor=#D4E1F5;" vertex="1" parent="dz-a4pQGunZjvAAqzRaD-11">
          <mxGeometry x="110" y="80" width="120" height="30" as="geometry" />
        </mxCell>
        <mxCell id="dz-a4pQGunZjvAAqzRaD-13" value="Status" style="ellipse;whiteSpace=wrap;html=1;container=0;" vertex="1" parent="dz-a4pQGunZjvAAqzRaD-11">
          <mxGeometry x="240" y="40" width="80" height="30" as="geometry" />
        </mxCell>
        <mxCell id="dz-a4pQGunZjvAAqzRaD-14" value="AssesmentType" style="ellipse;whiteSpace=wrap;html=1;container=0;" vertex="1" parent="dz-a4pQGunZjvAAqzRaD-11">
          <mxGeometry x="250" y="80" width="110" height="30" as="geometry" />
        </mxCell>
        <mxCell id="dz-a4pQGunZjvAAqzRaD-15" value="Percentage" style="ellipse;whiteSpace=wrap;html=1;container=0;" vertex="1" parent="dz-a4pQGunZjvAAqzRaD-11">
          <mxGeometry x="190" width="80" height="30" as="geometry" />
        </mxCell>
        <mxCell id="dz-a4pQGunZjvAAqzRaD-16" value="Grade" style="ellipse;whiteSpace=wrap;html=1;container=0;" vertex="1" parent="dz-a4pQGunZjvAAqzRaD-11">
          <mxGeometry x="80" width="80" height="30" as="geometry" />
        </mxCell>
        <mxCell id="dz-a4pQGunZjvAAqzRaD-17" value="&lt;u&gt;Grades_ID&lt;/u&gt;" style="ellipse;whiteSpace=wrap;html=1;container=0;" vertex="1" parent="dz-a4pQGunZjvAAqzRaD-11">
          <mxGeometry x="10" y="40" width="80" height="30" as="geometry" />
        </mxCell>
        <mxCell id="dz-a4pQGunZjvAAqzRaD-18" value="" style="endArrow=none;html=1;rounded=0;exitX=0.316;exitY=0.968;exitDx=0;exitDy=0;exitPerimeter=0;entryX=0.593;entryY=0.093;entryDx=0;entryDy=0;entryPerimeter=0;" edge="1" parent="dz-a4pQGunZjvAAqzRaD-11" source="dz-a4pQGunZjvAAqzRaD-15" target="dz-a4pQGunZjvAAqzRaD-12">
          <mxGeometry width="50" height="50" relative="1" as="geometry">
            <mxPoint x="270" y="260" as="sourcePoint" />
            <mxPoint x="320" y="210" as="targetPoint" />
          </mxGeometry>
        </mxCell>
        <mxCell id="dz-a4pQGunZjvAAqzRaD-19" value="" style="endArrow=none;html=1;rounded=0;exitX=0;exitY=0.5;exitDx=0;exitDy=0;entryX=0.75;entryY=0;entryDx=0;entryDy=0;" edge="1" parent="dz-a4pQGunZjvAAqzRaD-11" source="dz-a4pQGunZjvAAqzRaD-13" target="dz-a4pQGunZjvAAqzRaD-12">
          <mxGeometry width="50" height="50" relative="1" as="geometry">
            <mxPoint x="270" y="260" as="sourcePoint" />
            <mxPoint x="320" y="210" as="targetPoint" />
          </mxGeometry>
        </mxCell>
        <mxCell id="dz-a4pQGunZjvAAqzRaD-20" value="" style="endArrow=none;html=1;rounded=0;exitX=1;exitY=0.5;exitDx=0;exitDy=0;entryX=0;entryY=0.5;entryDx=0;entryDy=0;" edge="1" parent="dz-a4pQGunZjvAAqzRaD-11" source="dz-a4pQGunZjvAAqzRaD-12" target="dz-a4pQGunZjvAAqzRaD-14">
          <mxGeometry width="50" height="50" relative="1" as="geometry">
            <mxPoint x="270" y="260" as="sourcePoint" />
            <mxPoint x="320" y="210" as="targetPoint" />
          </mxGeometry>
        </mxCell>
        <mxCell id="dz-a4pQGunZjvAAqzRaD-21" value="&lt;b&gt;N&lt;/b&gt;" style="text;html=1;strokeColor=none;fillColor=none;align=center;verticalAlign=middle;whiteSpace=wrap;rounded=0;" vertex="1" parent="dz-a4pQGunZjvAAqzRaD-11">
          <mxGeometry x="130" y="42.5" width="60" height="25" as="geometry" />
        </mxCell>
        <mxCell id="dz-a4pQGunZjvAAqzRaD-22" value="" style="group" vertex="1" connectable="0" parent="1">
          <mxGeometry x="-350" y="-210" width="440" height="180" as="geometry" />
        </mxCell>
        <mxCell id="dz-a4pQGunZjvAAqzRaD-23" value="Students" style="rounded=0;whiteSpace=wrap;html=1;fillColor=#D4E1F5;" vertex="1" parent="dz-a4pQGunZjvAAqzRaD-22">
          <mxGeometry x="130" y="80" width="120" height="30" as="geometry" />
        </mxCell>
        <mxCell id="dz-a4pQGunZjvAAqzRaD-24" value="&lt;u&gt;Student_ID&lt;/u&gt;" style="ellipse;whiteSpace=wrap;html=1;" vertex="1" parent="dz-a4pQGunZjvAAqzRaD-22">
          <mxGeometry x="10" y="75" width="80" height="30" as="geometry" />
        </mxCell>
        <mxCell id="dz-a4pQGunZjvAAqzRaD-25" value="Program_name" style="ellipse;whiteSpace=wrap;html=1;" vertex="1" parent="dz-a4pQGunZjvAAqzRaD-22">
          <mxGeometry x="340" y="105" width="110" height="30" as="geometry" />
        </mxCell>
        <mxCell id="dz-a4pQGunZjvAAqzRaD-26" value="GuardianInfo" style="ellipse;whiteSpace=wrap;html=1;" vertex="1" parent="dz-a4pQGunZjvAAqzRaD-22">
          <mxGeometry x="370" y="70" width="80" height="30" as="geometry" />
        </mxCell>
        <mxCell id="dz-a4pQGunZjvAAqzRaD-27" value="Gender" style="ellipse;whiteSpace=wrap;html=1;" vertex="1" parent="dz-a4pQGunZjvAAqzRaD-22">
          <mxGeometry x="210" width="80" height="30" as="geometry" />
        </mxCell>
        <mxCell id="dz-a4pQGunZjvAAqzRaD-28" value="DOB" style="ellipse;whiteSpace=wrap;html=1;" vertex="1" parent="dz-a4pQGunZjvAAqzRaD-22">
          <mxGeometry x="95" width="80" height="30" as="geometry" />
        </mxCell>
        <mxCell id="dz-a4pQGunZjvAAqzRaD-29" value="name" style="ellipse;whiteSpace=wrap;html=1;" vertex="1" parent="dz-a4pQGunZjvAAqzRaD-22">
          <mxGeometry x="40" y="30" width="80" height="30" as="geometry" />
        </mxCell>
        <mxCell id="dz-a4pQGunZjvAAqzRaD-30" value="Academic_year" style="ellipse;whiteSpace=wrap;html=1;" vertex="1" parent="dz-a4pQGunZjvAAqzRaD-22">
          <mxGeometry x="310" y="140" width="100" height="30" as="geometry" />
        </mxCell>
        <mxCell id="dz-a4pQGunZjvAAqzRaD-31" value="Enroll_Status" style="ellipse;whiteSpace=wrap;html=1;" vertex="1" parent="dz-a4pQGunZjvAAqzRaD-22">
          <mxGeometry y="120" width="80" height="30" as="geometry" />
        </mxCell>
        <mxCell id="dz-a4pQGunZjvAAqzRaD-32" value="" style="endArrow=none;html=1;rounded=0;exitX=1;exitY=0.5;exitDx=0;exitDy=0;entryX=0;entryY=0.75;entryDx=0;entryDy=0;" edge="1" parent="dz-a4pQGunZjvAAqzRaD-22" source="dz-a4pQGunZjvAAqzRaD-31" target="dz-a4pQGunZjvAAqzRaD-23">
          <mxGeometry width="50" height="50" relative="1" as="geometry">
            <mxPoint x="320" y="270" as="sourcePoint" />
            <mxPoint x="370" y="220" as="targetPoint" />
          </mxGeometry>
        </mxCell>
        <mxCell id="dz-a4pQGunZjvAAqzRaD-33" value="" style="endArrow=none;html=1;rounded=0;exitX=1;exitY=0.5;exitDx=0;exitDy=0;entryX=0;entryY=0.25;entryDx=0;entryDy=0;" edge="1" parent="dz-a4pQGunZjvAAqzRaD-22" source="dz-a4pQGunZjvAAqzRaD-24" target="dz-a4pQGunZjvAAqzRaD-23">
          <mxGeometry width="50" height="50" relative="1" as="geometry">
            <mxPoint x="320" y="270" as="sourcePoint" />
            <mxPoint x="370" y="220" as="targetPoint" />
          </mxGeometry>
        </mxCell>
        <mxCell id="dz-a4pQGunZjvAAqzRaD-34" value="" style="endArrow=none;html=1;rounded=0;exitX=0.5;exitY=1;exitDx=0;exitDy=0;entryX=0.75;entryY=0;entryDx=0;entryDy=0;" edge="1" parent="dz-a4pQGunZjvAAqzRaD-22" source="dz-a4pQGunZjvAAqzRaD-27" target="dz-a4pQGunZjvAAqzRaD-23">
          <mxGeometry width="50" height="50" relative="1" as="geometry">
            <mxPoint x="240" y="270" as="sourcePoint" />
            <mxPoint x="290" y="220" as="targetPoint" />
          </mxGeometry>
        </mxCell>
        <mxCell id="dz-a4pQGunZjvAAqzRaD-35" value="" style="endArrow=none;html=1;rounded=0;exitX=1;exitY=0.5;exitDx=0;exitDy=0;entryX=0;entryY=0.5;entryDx=0;entryDy=0;" edge="1" parent="dz-a4pQGunZjvAAqzRaD-22" source="dz-a4pQGunZjvAAqzRaD-23" target="dz-a4pQGunZjvAAqzRaD-25">
          <mxGeometry width="50" height="50" relative="1" as="geometry">
            <mxPoint x="240" y="270" as="sourcePoint" />
            <mxPoint x="290" y="220" as="targetPoint" />
          </mxGeometry>
        </mxCell>
        <mxCell id="dz-a4pQGunZjvAAqzRaD-36" value="" style="endArrow=none;html=1;rounded=0;exitX=1;exitY=1;exitDx=0;exitDy=0;entryX=0;entryY=0;entryDx=0;entryDy=0;" edge="1" parent="dz-a4pQGunZjvAAqzRaD-22" source="dz-a4pQGunZjvAAqzRaD-23" target="dz-a4pQGunZjvAAqzRaD-30">
          <mxGeometry width="50" height="50" relative="1" as="geometry">
            <mxPoint x="240" y="270" as="sourcePoint" />
            <mxPoint x="310" y="160" as="targetPoint" />
          </mxGeometry>
        </mxCell>
        <mxCell id="dz-a4pQGunZjvAAqzRaD-37" value="&lt;b&gt;N&lt;/b&gt;" style="text;html=1;strokeColor=none;fillColor=none;align=center;verticalAlign=middle;whiteSpace=wrap;rounded=0;" vertex="1" parent="dz-a4pQGunZjvAAqzRaD-22">
          <mxGeometry x="180" y="105" width="60" height="25" as="geometry" />
        </mxCell>
        <mxCell id="dz-a4pQGunZjvAAqzRaD-38" value="&lt;b&gt;1&lt;/b&gt;" style="text;html=1;strokeColor=none;fillColor=none;align=center;verticalAlign=middle;whiteSpace=wrap;rounded=0;" vertex="1" parent="dz-a4pQGunZjvAAqzRaD-22">
          <mxGeometry x="180" y="55" width="35" height="20" as="geometry" />
        </mxCell>
        <mxCell id="dz-a4pQGunZjvAAqzRaD-39" value="MiddleName" style="ellipse;whiteSpace=wrap;html=1;" vertex="1" parent="dz-a4pQGunZjvAAqzRaD-22">
          <mxGeometry x="-60" y="-20" width="120" height="30" as="geometry" />
        </mxCell>
        <mxCell id="dz-a4pQGunZjvAAqzRaD-40" value="" style="endArrow=none;html=1;rounded=0;exitX=1;exitY=1;exitDx=0;exitDy=0;entryX=0.273;entryY=0.156;entryDx=0;entryDy=0;entryPerimeter=0;" edge="1" parent="dz-a4pQGunZjvAAqzRaD-22" source="dz-a4pQGunZjvAAqzRaD-39" target="dz-a4pQGunZjvAAqzRaD-29">
          <mxGeometry width="50" height="50" relative="1" as="geometry">
            <mxPoint x="280" y="150" as="sourcePoint" />
            <mxPoint x="330" y="100" as="targetPoint" />
          </mxGeometry>
        </mxCell>
        <mxCell id="dz-a4pQGunZjvAAqzRaD-41" value="" style="ellipse;whiteSpace=wrap;html=1;" vertex="1" parent="dz-a4pQGunZjvAAqzRaD-22">
          <mxGeometry x="290" y="10" width="90" height="50" as="geometry" />
        </mxCell>
        <mxCell id="dz-a4pQGunZjvAAqzRaD-42" value="email" style="ellipse;whiteSpace=wrap;html=1;" vertex="1" parent="dz-a4pQGunZjvAAqzRaD-22">
          <mxGeometry x="295" y="15" width="80" height="40" as="geometry" />
        </mxCell>
        <mxCell id="dz-a4pQGunZjvAAqzRaD-43" value="" style="endArrow=none;html=1;rounded=0;exitX=1;exitY=0.5;exitDx=0;exitDy=0;entryX=0;entryY=0.5;entryDx=0;entryDy=0;" edge="1" parent="dz-a4pQGunZjvAAqzRaD-22" source="dz-a4pQGunZjvAAqzRaD-23" target="dz-a4pQGunZjvAAqzRaD-26">
          <mxGeometry width="50" height="50" relative="1" as="geometry">
            <mxPoint x="390" y="130" as="sourcePoint" />
            <mxPoint x="370" y="90" as="targetPoint" />
          </mxGeometry>
        </mxCell>
        <mxCell id="dz-a4pQGunZjvAAqzRaD-44" value="&lt;b&gt;1&lt;/b&gt;" style="text;html=1;strokeColor=none;fillColor=none;align=center;verticalAlign=middle;whiteSpace=wrap;rounded=0;" vertex="1" parent="dz-a4pQGunZjvAAqzRaD-22">
          <mxGeometry x="100" y="115" width="35" height="20" as="geometry" />
        </mxCell>
        <mxCell id="dz-a4pQGunZjvAAqzRaD-45" value="Age" style="ellipse;whiteSpace=wrap;html=1;dashed=1;" vertex="1" parent="dz-a4pQGunZjvAAqzRaD-22">
          <mxGeometry x="230" y="140" width="70" height="40" as="geometry" />
        </mxCell>
        <mxCell id="dz-a4pQGunZjvAAqzRaD-46" value="" style="endArrow=none;html=1;rounded=0;entryX=0.5;entryY=0;entryDx=0;entryDy=0;" edge="1" parent="dz-a4pQGunZjvAAqzRaD-22" target="dz-a4pQGunZjvAAqzRaD-45">
          <mxGeometry width="50" height="50" relative="1" as="geometry">
            <mxPoint x="230" y="110" as="sourcePoint" />
            <mxPoint x="360" y="170" as="targetPoint" />
          </mxGeometry>
        </mxCell>
        <mxCell id="dz-a4pQGunZjvAAqzRaD-47" value="" style="group" vertex="1" connectable="0" parent="1">
          <mxGeometry x="430" y="-130" width="980" height="1200" as="geometry" />
        </mxCell>
        <mxCell id="dz-a4pQGunZjvAAqzRaD-48" value="Transport" style="rounded=0;whiteSpace=wrap;html=1;fillColor=#D4E1F5;" vertex="1" parent="dz-a4pQGunZjvAAqzRaD-47">
          <mxGeometry x="610" y="315" width="120" height="30" as="geometry" />
        </mxCell>
        <mxCell id="dz-a4pQGunZjvAAqzRaD-49" value="Address" style="ellipse;whiteSpace=wrap;html=1;" vertex="1" parent="dz-a4pQGunZjvAAqzRaD-47">
          <mxGeometry x="-30" y="410" width="90" height="40" as="geometry" />
        </mxCell>
        <mxCell id="dz-a4pQGunZjvAAqzRaD-50" value="have" style="rhombus;whiteSpace=wrap;html=1;fillColor=#FFB366;" vertex="1" parent="dz-a4pQGunZjvAAqzRaD-47">
          <mxGeometry x="200" y="475" width="90" height="55" as="geometry" />
        </mxCell>
        <mxCell id="dz-a4pQGunZjvAAqzRaD-51" value="holds" style="rhombus;whiteSpace=wrap;html=1;fillColor=#FFB366;" vertex="1" parent="dz-a4pQGunZjvAAqzRaD-47">
          <mxGeometry x="450" y="560" width="80" height="80" as="geometry" />
        </mxCell>
        <mxCell id="dz-a4pQGunZjvAAqzRaD-52" value="" style="group" vertex="1" connectable="0" parent="dz-a4pQGunZjvAAqzRaD-47">
          <mxGeometry x="460" y="380" width="340" height="130" as="geometry" />
        </mxCell>
        <mxCell id="dz-a4pQGunZjvAAqzRaD-53" value="SocialMedia" style="rounded=0;whiteSpace=wrap;html=1;fillColor=#D4E1F5;" vertex="1" parent="dz-a4pQGunZjvAAqzRaD-52">
          <mxGeometry x="110" y="70" width="120" height="30" as="geometry" />
        </mxCell>
        <mxCell id="dz-a4pQGunZjvAAqzRaD-54" value="URL" style="ellipse;whiteSpace=wrap;html=1;" vertex="1" parent="dz-a4pQGunZjvAAqzRaD-52">
          <mxGeometry x="80" width="80" height="30" as="geometry" />
        </mxCell>
        <mxCell id="dz-a4pQGunZjvAAqzRaD-55" value="Founder" style="ellipse;whiteSpace=wrap;html=1;" vertex="1" parent="dz-a4pQGunZjvAAqzRaD-52">
          <mxGeometry x="260" y="70" width="80" height="30" as="geometry" />
        </mxCell>
        <mxCell id="dz-a4pQGunZjvAAqzRaD-56" value="&lt;u&gt;Social_ID&lt;/u&gt;" style="ellipse;whiteSpace=wrap;html=1;" vertex="1" parent="dz-a4pQGunZjvAAqzRaD-52">
          <mxGeometry y="70" width="80" height="30" as="geometry" />
        </mxCell>
        <mxCell id="dz-a4pQGunZjvAAqzRaD-57" value="Mobile_app" style="ellipse;whiteSpace=wrap;html=1;" vertex="1" parent="dz-a4pQGunZjvAAqzRaD-52">
          <mxGeometry x="250" y="30" width="80" height="30" as="geometry" />
        </mxCell>
        <mxCell id="dz-a4pQGunZjvAAqzRaD-58" value="Description" style="ellipse;whiteSpace=wrap;html=1;" vertex="1" parent="dz-a4pQGunZjvAAqzRaD-52">
          <mxGeometry x="180" width="80" height="30" as="geometry" />
        </mxCell>
        <mxCell id="dz-a4pQGunZjvAAqzRaD-59" value="Platform_name" style="ellipse;whiteSpace=wrap;html=1;" vertex="1" parent="dz-a4pQGunZjvAAqzRaD-52">
          <mxGeometry x="10" y="30" width="100" height="30" as="geometry" />
        </mxCell>
        <mxCell id="dz-a4pQGunZjvAAqzRaD-60" value="" style="endArrow=none;html=1;rounded=0;exitX=1;exitY=0.5;exitDx=0;exitDy=0;entryX=0;entryY=0.5;entryDx=0;entryDy=0;" edge="1" parent="dz-a4pQGunZjvAAqzRaD-52" source="dz-a4pQGunZjvAAqzRaD-56" target="dz-a4pQGunZjvAAqzRaD-53">
          <mxGeometry width="50" height="50" relative="1" as="geometry">
            <mxPoint x="130" y="160" as="sourcePoint" />
            <mxPoint x="180" y="110" as="targetPoint" />
          </mxGeometry>
        </mxCell>
        <mxCell id="dz-a4pQGunZjvAAqzRaD-61" value="" style="endArrow=none;html=1;rounded=0;exitX=0.703;exitY=0.982;exitDx=0;exitDy=0;exitPerimeter=0;entryX=0;entryY=0;entryDx=0;entryDy=0;" edge="1" parent="dz-a4pQGunZjvAAqzRaD-52" source="dz-a4pQGunZjvAAqzRaD-59" target="dz-a4pQGunZjvAAqzRaD-53">
          <mxGeometry width="50" height="50" relative="1" as="geometry">
            <mxPoint x="130" y="160" as="sourcePoint" />
            <mxPoint x="180" y="110" as="targetPoint" />
          </mxGeometry>
        </mxCell>
        <mxCell id="dz-a4pQGunZjvAAqzRaD-62" value="" style="endArrow=none;html=1;rounded=0;exitX=0.5;exitY=1;exitDx=0;exitDy=0;entryX=0.189;entryY=0.036;entryDx=0;entryDy=0;entryPerimeter=0;" edge="1" parent="dz-a4pQGunZjvAAqzRaD-52" source="dz-a4pQGunZjvAAqzRaD-54" target="dz-a4pQGunZjvAAqzRaD-53">
          <mxGeometry width="50" height="50" relative="1" as="geometry">
            <mxPoint x="130" y="160" as="sourcePoint" />
            <mxPoint x="180" y="110" as="targetPoint" />
          </mxGeometry>
        </mxCell>
        <mxCell id="dz-a4pQGunZjvAAqzRaD-63" value="" style="endArrow=none;html=1;rounded=0;exitX=0.5;exitY=0;exitDx=0;exitDy=0;entryX=0.346;entryY=0.973;entryDx=0;entryDy=0;entryPerimeter=0;" edge="1" parent="dz-a4pQGunZjvAAqzRaD-52" source="dz-a4pQGunZjvAAqzRaD-53" target="dz-a4pQGunZjvAAqzRaD-58">
          <mxGeometry width="50" height="50" relative="1" as="geometry">
            <mxPoint x="130" y="160" as="sourcePoint" />
            <mxPoint x="180" y="110" as="targetPoint" />
          </mxGeometry>
        </mxCell>
        <mxCell id="dz-a4pQGunZjvAAqzRaD-64" value="" style="endArrow=none;html=1;rounded=0;entryX=0;entryY=0.5;entryDx=0;entryDy=0;" edge="1" parent="dz-a4pQGunZjvAAqzRaD-52" target="dz-a4pQGunZjvAAqzRaD-57">
          <mxGeometry width="50" height="50" relative="1" as="geometry">
            <mxPoint x="195" y="70" as="sourcePoint" />
            <mxPoint x="245" y="20" as="targetPoint" />
          </mxGeometry>
        </mxCell>
        <mxCell id="dz-a4pQGunZjvAAqzRaD-65" value="" style="endArrow=none;html=1;rounded=0;exitX=1;exitY=0.5;exitDx=0;exitDy=0;entryX=0;entryY=0.5;entryDx=0;entryDy=0;" edge="1" parent="dz-a4pQGunZjvAAqzRaD-52" source="dz-a4pQGunZjvAAqzRaD-53" target="dz-a4pQGunZjvAAqzRaD-55">
          <mxGeometry width="50" height="50" relative="1" as="geometry">
            <mxPoint x="130" y="160" as="sourcePoint" />
            <mxPoint x="180" y="110" as="targetPoint" />
          </mxGeometry>
        </mxCell>
        <mxCell id="dz-a4pQGunZjvAAqzRaD-66" value="&lt;b&gt;N&lt;/b&gt;" style="text;html=1;strokeColor=none;fillColor=none;align=center;verticalAlign=middle;whiteSpace=wrap;rounded=0;" vertex="1" parent="dz-a4pQGunZjvAAqzRaD-52">
          <mxGeometry x="150" y="100" width="60" height="30" as="geometry" />
        </mxCell>
        <mxCell id="dz-a4pQGunZjvAAqzRaD-67" value="" style="group" vertex="1" connectable="0" parent="dz-a4pQGunZjvAAqzRaD-47">
          <mxGeometry x="480" y="150" width="360" height="157.5" as="geometry" />
        </mxCell>
        <mxCell id="dz-a4pQGunZjvAAqzRaD-68" value="Arrival_time" style="ellipse;whiteSpace=wrap;html=1;" vertex="1" parent="dz-a4pQGunZjvAAqzRaD-67">
          <mxGeometry y="70" width="80" height="40" as="geometry" />
        </mxCell>
        <mxCell id="dz-a4pQGunZjvAAqzRaD-69" value="Departure_time_" style="ellipse;whiteSpace=wrap;html=1;" vertex="1" parent="dz-a4pQGunZjvAAqzRaD-67">
          <mxGeometry x="50" y="30" width="100" height="40" as="geometry" />
        </mxCell>
        <mxCell id="dz-a4pQGunZjvAAqzRaD-70" value="Route" style="ellipse;whiteSpace=wrap;html=1;" vertex="1" parent="dz-a4pQGunZjvAAqzRaD-67">
          <mxGeometry x="150" width="70" height="40" as="geometry" />
        </mxCell>
        <mxCell id="dz-a4pQGunZjvAAqzRaD-71" value="Type" style="ellipse;whiteSpace=wrap;html=1;" vertex="1" parent="dz-a4pQGunZjvAAqzRaD-67">
          <mxGeometry x="220" y="30" width="70" height="40" as="geometry" />
        </mxCell>
        <mxCell id="dz-a4pQGunZjvAAqzRaD-72" value="&lt;u&gt;Transport_ID&lt;/u&gt;" style="ellipse;whiteSpace=wrap;html=1;" vertex="1" parent="dz-a4pQGunZjvAAqzRaD-67">
          <mxGeometry x="280" y="117.5" width="80" height="40" as="geometry" />
        </mxCell>
        <mxCell id="dz-a4pQGunZjvAAqzRaD-73" value="Fare" style="ellipse;whiteSpace=wrap;html=1;" vertex="1" parent="dz-a4pQGunZjvAAqzRaD-67">
          <mxGeometry y="120" width="80" height="35" as="geometry" />
        </mxCell>
        <mxCell id="dz-a4pQGunZjvAAqzRaD-74" value="Capacity" style="ellipse;whiteSpace=wrap;html=1;" vertex="1" parent="dz-a4pQGunZjvAAqzRaD-67">
          <mxGeometry x="275" y="70" width="80" height="40" as="geometry" />
        </mxCell>
        <mxCell id="dz-a4pQGunZjvAAqzRaD-75" value="Uses" style="rhombus;whiteSpace=wrap;html=1;fillColor=#FFB366;" vertex="1" parent="dz-a4pQGunZjvAAqzRaD-47">
          <mxGeometry x="310" y="290" width="80" height="80" as="geometry" />
        </mxCell>
        <mxCell id="dz-a4pQGunZjvAAqzRaD-76" value="have" style="rhombus;whiteSpace=wrap;html=1;fillColor=#FFB366;" vertex="1" parent="dz-a4pQGunZjvAAqzRaD-47">
          <mxGeometry x="190" y="200" width="80" height="80" as="geometry" />
        </mxCell>
        <mxCell id="dz-a4pQGunZjvAAqzRaD-77" value="" style="endArrow=none;html=1;rounded=0;exitX=1;exitY=0.5;exitDx=0;exitDy=0;entryX=0;entryY=0.5;entryDx=0;entryDy=0;" edge="1" parent="dz-a4pQGunZjvAAqzRaD-47" source="dz-a4pQGunZjvAAqzRaD-75" target="dz-a4pQGunZjvAAqzRaD-48">
          <mxGeometry width="50" height="50" relative="1" as="geometry">
            <mxPoint x="310" y="260" as="sourcePoint" />
            <mxPoint x="360" y="210" as="targetPoint" />
          </mxGeometry>
        </mxCell>
        <mxCell id="dz-a4pQGunZjvAAqzRaD-78" value="History" style="ellipse;whiteSpace=wrap;html=1;" vertex="1" parent="dz-a4pQGunZjvAAqzRaD-47">
          <mxGeometry x="120" y="710" width="120" height="30" as="geometry" />
        </mxCell>
        <mxCell id="dz-a4pQGunZjvAAqzRaD-79" value="Estd_Date" style="ellipse;whiteSpace=wrap;html=1;" vertex="1" parent="dz-a4pQGunZjvAAqzRaD-47">
          <mxGeometry x="90" y="665" width="120" height="30" as="geometry" />
        </mxCell>
        <mxCell id="dz-a4pQGunZjvAAqzRaD-80" value="Rank" style="ellipse;whiteSpace=wrap;html=1;" vertex="1" parent="dz-a4pQGunZjvAAqzRaD-47">
          <mxGeometry x="60" y="630" width="120" height="30" as="geometry" />
        </mxCell>
        <mxCell id="dz-a4pQGunZjvAAqzRaD-81" value="ContactInfo" style="ellipse;whiteSpace=wrap;html=1;" vertex="1" parent="dz-a4pQGunZjvAAqzRaD-47">
          <mxGeometry x="-30" y="600" width="120" height="30" as="geometry" />
        </mxCell>
        <mxCell id="dz-a4pQGunZjvAAqzRaD-82" value="" style="group" vertex="1" connectable="0" parent="dz-a4pQGunZjvAAqzRaD-47">
          <mxGeometry x="70" y="50" width="390" height="100" as="geometry" />
        </mxCell>
        <mxCell id="dz-a4pQGunZjvAAqzRaD-83" value="Description" style="ellipse;whiteSpace=wrap;html=1;container=0;" vertex="1" parent="dz-a4pQGunZjvAAqzRaD-82">
          <mxGeometry x="290" y="70" width="100" height="30" as="geometry" />
        </mxCell>
        <mxCell id="dz-a4pQGunZjvAAqzRaD-84" value="name" style="ellipse;whiteSpace=wrap;html=1;container=0;" vertex="1" parent="dz-a4pQGunZjvAAqzRaD-82">
          <mxGeometry x="10" y="35" width="100" height="30" as="geometry" />
        </mxCell>
        <mxCell id="dz-a4pQGunZjvAAqzRaD-85" value="Address" style="ellipse;whiteSpace=wrap;html=1;container=0;" vertex="1" parent="dz-a4pQGunZjvAAqzRaD-82">
          <mxGeometry x="50" width="100" height="30" as="geometry" />
        </mxCell>
        <mxCell id="dz-a4pQGunZjvAAqzRaD-86" value="contactInfo" style="ellipse;whiteSpace=wrap;html=1;container=0;" vertex="1" parent="dz-a4pQGunZjvAAqzRaD-82">
          <mxGeometry x="170" width="100" height="30" as="geometry" />
        </mxCell>
        <mxCell id="dz-a4pQGunZjvAAqzRaD-87" value="Departments" style="rounded=0;whiteSpace=wrap;html=1;fillColor=#D4E1F5;container=0;" vertex="1" parent="dz-a4pQGunZjvAAqzRaD-82">
          <mxGeometry x="120" y="70" width="120" height="30" as="geometry" />
        </mxCell>
        <mxCell id="dz-a4pQGunZjvAAqzRaD-88" value="" style="endArrow=none;html=1;rounded=0;exitX=1;exitY=1;exitDx=0;exitDy=0;entryX=0;entryY=0;entryDx=0;entryDy=0;" edge="1" parent="dz-a4pQGunZjvAAqzRaD-82" source="dz-a4pQGunZjvAAqzRaD-84" target="dz-a4pQGunZjvAAqzRaD-87">
          <mxGeometry width="50" height="50" relative="1" as="geometry">
            <mxPoint x="60" y="60" as="sourcePoint" />
            <mxPoint x="110" y="10" as="targetPoint" />
          </mxGeometry>
        </mxCell>
        <mxCell id="dz-a4pQGunZjvAAqzRaD-89" value="" style="endArrow=none;html=1;rounded=0;exitX=0.5;exitY=0;exitDx=0;exitDy=0;entryX=0.367;entryY=1.051;entryDx=0;entryDy=0;entryPerimeter=0;" edge="1" parent="dz-a4pQGunZjvAAqzRaD-82" source="dz-a4pQGunZjvAAqzRaD-87" target="dz-a4pQGunZjvAAqzRaD-86">
          <mxGeometry width="50" height="50" relative="1" as="geometry">
            <mxPoint x="60" y="60" as="sourcePoint" />
            <mxPoint x="110" y="10" as="targetPoint" />
          </mxGeometry>
        </mxCell>
        <mxCell id="dz-a4pQGunZjvAAqzRaD-90" value="" style="endArrow=none;html=1;rounded=0;exitX=1;exitY=0.5;exitDx=0;exitDy=0;entryX=0;entryY=0.5;entryDx=0;entryDy=0;" edge="1" parent="dz-a4pQGunZjvAAqzRaD-82" source="dz-a4pQGunZjvAAqzRaD-87" target="dz-a4pQGunZjvAAqzRaD-83">
          <mxGeometry width="50" height="50" relative="1" as="geometry">
            <mxPoint x="60" y="60" as="sourcePoint" />
            <mxPoint x="110" y="10" as="targetPoint" />
          </mxGeometry>
        </mxCell>
        <mxCell id="dz-a4pQGunZjvAAqzRaD-91" value="&lt;b&gt;1&lt;/b&gt;" style="text;html=1;strokeColor=none;fillColor=none;align=center;verticalAlign=middle;whiteSpace=wrap;rounded=0;" vertex="1" parent="dz-a4pQGunZjvAAqzRaD-82">
          <mxGeometry x="155" y="45" width="35" height="20" as="geometry" />
        </mxCell>
        <mxCell id="dz-a4pQGunZjvAAqzRaD-92" value="&lt;b&gt;1&lt;/b&gt;" style="text;html=1;strokeColor=none;fillColor=none;align=center;verticalAlign=middle;whiteSpace=wrap;rounded=0;" vertex="1" parent="dz-a4pQGunZjvAAqzRaD-82">
          <mxGeometry x="120" y="50" width="35" height="20" as="geometry" />
        </mxCell>
        <mxCell id="dz-a4pQGunZjvAAqzRaD-93" value="" style="endArrow=none;html=1;rounded=0;exitX=0.5;exitY=1;exitDx=0;exitDy=0;entryX=0.406;entryY=0.833;entryDx=0;entryDy=0;entryPerimeter=0;" edge="1" parent="dz-a4pQGunZjvAAqzRaD-82">
          <mxGeometry width="50" height="50" relative="1" as="geometry">
            <mxPoint x="152.23" y="70" as="sourcePoint" />
            <mxPoint x="152.21" y="-15.019999999999982" as="targetPoint" />
          </mxGeometry>
        </mxCell>
        <mxCell id="dz-a4pQGunZjvAAqzRaD-94" value="&lt;b&gt;1&lt;/b&gt;" style="text;html=1;strokeColor=none;fillColor=none;align=center;verticalAlign=middle;whiteSpace=wrap;rounded=0;" vertex="1" parent="dz-a4pQGunZjvAAqzRaD-82">
          <mxGeometry y="80" width="35" height="20" as="geometry" />
        </mxCell>
        <mxCell id="dz-a4pQGunZjvAAqzRaD-95" value="Works For" style="rhombus;whiteSpace=wrap;html=1;fillColor=#FFB366;" vertex="1" parent="dz-a4pQGunZjvAAqzRaD-47">
          <mxGeometry x="190" y="-20" width="80" height="60" as="geometry" />
        </mxCell>
        <mxCell id="dz-a4pQGunZjvAAqzRaD-96" value="&lt;u&gt;Dept_Id&lt;/u&gt;" style="ellipse;whiteSpace=wrap;html=1;container=0;" vertex="1" parent="dz-a4pQGunZjvAAqzRaD-47">
          <mxGeometry x="80" y="150" width="100" height="30" as="geometry" />
        </mxCell>
        <mxCell id="dz-a4pQGunZjvAAqzRaD-97" value="" style="group" vertex="1" connectable="0" parent="dz-a4pQGunZjvAAqzRaD-47">
          <mxGeometry x="540" y="660" width="350" height="120" as="geometry" />
        </mxCell>
        <mxCell id="dz-a4pQGunZjvAAqzRaD-98" value="ContactInfo" style="ellipse;whiteSpace=wrap;html=1;" vertex="1" parent="dz-a4pQGunZjvAAqzRaD-97">
          <mxGeometry x="240" y="90" width="80" height="30" as="geometry" />
        </mxCell>
        <mxCell id="dz-a4pQGunZjvAAqzRaD-99" value="Address" style="ellipse;whiteSpace=wrap;html=1;" vertex="1" parent="dz-a4pQGunZjvAAqzRaD-97">
          <mxGeometry x="270" y="50" width="80" height="30" as="geometry" />
        </mxCell>
        <mxCell id="dz-a4pQGunZjvAAqzRaD-100" value="Description" style="ellipse;whiteSpace=wrap;html=1;" vertex="1" parent="dz-a4pQGunZjvAAqzRaD-97">
          <mxGeometry x="210" y="10" width="80" height="30" as="geometry" />
        </mxCell>
        <mxCell id="dz-a4pQGunZjvAAqzRaD-101" value="Inventory" style="ellipse;whiteSpace=wrap;html=1;" vertex="1" parent="dz-a4pQGunZjvAAqzRaD-97">
          <mxGeometry x="120" width="80" height="30" as="geometry" />
        </mxCell>
        <mxCell id="dz-a4pQGunZjvAAqzRaD-102" value="name" style="ellipse;whiteSpace=wrap;html=1;" vertex="1" parent="dz-a4pQGunZjvAAqzRaD-97">
          <mxGeometry x="40" y="20" width="80" height="30" as="geometry" />
        </mxCell>
        <mxCell id="dz-a4pQGunZjvAAqzRaD-103" value="&lt;u&gt;BookStore_ID&lt;/u&gt;" style="ellipse;whiteSpace=wrap;html=1;" vertex="1" parent="dz-a4pQGunZjvAAqzRaD-97">
          <mxGeometry x="-30" y="60" width="110" height="30" as="geometry" />
        </mxCell>
        <mxCell id="dz-a4pQGunZjvAAqzRaD-104" value="BookStore" style="rounded=0;whiteSpace=wrap;html=1;fillColor=#D4E1F5;" vertex="1" parent="dz-a4pQGunZjvAAqzRaD-97">
          <mxGeometry x="100" y="90" width="120" height="30" as="geometry" />
        </mxCell>
        <mxCell id="dz-a4pQGunZjvAAqzRaD-105" value="" style="endArrow=none;html=1;rounded=0;exitX=1;exitY=0.25;exitDx=0;exitDy=0;entryX=0;entryY=0.5;entryDx=0;entryDy=0;" edge="1" parent="dz-a4pQGunZjvAAqzRaD-97" source="dz-a4pQGunZjvAAqzRaD-104" target="dz-a4pQGunZjvAAqzRaD-98">
          <mxGeometry width="50" height="50" relative="1" as="geometry">
            <mxPoint x="310" y="70" as="sourcePoint" />
            <mxPoint x="360" y="20" as="targetPoint" />
          </mxGeometry>
        </mxCell>
        <mxCell id="dz-a4pQGunZjvAAqzRaD-106" value="" style="endArrow=none;html=1;rounded=0;exitX=0.5;exitY=0;exitDx=0;exitDy=0;entryX=0.322;entryY=0.913;entryDx=0;entryDy=0;entryPerimeter=0;" edge="1" parent="dz-a4pQGunZjvAAqzRaD-97" source="dz-a4pQGunZjvAAqzRaD-104" target="dz-a4pQGunZjvAAqzRaD-100">
          <mxGeometry width="50" height="50" relative="1" as="geometry">
            <mxPoint x="310" y="70" as="sourcePoint" />
            <mxPoint x="360" y="20" as="targetPoint" />
          </mxGeometry>
        </mxCell>
        <mxCell id="dz-a4pQGunZjvAAqzRaD-107" value="" style="endArrow=none;html=1;rounded=0;exitX=0.647;exitY=0.95;exitDx=0;exitDy=0;exitPerimeter=0;entryX=0;entryY=0;entryDx=0;entryDy=0;" edge="1" parent="dz-a4pQGunZjvAAqzRaD-97" source="dz-a4pQGunZjvAAqzRaD-103" target="dz-a4pQGunZjvAAqzRaD-104">
          <mxGeometry width="50" height="50" relative="1" as="geometry">
            <mxPoint x="310" y="70" as="sourcePoint" />
            <mxPoint x="360" y="20" as="targetPoint" />
          </mxGeometry>
        </mxCell>
        <mxCell id="dz-a4pQGunZjvAAqzRaD-108" value="has" style="rhombus;whiteSpace=wrap;html=1;fillColor=#FFB366;" vertex="1" parent="dz-a4pQGunZjvAAqzRaD-47">
          <mxGeometry x="470" y="750" width="80" height="80" as="geometry" />
        </mxCell>
        <mxCell id="dz-a4pQGunZjvAAqzRaD-109" value="" style="endArrow=none;html=1;rounded=0;entryX=1;entryY=0.5;entryDx=0;entryDy=0;exitX=0.583;exitY=1;exitDx=0;exitDy=0;exitPerimeter=0;" edge="1" parent="dz-a4pQGunZjvAAqzRaD-47" source="dz-a4pQGunZjvAAqzRaD-104" target="dz-a4pQGunZjvAAqzRaD-108">
          <mxGeometry width="50" height="50" relative="1" as="geometry">
            <mxPoint x="710" y="790" as="sourcePoint" />
            <mxPoint x="470" y="850" as="targetPoint" />
            <Array as="points">
              <mxPoint x="710" y="790" />
            </Array>
          </mxGeometry>
        </mxCell>
        <mxCell id="dz-a4pQGunZjvAAqzRaD-110" value="" style="group" vertex="1" connectable="0" parent="dz-a4pQGunZjvAAqzRaD-47">
          <mxGeometry x="10" y="800" width="420" height="150" as="geometry" />
        </mxCell>
        <mxCell id="dz-a4pQGunZjvAAqzRaD-111" value="Academic_calendar" style="rounded=0;whiteSpace=wrap;html=1;fillColor=#D4E1F5;" vertex="1" parent="dz-a4pQGunZjvAAqzRaD-110">
          <mxGeometry x="120" y="120" width="120" height="30" as="geometry" />
        </mxCell>
        <mxCell id="dz-a4pQGunZjvAAqzRaD-112" value="End_Date" style="ellipse;whiteSpace=wrap;html=1;" vertex="1" parent="dz-a4pQGunZjvAAqzRaD-110">
          <mxGeometry x="100" width="80" height="30" as="geometry" />
        </mxCell>
        <mxCell id="dz-a4pQGunZjvAAqzRaD-113" value="Start_Date" style="ellipse;whiteSpace=wrap;html=1;" vertex="1" parent="dz-a4pQGunZjvAAqzRaD-110">
          <mxGeometry x="30" y="20" width="80" height="30" as="geometry" />
        </mxCell>
        <mxCell id="dz-a4pQGunZjvAAqzRaD-114" value="Academic_year" style="ellipse;whiteSpace=wrap;html=1;" vertex="1" parent="dz-a4pQGunZjvAAqzRaD-110">
          <mxGeometry x="10" y="60" width="100" height="30" as="geometry" />
        </mxCell>
        <mxCell id="dz-a4pQGunZjvAAqzRaD-115" value="&lt;u&gt;Calendar_ID&lt;/u&gt;" style="ellipse;whiteSpace=wrap;html=1;" vertex="1" parent="dz-a4pQGunZjvAAqzRaD-110">
          <mxGeometry y="100" width="80" height="30" as="geometry" />
        </mxCell>
        <mxCell id="dz-a4pQGunZjvAAqzRaD-116" value="Academic events" style="ellipse;whiteSpace=wrap;html=1;" vertex="1" parent="dz-a4pQGunZjvAAqzRaD-110">
          <mxGeometry x="300" y="70" width="120" height="30" as="geometry" />
        </mxCell>
        <mxCell id="dz-a4pQGunZjvAAqzRaD-117" value="Holidays" style="ellipse;whiteSpace=wrap;html=1;" vertex="1" parent="dz-a4pQGunZjvAAqzRaD-110">
          <mxGeometry x="270" y="30" width="80" height="30" as="geometry" />
        </mxCell>
        <mxCell id="dz-a4pQGunZjvAAqzRaD-118" value="Exam_Period" style="ellipse;whiteSpace=wrap;html=1;" vertex="1" parent="dz-a4pQGunZjvAAqzRaD-110">
          <mxGeometry x="200" width="80" height="30" as="geometry" />
        </mxCell>
        <mxCell id="dz-a4pQGunZjvAAqzRaD-119" value="Course_period" style="ellipse;whiteSpace=wrap;html=1;" vertex="1" parent="dz-a4pQGunZjvAAqzRaD-110">
          <mxGeometry x="310" y="110" width="100" height="30" as="geometry" />
        </mxCell>
        <mxCell id="dz-a4pQGunZjvAAqzRaD-120" value="" style="endArrow=none;html=1;rounded=0;exitX=0;exitY=0;exitDx=0;exitDy=0;entryX=0.74;entryY=1.061;entryDx=0;entryDy=0;entryPerimeter=0;" edge="1" parent="dz-a4pQGunZjvAAqzRaD-110" source="dz-a4pQGunZjvAAqzRaD-111" target="dz-a4pQGunZjvAAqzRaD-114">
          <mxGeometry width="50" height="50" relative="1" as="geometry">
            <mxPoint x="40" y="140" as="sourcePoint" />
            <mxPoint x="90" y="90" as="targetPoint" />
          </mxGeometry>
        </mxCell>
        <mxCell id="dz-a4pQGunZjvAAqzRaD-121" value="" style="endArrow=none;html=1;rounded=0;exitX=0.25;exitY=0;exitDx=0;exitDy=0;entryX=1;entryY=1;entryDx=0;entryDy=0;" edge="1" parent="dz-a4pQGunZjvAAqzRaD-110" source="dz-a4pQGunZjvAAqzRaD-111" target="dz-a4pQGunZjvAAqzRaD-113">
          <mxGeometry width="50" height="50" relative="1" as="geometry">
            <mxPoint x="40" y="140" as="sourcePoint" />
            <mxPoint x="90" y="90" as="targetPoint" />
          </mxGeometry>
        </mxCell>
        <mxCell id="dz-a4pQGunZjvAAqzRaD-122" value="" style="endArrow=none;html=1;rounded=0;exitX=0.5;exitY=0;exitDx=0;exitDy=0;entryX=1;entryY=1;entryDx=0;entryDy=0;" edge="1" parent="dz-a4pQGunZjvAAqzRaD-110" source="dz-a4pQGunZjvAAqzRaD-111" target="dz-a4pQGunZjvAAqzRaD-112">
          <mxGeometry width="50" height="50" relative="1" as="geometry">
            <mxPoint x="40" y="140" as="sourcePoint" />
            <mxPoint x="90" y="90" as="targetPoint" />
          </mxGeometry>
        </mxCell>
        <mxCell id="dz-a4pQGunZjvAAqzRaD-123" value="" style="endArrow=none;html=1;rounded=0;exitX=0.75;exitY=0;exitDx=0;exitDy=0;entryX=0.5;entryY=1;entryDx=0;entryDy=0;" edge="1" parent="dz-a4pQGunZjvAAqzRaD-110" source="dz-a4pQGunZjvAAqzRaD-111" target="dz-a4pQGunZjvAAqzRaD-118">
          <mxGeometry width="50" height="50" relative="1" as="geometry">
            <mxPoint x="40" y="140" as="sourcePoint" />
            <mxPoint x="90" y="90" as="targetPoint" />
          </mxGeometry>
        </mxCell>
        <mxCell id="dz-a4pQGunZjvAAqzRaD-124" value="" style="endArrow=none;html=1;rounded=0;exitX=1;exitY=0;exitDx=0;exitDy=0;entryX=0.283;entryY=0.909;entryDx=0;entryDy=0;entryPerimeter=0;" edge="1" parent="dz-a4pQGunZjvAAqzRaD-110" source="dz-a4pQGunZjvAAqzRaD-111" target="dz-a4pQGunZjvAAqzRaD-117">
          <mxGeometry width="50" height="50" relative="1" as="geometry">
            <mxPoint x="40" y="140" as="sourcePoint" />
            <mxPoint x="90" y="90" as="targetPoint" />
          </mxGeometry>
        </mxCell>
        <mxCell id="dz-a4pQGunZjvAAqzRaD-125" value="" style="endArrow=none;html=1;rounded=0;exitX=0;exitY=1;exitDx=0;exitDy=0;entryX=1;entryY=0.25;entryDx=0;entryDy=0;" edge="1" parent="dz-a4pQGunZjvAAqzRaD-110" source="dz-a4pQGunZjvAAqzRaD-116" target="dz-a4pQGunZjvAAqzRaD-111">
          <mxGeometry width="50" height="50" relative="1" as="geometry">
            <mxPoint x="40" y="140" as="sourcePoint" />
            <mxPoint x="90" y="90" as="targetPoint" />
          </mxGeometry>
        </mxCell>
        <mxCell id="dz-a4pQGunZjvAAqzRaD-126" value="" style="endArrow=none;html=1;rounded=0;exitX=0;exitY=0.5;exitDx=0;exitDy=0;entryX=1;entryY=0.5;entryDx=0;entryDy=0;" edge="1" parent="dz-a4pQGunZjvAAqzRaD-110" source="dz-a4pQGunZjvAAqzRaD-119" target="dz-a4pQGunZjvAAqzRaD-111">
          <mxGeometry width="50" height="50" relative="1" as="geometry">
            <mxPoint x="40" y="140" as="sourcePoint" />
            <mxPoint x="90" y="90" as="targetPoint" />
          </mxGeometry>
        </mxCell>
        <mxCell id="dz-a4pQGunZjvAAqzRaD-127" value="" style="endArrow=none;html=1;rounded=0;entryX=1;entryY=0.5;entryDx=0;entryDy=0;exitX=0.103;exitY=-0.001;exitDx=0;exitDy=0;exitPerimeter=0;" edge="1" parent="dz-a4pQGunZjvAAqzRaD-47" source="dz-a4pQGunZjvAAqzRaD-48" target="dz-a4pQGunZjvAAqzRaD-73">
          <mxGeometry width="50" height="50" relative="1" as="geometry">
            <mxPoint x="610" y="310" as="sourcePoint" />
            <mxPoint x="560" y="240" as="targetPoint" />
          </mxGeometry>
        </mxCell>
        <mxCell id="dz-a4pQGunZjvAAqzRaD-128" value="" style="endArrow=none;html=1;rounded=0;entryX=0.765;entryY=0.943;entryDx=0;entryDy=0;entryPerimeter=0;exitX=0.351;exitY=0.017;exitDx=0;exitDy=0;exitPerimeter=0;" edge="1" parent="dz-a4pQGunZjvAAqzRaD-47" source="dz-a4pQGunZjvAAqzRaD-48" target="dz-a4pQGunZjvAAqzRaD-69">
          <mxGeometry width="50" height="50" relative="1" as="geometry">
            <mxPoint x="650" y="310" as="sourcePoint" />
            <mxPoint x="560" y="240" as="targetPoint" />
          </mxGeometry>
        </mxCell>
        <mxCell id="dz-a4pQGunZjvAAqzRaD-129" value="" style="endArrow=none;html=1;rounded=0;exitX=0.5;exitY=0;exitDx=0;exitDy=0;entryX=0.5;entryY=1;entryDx=0;entryDy=0;" edge="1" parent="dz-a4pQGunZjvAAqzRaD-47" source="dz-a4pQGunZjvAAqzRaD-48" target="dz-a4pQGunZjvAAqzRaD-70">
          <mxGeometry width="50" height="50" relative="1" as="geometry">
            <mxPoint x="510" y="290" as="sourcePoint" />
            <mxPoint x="560" y="240" as="targetPoint" />
          </mxGeometry>
        </mxCell>
        <mxCell id="dz-a4pQGunZjvAAqzRaD-130" value="" style="endArrow=none;html=1;rounded=0;exitX=0.413;exitY=0.981;exitDx=0;exitDy=0;exitPerimeter=0;entryX=0.573;entryY=0.017;entryDx=0;entryDy=0;entryPerimeter=0;" edge="1" parent="dz-a4pQGunZjvAAqzRaD-47" source="dz-a4pQGunZjvAAqzRaD-71" target="dz-a4pQGunZjvAAqzRaD-48">
          <mxGeometry width="50" height="50" relative="1" as="geometry">
            <mxPoint x="510" y="290" as="sourcePoint" />
            <mxPoint x="680" y="310" as="targetPoint" />
          </mxGeometry>
        </mxCell>
        <mxCell id="dz-a4pQGunZjvAAqzRaD-131" value="" style="endArrow=none;html=1;rounded=0;exitX=0.85;exitY=-0.035;exitDx=0;exitDy=0;exitPerimeter=0;entryX=0.077;entryY=0.787;entryDx=0;entryDy=0;entryPerimeter=0;" edge="1" parent="dz-a4pQGunZjvAAqzRaD-47" source="dz-a4pQGunZjvAAqzRaD-48" target="dz-a4pQGunZjvAAqzRaD-74">
          <mxGeometry width="50" height="50" relative="1" as="geometry">
            <mxPoint x="620" y="340" as="sourcePoint" />
            <mxPoint x="670" y="290" as="targetPoint" />
          </mxGeometry>
        </mxCell>
        <mxCell id="dz-a4pQGunZjvAAqzRaD-132" value="" style="endArrow=none;html=1;rounded=0;exitX=0.939;exitY=-0.001;exitDx=0;exitDy=0;exitPerimeter=0;entryX=0;entryY=0.5;entryDx=0;entryDy=0;" edge="1" parent="dz-a4pQGunZjvAAqzRaD-47" source="dz-a4pQGunZjvAAqzRaD-48" target="dz-a4pQGunZjvAAqzRaD-72">
          <mxGeometry width="50" height="50" relative="1" as="geometry">
            <mxPoint x="620" y="340" as="sourcePoint" />
            <mxPoint x="670" y="290" as="targetPoint" />
          </mxGeometry>
        </mxCell>
        <mxCell id="dz-a4pQGunZjvAAqzRaD-133" value="" style="endArrow=none;html=1;rounded=0;exitX=1;exitY=0;exitDx=0;exitDy=0;entryX=0;entryY=1;entryDx=0;entryDy=0;" edge="1" parent="dz-a4pQGunZjvAAqzRaD-47" source="dz-a4pQGunZjvAAqzRaD-96" target="dz-a4pQGunZjvAAqzRaD-87">
          <mxGeometry width="50" height="50" relative="1" as="geometry">
            <mxPoint y="40" as="sourcePoint" />
            <mxPoint x="50" y="-10" as="targetPoint" />
          </mxGeometry>
        </mxCell>
        <mxCell id="dz-a4pQGunZjvAAqzRaD-134" value="&lt;b&gt;1&lt;/b&gt;" style="text;html=1;strokeColor=none;fillColor=none;align=center;verticalAlign=middle;whiteSpace=wrap;rounded=0;" vertex="1" parent="dz-a4pQGunZjvAAqzRaD-47">
          <mxGeometry x="25" y="480" width="35" height="20" as="geometry" />
        </mxCell>
        <mxCell id="dz-a4pQGunZjvAAqzRaD-135" value="&lt;b&gt;N&lt;/b&gt;" style="text;html=1;strokeColor=none;fillColor=none;align=center;verticalAlign=middle;whiteSpace=wrap;rounded=0;" vertex="1" parent="dz-a4pQGunZjvAAqzRaD-47">
          <mxGeometry x="700" y="780" width="60" height="30" as="geometry" />
        </mxCell>
        <mxCell id="dz-a4pQGunZjvAAqzRaD-136" value="&lt;b&gt;1&lt;/b&gt;" style="text;html=1;strokeColor=none;fillColor=none;align=center;verticalAlign=middle;whiteSpace=wrap;rounded=0;" vertex="1" parent="dz-a4pQGunZjvAAqzRaD-47">
          <mxGeometry x="102.5" y="950" width="35" height="20" as="geometry" />
        </mxCell>
        <mxCell id="dz-a4pQGunZjvAAqzRaD-137" value="&lt;b&gt;N&lt;/b&gt;" style="text;html=1;strokeColor=none;fillColor=none;align=center;verticalAlign=middle;whiteSpace=wrap;rounded=0;" vertex="1" parent="dz-a4pQGunZjvAAqzRaD-47">
          <mxGeometry x="215" y="150" width="60" height="30" as="geometry" />
        </mxCell>
        <mxCell id="dz-a4pQGunZjvAAqzRaD-138" value="&lt;b&gt;N&lt;/b&gt;" style="text;html=1;strokeColor=none;fillColor=none;align=center;verticalAlign=middle;whiteSpace=wrap;rounded=0;" vertex="1" parent="dz-a4pQGunZjvAAqzRaD-47">
          <mxGeometry x="570" y="330" width="60" height="30" as="geometry" />
        </mxCell>
        <mxCell id="dz-a4pQGunZjvAAqzRaD-139" value="" style="endArrow=none;html=1;rounded=0;exitX=1;exitY=0.75;exitDx=0;exitDy=0;entryX=0;entryY=0.5;entryDx=0;entryDy=0;" edge="1" parent="1" source="dz-a4pQGunZjvAAqzRaD-2" target="dz-a4pQGunZjvAAqzRaD-50">
          <mxGeometry width="50" height="50" relative="1" as="geometry">
            <mxPoint x="700" y="340" as="sourcePoint" />
            <mxPoint x="750" y="290" as="targetPoint" />
          </mxGeometry>
        </mxCell>
        <mxCell id="dz-a4pQGunZjvAAqzRaD-140" value="" style="endArrow=none;html=1;rounded=0;exitX=1;exitY=0.5;exitDx=0;exitDy=0;" edge="1" parent="1" source="dz-a4pQGunZjvAAqzRaD-50">
          <mxGeometry width="50" height="50" relative="1" as="geometry">
            <mxPoint x="800" y="340" as="sourcePoint" />
            <mxPoint x="1050" y="350" as="targetPoint" />
            <Array as="points">
              <mxPoint x="1050" y="370" />
            </Array>
          </mxGeometry>
        </mxCell>
        <mxCell id="dz-a4pQGunZjvAAqzRaD-141" value="" style="group" vertex="1" connectable="0" parent="1">
          <mxGeometry x="190" y="60" width="400" height="177.5" as="geometry" />
        </mxCell>
        <mxCell id="dz-a4pQGunZjvAAqzRaD-142" value="End_time" style="ellipse;whiteSpace=wrap;html=1;rounded=0;movable=1;resizable=1;rotatable=1;deletable=1;editable=1;locked=0;connectable=1;" vertex="1" parent="dz-a4pQGunZjvAAqzRaD-141">
          <mxGeometry x="280" y="152.5" width="80" height="25" as="geometry" />
        </mxCell>
        <mxCell id="dz-a4pQGunZjvAAqzRaD-143" value="" style="group;movable=1;resizable=1;rotatable=1;deletable=1;editable=1;locked=0;connectable=1;" vertex="1" connectable="0" parent="dz-a4pQGunZjvAAqzRaD-141">
          <mxGeometry width="400" height="145" as="geometry" />
        </mxCell>
        <mxCell id="dz-a4pQGunZjvAAqzRaD-144" value="Athletics_and_rec" style="rounded=0;whiteSpace=wrap;html=1;fillColor=#D4E1F5;movable=1;resizable=1;rotatable=1;deletable=1;editable=1;locked=0;connectable=1;" vertex="1" parent="dz-a4pQGunZjvAAqzRaD-143">
          <mxGeometry x="150" y="88.03571428571429" width="120" height="31.071428571428573" as="geometry" />
        </mxCell>
        <mxCell id="dz-a4pQGunZjvAAqzRaD-145" value="&lt;u&gt;Ath_Id&lt;/u&gt;" style="ellipse;whiteSpace=wrap;html=1;rounded=0;movable=1;resizable=1;rotatable=1;deletable=1;editable=1;locked=0;connectable=1;" vertex="1" parent="dz-a4pQGunZjvAAqzRaD-143">
          <mxGeometry x="10" y="67.32142857142858" width="80" height="25.892857142857146" as="geometry" />
        </mxCell>
        <mxCell id="dz-a4pQGunZjvAAqzRaD-146" value="name" style="ellipse;whiteSpace=wrap;html=1;rounded=0;movable=1;resizable=1;rotatable=1;deletable=1;editable=1;locked=0;connectable=1;" vertex="1" parent="dz-a4pQGunZjvAAqzRaD-143">
          <mxGeometry x="60" y="25.892857142857146" width="80" height="25.892857142857146" as="geometry" />
        </mxCell>
        <mxCell id="dz-a4pQGunZjvAAqzRaD-147" value="Start_time" style="ellipse;whiteSpace=wrap;html=1;rounded=0;movable=1;resizable=1;rotatable=1;deletable=1;editable=1;locked=0;connectable=1;" vertex="1" parent="dz-a4pQGunZjvAAqzRaD-143">
          <mxGeometry x="320" y="119.10714285714286" width="80" height="25.892857142857146" as="geometry" />
        </mxCell>
        <mxCell id="dz-a4pQGunZjvAAqzRaD-148" value="Days" style="ellipse;whiteSpace=wrap;html=1;rounded=0;movable=1;resizable=1;rotatable=1;deletable=1;editable=1;locked=0;connectable=1;" vertex="1" parent="dz-a4pQGunZjvAAqzRaD-143">
          <mxGeometry y="111.33928571428572" width="80" height="25.892857142857146" as="geometry" />
        </mxCell>
        <mxCell id="dz-a4pQGunZjvAAqzRaD-149" value="Game_name" style="ellipse;whiteSpace=wrap;html=1;rounded=0;movable=1;resizable=1;rotatable=1;deletable=1;editable=1;locked=0;connectable=1;" vertex="1" parent="dz-a4pQGunZjvAAqzRaD-143">
          <mxGeometry x="120" width="80" height="25.892857142857146" as="geometry" />
        </mxCell>
        <mxCell id="dz-a4pQGunZjvAAqzRaD-150" value="Size" style="ellipse;whiteSpace=wrap;html=1;rounded=0;movable=1;resizable=1;rotatable=1;deletable=1;editable=1;locked=0;connectable=1;" vertex="1" parent="dz-a4pQGunZjvAAqzRaD-143">
          <mxGeometry x="230" y="10.357142857142858" width="80" height="25.892857142857146" as="geometry" />
        </mxCell>
        <mxCell id="dz-a4pQGunZjvAAqzRaD-151" value="ContactInfo" style="ellipse;whiteSpace=wrap;html=1;rounded=0;movable=1;resizable=1;rotatable=1;deletable=1;editable=1;locked=0;connectable=1;" vertex="1" parent="dz-a4pQGunZjvAAqzRaD-143">
          <mxGeometry x="290" y="36.25" width="80" height="25.892857142857146" as="geometry" />
        </mxCell>
        <mxCell id="dz-a4pQGunZjvAAqzRaD-152" value="Address" style="ellipse;whiteSpace=wrap;html=1;rounded=0;movable=1;resizable=1;rotatable=1;deletable=1;editable=1;locked=0;connectable=1;" vertex="1" parent="dz-a4pQGunZjvAAqzRaD-143">
          <mxGeometry x="320" y="77.67857142857143" width="80" height="25.892857142857146" as="geometry" />
        </mxCell>
        <mxCell id="dz-a4pQGunZjvAAqzRaD-153" value="" style="endArrow=none;html=1;rounded=0;exitX=1;exitY=0.5;exitDx=0;exitDy=0;entryX=0;entryY=0.5;entryDx=0;entryDy=0;" edge="1" parent="dz-a4pQGunZjvAAqzRaD-143" source="dz-a4pQGunZjvAAqzRaD-148" target="dz-a4pQGunZjvAAqzRaD-144">
          <mxGeometry width="50" height="50" relative="1" as="geometry">
            <mxPoint x="110" y="150" as="sourcePoint" />
            <mxPoint x="160" y="100" as="targetPoint" />
          </mxGeometry>
        </mxCell>
        <mxCell id="dz-a4pQGunZjvAAqzRaD-154" value="" style="endArrow=none;html=1;rounded=0;exitX=1;exitY=0.5;exitDx=0;exitDy=0;entryX=0;entryY=0;entryDx=0;entryDy=0;" edge="1" parent="dz-a4pQGunZjvAAqzRaD-143" source="dz-a4pQGunZjvAAqzRaD-145" target="dz-a4pQGunZjvAAqzRaD-144">
          <mxGeometry width="50" height="50" relative="1" as="geometry">
            <mxPoint x="110" y="150" as="sourcePoint" />
            <mxPoint x="160" y="100" as="targetPoint" />
          </mxGeometry>
        </mxCell>
        <mxCell id="dz-a4pQGunZjvAAqzRaD-155" value="" style="endArrow=none;html=1;rounded=0;exitX=1;exitY=1;exitDx=0;exitDy=0;entryX=0.127;entryY=0.064;entryDx=0;entryDy=0;entryPerimeter=0;" edge="1" parent="dz-a4pQGunZjvAAqzRaD-143" source="dz-a4pQGunZjvAAqzRaD-146" target="dz-a4pQGunZjvAAqzRaD-144">
          <mxGeometry width="50" height="50" relative="1" as="geometry">
            <mxPoint x="110" y="150" as="sourcePoint" />
            <mxPoint x="160" y="100" as="targetPoint" />
          </mxGeometry>
        </mxCell>
        <mxCell id="dz-a4pQGunZjvAAqzRaD-156" value="" style="endArrow=none;html=1;rounded=0;exitX=0.603;exitY=1.073;exitDx=0;exitDy=0;exitPerimeter=0;entryX=0.25;entryY=0;entryDx=0;entryDy=0;" edge="1" parent="dz-a4pQGunZjvAAqzRaD-143" source="dz-a4pQGunZjvAAqzRaD-149" target="dz-a4pQGunZjvAAqzRaD-144">
          <mxGeometry width="50" height="50" relative="1" as="geometry">
            <mxPoint x="110" y="150" as="sourcePoint" />
            <mxPoint x="160" y="100" as="targetPoint" />
          </mxGeometry>
        </mxCell>
        <mxCell id="dz-a4pQGunZjvAAqzRaD-157" value="" style="endArrow=none;html=1;rounded=0;exitX=0.333;exitY=0.943;exitDx=0;exitDy=0;exitPerimeter=0;entryX=0.375;entryY=-0.029;entryDx=0;entryDy=0;entryPerimeter=0;" edge="1" parent="dz-a4pQGunZjvAAqzRaD-143" source="dz-a4pQGunZjvAAqzRaD-150" target="dz-a4pQGunZjvAAqzRaD-144">
          <mxGeometry width="50" height="50" relative="1" as="geometry">
            <mxPoint x="110" y="150" as="sourcePoint" />
            <mxPoint x="160" y="100" as="targetPoint" />
          </mxGeometry>
        </mxCell>
        <mxCell id="dz-a4pQGunZjvAAqzRaD-158" value="" style="endArrow=none;html=1;rounded=0;exitX=0.75;exitY=0;exitDx=0;exitDy=0;entryX=0.321;entryY=1.018;entryDx=0;entryDy=0;entryPerimeter=0;" edge="1" parent="dz-a4pQGunZjvAAqzRaD-143" source="dz-a4pQGunZjvAAqzRaD-144" target="dz-a4pQGunZjvAAqzRaD-151">
          <mxGeometry width="50" height="50" relative="1" as="geometry">
            <mxPoint x="310" y="60" as="sourcePoint" />
            <mxPoint x="360" y="10" as="targetPoint" />
          </mxGeometry>
        </mxCell>
        <mxCell id="dz-a4pQGunZjvAAqzRaD-159" value="" style="endArrow=none;html=1;rounded=0;exitX=1;exitY=0.25;exitDx=0;exitDy=0;entryX=0;entryY=0.5;entryDx=0;entryDy=0;" edge="1" parent="dz-a4pQGunZjvAAqzRaD-143" source="dz-a4pQGunZjvAAqzRaD-144" target="dz-a4pQGunZjvAAqzRaD-152">
          <mxGeometry width="50" height="50" relative="1" as="geometry">
            <mxPoint x="310" y="60" as="sourcePoint" />
            <mxPoint x="360" y="10" as="targetPoint" />
          </mxGeometry>
        </mxCell>
        <mxCell id="dz-a4pQGunZjvAAqzRaD-160" value="" style="endArrow=none;html=1;rounded=0;exitX=1;exitY=0.75;exitDx=0;exitDy=0;entryX=0;entryY=0.5;entryDx=0;entryDy=0;" edge="1" parent="dz-a4pQGunZjvAAqzRaD-143" source="dz-a4pQGunZjvAAqzRaD-144" target="dz-a4pQGunZjvAAqzRaD-147">
          <mxGeometry width="50" height="50" relative="1" as="geometry">
            <mxPoint x="310" y="60" as="sourcePoint" />
            <mxPoint x="360" y="10" as="targetPoint" />
          </mxGeometry>
        </mxCell>
        <mxCell id="dz-a4pQGunZjvAAqzRaD-161" value="&lt;b&gt;1&lt;/b&gt;" style="text;html=1;strokeColor=none;fillColor=none;align=center;verticalAlign=middle;whiteSpace=wrap;rounded=0;" vertex="1" parent="dz-a4pQGunZjvAAqzRaD-143">
          <mxGeometry x="195" y="122.05000000000001" width="35" height="20" as="geometry" />
        </mxCell>
        <mxCell id="dz-a4pQGunZjvAAqzRaD-162" value="" style="endArrow=none;html=1;rounded=0;exitX=0.949;exitY=1.006;exitDx=0;exitDy=0;exitPerimeter=0;entryX=0.294;entryY=0.037;entryDx=0;entryDy=0;entryPerimeter=0;" edge="1" parent="dz-a4pQGunZjvAAqzRaD-141" source="dz-a4pQGunZjvAAqzRaD-144" target="dz-a4pQGunZjvAAqzRaD-142">
          <mxGeometry width="50" height="50" relative="1" as="geometry">
            <mxPoint x="310" y="60" as="sourcePoint" />
            <mxPoint x="300" y="150" as="targetPoint" />
          </mxGeometry>
        </mxCell>
        <mxCell id="dz-a4pQGunZjvAAqzRaD-163" value="have" style="rhombus;whiteSpace=wrap;html=1;fillColor=#FFB366;" vertex="1" parent="1">
          <mxGeometry x="350" y="230" width="80" height="42.5" as="geometry" />
        </mxCell>
        <mxCell id="dz-a4pQGunZjvAAqzRaD-164" value="" style="endArrow=none;html=1;rounded=0;exitX=0.5;exitY=0;exitDx=0;exitDy=0;entryX=0.5;entryY=1;entryDx=0;entryDy=0;" edge="1" parent="1" source="dz-a4pQGunZjvAAqzRaD-2" target="dz-a4pQGunZjvAAqzRaD-163">
          <mxGeometry width="50" height="50" relative="1" as="geometry">
            <mxPoint x="480" y="380" as="sourcePoint" />
            <mxPoint x="530" y="330" as="targetPoint" />
          </mxGeometry>
        </mxCell>
        <mxCell id="dz-a4pQGunZjvAAqzRaD-165" value="" style="endArrow=none;html=1;rounded=0;entryX=0.5;entryY=0;entryDx=0;entryDy=0;" edge="1" parent="1" target="dz-a4pQGunZjvAAqzRaD-163">
          <mxGeometry width="50" height="50" relative="1" as="geometry">
            <mxPoint x="390" y="180" as="sourcePoint" />
            <mxPoint x="530" y="330" as="targetPoint" />
          </mxGeometry>
        </mxCell>
        <mxCell id="dz-a4pQGunZjvAAqzRaD-166" value="" style="group" vertex="1" connectable="0" parent="1">
          <mxGeometry x="-270" y="205" width="410" height="117.5" as="geometry" />
        </mxCell>
        <mxCell id="dz-a4pQGunZjvAAqzRaD-167" value="Dining" style="rounded=0;whiteSpace=wrap;html=1;fillColor=#D4E1F5;" vertex="1" parent="dz-a4pQGunZjvAAqzRaD-166">
          <mxGeometry x="120" y="87.5" width="120" height="30" as="geometry" />
        </mxCell>
        <mxCell id="dz-a4pQGunZjvAAqzRaD-168" value="Operating_hours" style="ellipse;whiteSpace=wrap;html=1;" vertex="1" parent="dz-a4pQGunZjvAAqzRaD-166">
          <mxGeometry x="300" y="92.5" width="110" height="25" as="geometry" />
        </mxCell>
        <mxCell id="dz-a4pQGunZjvAAqzRaD-169" value="Capacity" style="ellipse;whiteSpace=wrap;html=1;" vertex="1" parent="dz-a4pQGunZjvAAqzRaD-166">
          <mxGeometry x="300" y="42.5" width="80" height="30" as="geometry" />
        </mxCell>
        <mxCell id="dz-a4pQGunZjvAAqzRaD-170" value="Cuisine_type" style="ellipse;whiteSpace=wrap;html=1;" vertex="1" parent="dz-a4pQGunZjvAAqzRaD-166">
          <mxGeometry x="150" width="80" height="30" as="geometry" />
        </mxCell>
        <mxCell id="dz-a4pQGunZjvAAqzRaD-171" value="name" style="ellipse;whiteSpace=wrap;html=1;" vertex="1" parent="dz-a4pQGunZjvAAqzRaD-166">
          <mxGeometry x="60" y="7.5" width="80" height="30" as="geometry" />
        </mxCell>
        <mxCell id="dz-a4pQGunZjvAAqzRaD-172" value="Type" style="ellipse;whiteSpace=wrap;html=1;" vertex="1" parent="dz-a4pQGunZjvAAqzRaD-166">
          <mxGeometry x="20" y="42.5" width="80" height="30" as="geometry" />
        </mxCell>
        <mxCell id="dz-a4pQGunZjvAAqzRaD-173" value="&lt;u&gt;Dining_ID&lt;/u&gt;" style="ellipse;whiteSpace=wrap;html=1;" vertex="1" parent="dz-a4pQGunZjvAAqzRaD-166">
          <mxGeometry y="87.5" width="80" height="30" as="geometry" />
        </mxCell>
        <mxCell id="dz-a4pQGunZjvAAqzRaD-174" value="Address" style="ellipse;whiteSpace=wrap;html=1;" vertex="1" parent="dz-a4pQGunZjvAAqzRaD-166">
          <mxGeometry x="240" y="12.5" width="80" height="30" as="geometry" />
        </mxCell>
        <mxCell id="dz-a4pQGunZjvAAqzRaD-175" value="" style="endArrow=none;html=1;rounded=0;entryX=1;entryY=0.5;entryDx=0;entryDy=0;exitX=0;exitY=0.5;exitDx=0;exitDy=0;" edge="1" parent="dz-a4pQGunZjvAAqzRaD-166" source="dz-a4pQGunZjvAAqzRaD-167" target="dz-a4pQGunZjvAAqzRaD-173">
          <mxGeometry width="50" height="50" relative="1" as="geometry">
            <mxPoint x="120" y="115" as="sourcePoint" />
            <mxPoint x="20" y="255" as="targetPoint" />
          </mxGeometry>
        </mxCell>
        <mxCell id="dz-a4pQGunZjvAAqzRaD-176" value="" style="endArrow=none;html=1;rounded=0;exitX=1;exitY=1;exitDx=0;exitDy=0;entryX=0;entryY=0;entryDx=0;entryDy=0;" edge="1" parent="dz-a4pQGunZjvAAqzRaD-166" source="dz-a4pQGunZjvAAqzRaD-172" target="dz-a4pQGunZjvAAqzRaD-167">
          <mxGeometry width="50" height="50" relative="1" as="geometry">
            <mxPoint x="-30" y="305" as="sourcePoint" />
            <mxPoint x="20" y="255" as="targetPoint" />
          </mxGeometry>
        </mxCell>
        <mxCell id="dz-a4pQGunZjvAAqzRaD-177" value="" style="endArrow=none;html=1;rounded=0;entryX=1;entryY=1;entryDx=0;entryDy=0;exitX=0.136;exitY=-0.02;exitDx=0;exitDy=0;exitPerimeter=0;" edge="1" parent="dz-a4pQGunZjvAAqzRaD-166" source="dz-a4pQGunZjvAAqzRaD-167" target="dz-a4pQGunZjvAAqzRaD-171">
          <mxGeometry width="50" height="50" relative="1" as="geometry">
            <mxPoint x="140" y="85" as="sourcePoint" />
            <mxPoint x="20" y="255" as="targetPoint" />
          </mxGeometry>
        </mxCell>
        <mxCell id="dz-a4pQGunZjvAAqzRaD-178" value="" style="endArrow=none;html=1;rounded=0;exitX=0.5;exitY=1;exitDx=0;exitDy=0;entryX=0.25;entryY=0;entryDx=0;entryDy=0;" edge="1" parent="dz-a4pQGunZjvAAqzRaD-166" source="dz-a4pQGunZjvAAqzRaD-170" target="dz-a4pQGunZjvAAqzRaD-167">
          <mxGeometry width="50" height="50" relative="1" as="geometry">
            <mxPoint x="-30" y="305" as="sourcePoint" />
            <mxPoint x="20" y="255" as="targetPoint" />
          </mxGeometry>
        </mxCell>
        <mxCell id="dz-a4pQGunZjvAAqzRaD-179" value="" style="endArrow=none;html=1;rounded=0;exitX=0.293;exitY=0.944;exitDx=0;exitDy=0;exitPerimeter=0;entryX=0.584;entryY=-0.049;entryDx=0;entryDy=0;entryPerimeter=0;" edge="1" parent="dz-a4pQGunZjvAAqzRaD-166" source="dz-a4pQGunZjvAAqzRaD-174" target="dz-a4pQGunZjvAAqzRaD-167">
          <mxGeometry width="50" height="50" relative="1" as="geometry">
            <mxPoint x="-30" y="305" as="sourcePoint" />
            <mxPoint x="20" y="255" as="targetPoint" />
          </mxGeometry>
        </mxCell>
        <mxCell id="dz-a4pQGunZjvAAqzRaD-180" value="" style="endArrow=none;html=1;rounded=0;exitX=0;exitY=0.5;exitDx=0;exitDy=0;" edge="1" parent="dz-a4pQGunZjvAAqzRaD-166" source="dz-a4pQGunZjvAAqzRaD-169" target="dz-a4pQGunZjvAAqzRaD-167">
          <mxGeometry width="50" height="50" relative="1" as="geometry">
            <mxPoint x="-30" y="305" as="sourcePoint" />
            <mxPoint x="20" y="255" as="targetPoint" />
          </mxGeometry>
        </mxCell>
        <mxCell id="dz-a4pQGunZjvAAqzRaD-181" value="" style="endArrow=none;html=1;rounded=0;exitX=0;exitY=0.5;exitDx=0;exitDy=0;entryX=1;entryY=0.5;entryDx=0;entryDy=0;" edge="1" parent="dz-a4pQGunZjvAAqzRaD-166" source="dz-a4pQGunZjvAAqzRaD-168" target="dz-a4pQGunZjvAAqzRaD-167">
          <mxGeometry width="50" height="50" relative="1" as="geometry">
            <mxPoint x="-30" y="305" as="sourcePoint" />
            <mxPoint x="20" y="255" as="targetPoint" />
          </mxGeometry>
        </mxCell>
        <mxCell id="dz-a4pQGunZjvAAqzRaD-182" value="have" style="rhombus;whiteSpace=wrap;html=1;fillColor=#FFB366;" vertex="1" parent="1">
          <mxGeometry x="-130" y="345" width="80" height="40" as="geometry" />
        </mxCell>
        <mxCell id="dz-a4pQGunZjvAAqzRaD-183" value="" style="endArrow=none;html=1;rounded=0;exitX=1;exitY=0.5;exitDx=0;exitDy=0;entryX=0;entryY=0.5;entryDx=0;entryDy=0;" edge="1" parent="1" source="dz-a4pQGunZjvAAqzRaD-182" target="dz-a4pQGunZjvAAqzRaD-2">
          <mxGeometry width="50" height="50" relative="1" as="geometry">
            <mxPoint x="130" y="410" as="sourcePoint" />
            <mxPoint x="180" y="360" as="targetPoint" />
          </mxGeometry>
        </mxCell>
        <mxCell id="dz-a4pQGunZjvAAqzRaD-184" value="" style="endArrow=none;html=1;rounded=0;exitX=0.5;exitY=0;exitDx=0;exitDy=0;entryX=0.5;entryY=1;entryDx=0;entryDy=0;" edge="1" parent="1" source="dz-a4pQGunZjvAAqzRaD-182" target="dz-a4pQGunZjvAAqzRaD-167">
          <mxGeometry width="50" height="50" relative="1" as="geometry">
            <mxPoint x="130" y="410" as="sourcePoint" />
            <mxPoint x="180" y="360" as="targetPoint" />
          </mxGeometry>
        </mxCell>
        <mxCell id="dz-a4pQGunZjvAAqzRaD-185" value="" style="group" vertex="1" connectable="0" parent="1">
          <mxGeometry x="-600" y="311.25" width="320" height="100" as="geometry" />
        </mxCell>
        <mxCell id="dz-a4pQGunZjvAAqzRaD-186" value="Parking" style="rounded=0;whiteSpace=wrap;html=1;fillColor=#D4E1F5;" vertex="1" parent="dz-a4pQGunZjvAAqzRaD-185">
          <mxGeometry x="100" y="70" width="120" height="30" as="geometry" />
        </mxCell>
        <mxCell id="dz-a4pQGunZjvAAqzRaD-187" value="Fees" style="ellipse;whiteSpace=wrap;html=1;" vertex="1" parent="dz-a4pQGunZjvAAqzRaD-185">
          <mxGeometry x="230" y="30" width="80" height="30" as="geometry" />
        </mxCell>
        <mxCell id="dz-a4pQGunZjvAAqzRaD-188" value="Availability" style="ellipse;whiteSpace=wrap;html=1;" vertex="1" parent="dz-a4pQGunZjvAAqzRaD-185">
          <mxGeometry x="240" y="70" width="80" height="30" as="geometry" />
        </mxCell>
        <mxCell id="dz-a4pQGunZjvAAqzRaD-189" value="Type" style="ellipse;whiteSpace=wrap;html=1;" vertex="1" parent="dz-a4pQGunZjvAAqzRaD-185">
          <mxGeometry x="80" width="80" height="30" as="geometry" />
        </mxCell>
        <mxCell id="dz-a4pQGunZjvAAqzRaD-190" value="Capacity" style="ellipse;whiteSpace=wrap;html=1;" vertex="1" parent="dz-a4pQGunZjvAAqzRaD-185">
          <mxGeometry x="30" y="30" width="80" height="30" as="geometry" />
        </mxCell>
        <mxCell id="dz-a4pQGunZjvAAqzRaD-191" value="&lt;u&gt;Parking_ID&lt;/u&gt;" style="ellipse;whiteSpace=wrap;html=1;" vertex="1" parent="dz-a4pQGunZjvAAqzRaD-185">
          <mxGeometry y="70" width="80" height="30" as="geometry" />
        </mxCell>
        <mxCell id="dz-a4pQGunZjvAAqzRaD-192" value="Location" style="ellipse;whiteSpace=wrap;html=1;" vertex="1" parent="dz-a4pQGunZjvAAqzRaD-185">
          <mxGeometry x="170" width="80" height="30" as="geometry" />
        </mxCell>
        <mxCell id="dz-a4pQGunZjvAAqzRaD-193" value="" style="endArrow=none;html=1;rounded=0;exitX=1;exitY=1;exitDx=0;exitDy=0;entryX=0;entryY=0;entryDx=0;entryDy=0;" edge="1" parent="dz-a4pQGunZjvAAqzRaD-185" source="dz-a4pQGunZjvAAqzRaD-190" target="dz-a4pQGunZjvAAqzRaD-186">
          <mxGeometry width="50" height="50" relative="1" as="geometry">
            <mxPoint x="280" y="198.75" as="sourcePoint" />
            <mxPoint x="330" y="148.75" as="targetPoint" />
          </mxGeometry>
        </mxCell>
        <mxCell id="dz-a4pQGunZjvAAqzRaD-194" value="" style="endArrow=none;html=1;rounded=0;exitX=0.5;exitY=1;exitDx=0;exitDy=0;entryX=0.25;entryY=0;entryDx=0;entryDy=0;" edge="1" parent="dz-a4pQGunZjvAAqzRaD-185" source="dz-a4pQGunZjvAAqzRaD-189" target="dz-a4pQGunZjvAAqzRaD-186">
          <mxGeometry width="50" height="50" relative="1" as="geometry">
            <mxPoint x="280" y="198.75" as="sourcePoint" />
            <mxPoint x="330" y="148.75" as="targetPoint" />
          </mxGeometry>
        </mxCell>
        <mxCell id="dz-a4pQGunZjvAAqzRaD-195" value="" style="endArrow=none;html=1;rounded=0;exitX=0;exitY=1;exitDx=0;exitDy=0;entryX=0.5;entryY=0;entryDx=0;entryDy=0;" edge="1" parent="dz-a4pQGunZjvAAqzRaD-185" source="dz-a4pQGunZjvAAqzRaD-192" target="dz-a4pQGunZjvAAqzRaD-186">
          <mxGeometry width="50" height="50" relative="1" as="geometry">
            <mxPoint x="280" y="198.75" as="sourcePoint" />
            <mxPoint x="330" y="148.75" as="targetPoint" />
          </mxGeometry>
        </mxCell>
        <mxCell id="dz-a4pQGunZjvAAqzRaD-196" value="" style="endArrow=none;html=1;rounded=0;exitX=0;exitY=0.5;exitDx=0;exitDy=0;entryX=0.75;entryY=0;entryDx=0;entryDy=0;" edge="1" parent="dz-a4pQGunZjvAAqzRaD-185" source="dz-a4pQGunZjvAAqzRaD-187" target="dz-a4pQGunZjvAAqzRaD-186">
          <mxGeometry width="50" height="50" relative="1" as="geometry">
            <mxPoint x="280" y="198.75" as="sourcePoint" />
            <mxPoint x="330" y="148.75" as="targetPoint" />
          </mxGeometry>
        </mxCell>
        <mxCell id="dz-a4pQGunZjvAAqzRaD-197" value="" style="endArrow=none;html=1;rounded=0;exitX=0;exitY=0.5;exitDx=0;exitDy=0;entryX=1;entryY=0.5;entryDx=0;entryDy=0;" edge="1" parent="dz-a4pQGunZjvAAqzRaD-185" source="dz-a4pQGunZjvAAqzRaD-188" target="dz-a4pQGunZjvAAqzRaD-186">
          <mxGeometry width="50" height="50" relative="1" as="geometry">
            <mxPoint x="280" y="198.75" as="sourcePoint" />
            <mxPoint x="330" y="148.75" as="targetPoint" />
          </mxGeometry>
        </mxCell>
        <mxCell id="dz-a4pQGunZjvAAqzRaD-198" value="has" style="rhombus;whiteSpace=wrap;html=1;fillColor=#FFB366;" vertex="1" parent="1">
          <mxGeometry x="-480" y="430" width="80" height="60" as="geometry" />
        </mxCell>
        <mxCell id="dz-a4pQGunZjvAAqzRaD-199" value="" style="endArrow=none;html=1;rounded=0;exitX=1;exitY=0.5;exitDx=0;exitDy=0;entryX=0;entryY=1;entryDx=0;entryDy=0;" edge="1" parent="1" source="dz-a4pQGunZjvAAqzRaD-198" target="dz-a4pQGunZjvAAqzRaD-2">
          <mxGeometry width="50" height="50" relative="1" as="geometry">
            <mxPoint x="-100" y="390" as="sourcePoint" />
            <mxPoint x="-50" y="340" as="targetPoint" />
          </mxGeometry>
        </mxCell>
        <mxCell id="dz-a4pQGunZjvAAqzRaD-200" value="" style="endArrow=none;html=1;rounded=0;exitX=1;exitY=1;exitDx=0;exitDy=0;" edge="1" parent="1" source="dz-a4pQGunZjvAAqzRaD-2">
          <mxGeometry width="50" height="50" relative="1" as="geometry">
            <mxPoint x="780" y="560" as="sourcePoint" />
            <mxPoint x="880" y="470" as="targetPoint" />
          </mxGeometry>
        </mxCell>
        <mxCell id="dz-a4pQGunZjvAAqzRaD-201" value="" style="endArrow=none;html=1;rounded=0;exitX=1;exitY=0.5;exitDx=0;exitDy=0;entryX=0;entryY=0.75;entryDx=0;entryDy=0;" edge="1" parent="1" source="dz-a4pQGunZjvAAqzRaD-51" target="dz-a4pQGunZjvAAqzRaD-212">
          <mxGeometry width="50" height="50" relative="1" as="geometry">
            <mxPoint x="970" y="480" as="sourcePoint" />
            <mxPoint x="1060" y="510" as="targetPoint" />
          </mxGeometry>
        </mxCell>
        <mxCell id="dz-a4pQGunZjvAAqzRaD-202" value="" style="endArrow=none;html=1;rounded=0;exitX=1;exitY=0.25;exitDx=0;exitDy=0;entryX=0.5;entryY=1;entryDx=0;entryDy=0;" edge="1" parent="1" source="dz-a4pQGunZjvAAqzRaD-2" target="dz-a4pQGunZjvAAqzRaD-76">
          <mxGeometry width="50" height="50" relative="1" as="geometry">
            <mxPoint x="810" y="130" as="sourcePoint" />
            <mxPoint x="860" y="80" as="targetPoint" />
          </mxGeometry>
        </mxCell>
        <mxCell id="dz-a4pQGunZjvAAqzRaD-203" value="" style="endArrow=none;html=1;rounded=0;exitX=1;exitY=0.5;exitDx=0;exitDy=0;entryX=0;entryY=0.5;entryDx=0;entryDy=0;" edge="1" parent="1" source="dz-a4pQGunZjvAAqzRaD-2" target="dz-a4pQGunZjvAAqzRaD-75">
          <mxGeometry width="50" height="50" relative="1" as="geometry">
            <mxPoint x="740" y="130" as="sourcePoint" />
            <mxPoint x="790" y="80" as="targetPoint" />
          </mxGeometry>
        </mxCell>
        <mxCell id="dz-a4pQGunZjvAAqzRaD-204" value="" style="group" vertex="1" connectable="0" parent="1">
          <mxGeometry x="1240" y="257.5" width="560" height="222.5" as="geometry" />
        </mxCell>
        <mxCell id="dz-a4pQGunZjvAAqzRaD-205" value="&lt;u&gt;Residence_ID&lt;/u&gt;" style="ellipse;whiteSpace=wrap;html=1;" vertex="1" parent="dz-a4pQGunZjvAAqzRaD-204">
          <mxGeometry x="-20" y="170" width="100" height="32.5" as="geometry" />
        </mxCell>
        <mxCell id="dz-a4pQGunZjvAAqzRaD-206" value="Address" style="ellipse;whiteSpace=wrap;html=1;" vertex="1" parent="dz-a4pQGunZjvAAqzRaD-204">
          <mxGeometry x="30" y="90" width="100" height="30" as="geometry" />
        </mxCell>
        <mxCell id="dz-a4pQGunZjvAAqzRaD-207" value="Name" style="ellipse;whiteSpace=wrap;html=1;" vertex="1" parent="dz-a4pQGunZjvAAqzRaD-204">
          <mxGeometry x="10" y="135" width="80" height="30" as="geometry" />
        </mxCell>
        <mxCell id="dz-a4pQGunZjvAAqzRaD-208" value="Amenities" style="ellipse;whiteSpace=wrap;html=1;" vertex="1" parent="dz-a4pQGunZjvAAqzRaD-204">
          <mxGeometry x="365" y="85" width="120" height="35" as="geometry" />
        </mxCell>
        <mxCell id="dz-a4pQGunZjvAAqzRaD-209" value="Utilities" style="ellipse;whiteSpace=wrap;html=1;" vertex="1" parent="dz-a4pQGunZjvAAqzRaD-204">
          <mxGeometry x="420" y="130" width="120" height="35" as="geometry" />
        </mxCell>
        <mxCell id="dz-a4pQGunZjvAAqzRaD-210" value="Rent" style="ellipse;whiteSpace=wrap;html=1;" vertex="1" parent="dz-a4pQGunZjvAAqzRaD-204">
          <mxGeometry x="440" y="187.5" width="120" height="35" as="geometry" />
        </mxCell>
        <mxCell id="dz-a4pQGunZjvAAqzRaD-211" value="Deposits" style="ellipse;whiteSpace=wrap;html=1;" vertex="1" parent="dz-a4pQGunZjvAAqzRaD-204">
          <mxGeometry x="340" y="35" width="120" height="35" as="geometry" />
        </mxCell>
        <mxCell id="dz-a4pQGunZjvAAqzRaD-212" value="Residence_and_housing" style="rounded=0;whiteSpace=wrap;html=1;fillColor=#D4E1F5;" vertex="1" parent="dz-a4pQGunZjvAAqzRaD-204">
          <mxGeometry x="205" y="190" width="160" height="30" as="geometry" />
        </mxCell>
        <mxCell id="dz-a4pQGunZjvAAqzRaD-213" value="Room_Type" style="ellipse;whiteSpace=wrap;html=1;" vertex="1" parent="dz-a4pQGunZjvAAqzRaD-204">
          <mxGeometry x="75" y="50" width="120" height="35" as="geometry" />
        </mxCell>
        <mxCell id="dz-a4pQGunZjvAAqzRaD-214" value="Type" style="ellipse;whiteSpace=wrap;html=1;" vertex="1" parent="dz-a4pQGunZjvAAqzRaD-204">
          <mxGeometry x="130" y="12.5" width="120" height="30" as="geometry" />
        </mxCell>
        <mxCell id="dz-a4pQGunZjvAAqzRaD-215" value="Capacity" style="ellipse;whiteSpace=wrap;html=1;" vertex="1" parent="dz-a4pQGunZjvAAqzRaD-204">
          <mxGeometry x="260" width="120" height="35" as="geometry" />
        </mxCell>
        <mxCell id="dz-a4pQGunZjvAAqzRaD-216" value="" style="endArrow=none;html=1;rounded=0;exitX=1;exitY=1;exitDx=0;exitDy=0;entryX=0;entryY=0.25;entryDx=0;entryDy=0;" edge="1" parent="dz-a4pQGunZjvAAqzRaD-204" source="dz-a4pQGunZjvAAqzRaD-205" target="dz-a4pQGunZjvAAqzRaD-212">
          <mxGeometry width="50" height="50" relative="1" as="geometry">
            <mxPoint x="180" y="232.5" as="sourcePoint" />
            <mxPoint x="230" y="182.5" as="targetPoint" />
          </mxGeometry>
        </mxCell>
        <mxCell id="dz-a4pQGunZjvAAqzRaD-217" value="" style="endArrow=none;html=1;rounded=0;exitX=1;exitY=0.5;exitDx=0;exitDy=0;entryX=0.096;entryY=0.018;entryDx=0;entryDy=0;entryPerimeter=0;" edge="1" parent="dz-a4pQGunZjvAAqzRaD-204" source="dz-a4pQGunZjvAAqzRaD-207" target="dz-a4pQGunZjvAAqzRaD-212">
          <mxGeometry width="50" height="50" relative="1" as="geometry">
            <mxPoint x="180" y="232.5" as="sourcePoint" />
            <mxPoint x="230" y="182.5" as="targetPoint" />
          </mxGeometry>
        </mxCell>
        <mxCell id="dz-a4pQGunZjvAAqzRaD-218" value="" style="endArrow=none;html=1;rounded=0;exitX=1;exitY=1;exitDx=0;exitDy=0;entryX=0.156;entryY=0.083;entryDx=0;entryDy=0;entryPerimeter=0;" edge="1" parent="dz-a4pQGunZjvAAqzRaD-204" source="dz-a4pQGunZjvAAqzRaD-206" target="dz-a4pQGunZjvAAqzRaD-212">
          <mxGeometry width="50" height="50" relative="1" as="geometry">
            <mxPoint x="180" y="232.5" as="sourcePoint" />
            <mxPoint x="230" y="182.5" as="targetPoint" />
          </mxGeometry>
        </mxCell>
        <mxCell id="dz-a4pQGunZjvAAqzRaD-219" value="" style="endArrow=none;html=1;rounded=0;exitX=0.5;exitY=1;exitDx=0;exitDy=0;entryX=0.352;entryY=-0.01;entryDx=0;entryDy=0;entryPerimeter=0;" edge="1" parent="dz-a4pQGunZjvAAqzRaD-204" source="dz-a4pQGunZjvAAqzRaD-215" target="dz-a4pQGunZjvAAqzRaD-212">
          <mxGeometry width="50" height="50" relative="1" as="geometry">
            <mxPoint x="300" y="42.5" as="sourcePoint" />
            <mxPoint x="260" y="182.5" as="targetPoint" />
          </mxGeometry>
        </mxCell>
        <mxCell id="dz-a4pQGunZjvAAqzRaD-220" value="" style="endArrow=none;html=1;rounded=0;exitX=0.247;exitY=0.934;exitDx=0;exitDy=0;exitPerimeter=0;entryX=0.437;entryY=0.075;entryDx=0;entryDy=0;entryPerimeter=0;" edge="1" parent="dz-a4pQGunZjvAAqzRaD-204" source="dz-a4pQGunZjvAAqzRaD-211" target="dz-a4pQGunZjvAAqzRaD-212">
          <mxGeometry width="50" height="50" relative="1" as="geometry">
            <mxPoint x="180" y="232.5" as="sourcePoint" />
            <mxPoint x="230" y="182.5" as="targetPoint" />
          </mxGeometry>
        </mxCell>
        <mxCell id="dz-a4pQGunZjvAAqzRaD-221" value="" style="endArrow=none;html=1;rounded=0;exitX=0.667;exitY=0.104;exitDx=0;exitDy=0;exitPerimeter=0;entryX=0;entryY=1;entryDx=0;entryDy=0;" edge="1" parent="dz-a4pQGunZjvAAqzRaD-204" source="dz-a4pQGunZjvAAqzRaD-212" target="dz-a4pQGunZjvAAqzRaD-208">
          <mxGeometry width="50" height="50" relative="1" as="geometry">
            <mxPoint x="180" y="232.5" as="sourcePoint" />
            <mxPoint x="230" y="182.5" as="targetPoint" />
          </mxGeometry>
        </mxCell>
        <mxCell id="dz-a4pQGunZjvAAqzRaD-222" value="" style="endArrow=none;html=1;rounded=0;exitX=0.891;exitY=-0.038;exitDx=0;exitDy=0;exitPerimeter=0;entryX=0;entryY=0.5;entryDx=0;entryDy=0;" edge="1" parent="dz-a4pQGunZjvAAqzRaD-204" source="dz-a4pQGunZjvAAqzRaD-212" target="dz-a4pQGunZjvAAqzRaD-209">
          <mxGeometry width="50" height="50" relative="1" as="geometry">
            <mxPoint x="180" y="232.5" as="sourcePoint" />
            <mxPoint x="230" y="182.5" as="targetPoint" />
          </mxGeometry>
        </mxCell>
        <mxCell id="dz-a4pQGunZjvAAqzRaD-223" value="" style="group" vertex="1" connectable="0" parent="1">
          <mxGeometry x="930" y="-350" width="390" height="172.5" as="geometry" />
        </mxCell>
        <mxCell id="dz-a4pQGunZjvAAqzRaD-224" value="Courses" style="rounded=0;whiteSpace=wrap;html=1;fillColor=#D4E1F5;" vertex="1" parent="dz-a4pQGunZjvAAqzRaD-223">
          <mxGeometry x="130" y="112.5" width="120" height="30" as="geometry" />
        </mxCell>
        <mxCell id="dz-a4pQGunZjvAAqzRaD-225" value="Description" style="ellipse;whiteSpace=wrap;html=1;" vertex="1" parent="dz-a4pQGunZjvAAqzRaD-223">
          <mxGeometry x="210" width="80" height="30" as="geometry" />
        </mxCell>
        <mxCell id="dz-a4pQGunZjvAAqzRaD-226" value="Duration" style="ellipse;whiteSpace=wrap;html=1;" vertex="1" parent="dz-a4pQGunZjvAAqzRaD-223">
          <mxGeometry x="100" y="-10" width="80" height="30" as="geometry" />
        </mxCell>
        <mxCell id="dz-a4pQGunZjvAAqzRaD-227" value="Credits" style="ellipse;whiteSpace=wrap;html=1;" vertex="1" parent="dz-a4pQGunZjvAAqzRaD-223">
          <mxGeometry x="60" y="30" width="80" height="30" as="geometry" />
        </mxCell>
        <mxCell id="dz-a4pQGunZjvAAqzRaD-228" value="name" style="ellipse;whiteSpace=wrap;html=1;" vertex="1" parent="dz-a4pQGunZjvAAqzRaD-223">
          <mxGeometry x="40" y="72.5" width="80" height="30" as="geometry" />
        </mxCell>
        <mxCell id="dz-a4pQGunZjvAAqzRaD-229" value="&lt;u&gt;Course_ID&lt;/u&gt;" style="ellipse;whiteSpace=wrap;html=1;" vertex="1" parent="dz-a4pQGunZjvAAqzRaD-223">
          <mxGeometry x="20" y="112.5" width="80" height="30" as="geometry" />
        </mxCell>
        <mxCell id="dz-a4pQGunZjvAAqzRaD-230" value="Material" style="ellipse;whiteSpace=wrap;html=1;" vertex="1" parent="dz-a4pQGunZjvAAqzRaD-223">
          <mxGeometry x="265" y="30" width="80" height="30" as="geometry" />
        </mxCell>
        <mxCell id="dz-a4pQGunZjvAAqzRaD-231" value="Syllabus" style="ellipse;whiteSpace=wrap;html=1;" vertex="1" parent="dz-a4pQGunZjvAAqzRaD-223">
          <mxGeometry x="305" y="117.5" width="80" height="30" as="geometry" />
        </mxCell>
        <mxCell id="dz-a4pQGunZjvAAqzRaD-232" value="Enrollment_capacity" style="ellipse;whiteSpace=wrap;html=1;" vertex="1" parent="dz-a4pQGunZjvAAqzRaD-223">
          <mxGeometry x="280" y="72.5" width="120" height="30" as="geometry" />
        </mxCell>
        <mxCell id="dz-a4pQGunZjvAAqzRaD-233" value="" style="endArrow=none;html=1;rounded=0;exitX=1;exitY=0.5;exitDx=0;exitDy=0;entryX=0;entryY=0.5;entryDx=0;entryDy=0;" edge="1" parent="dz-a4pQGunZjvAAqzRaD-223" source="dz-a4pQGunZjvAAqzRaD-229" target="dz-a4pQGunZjvAAqzRaD-224">
          <mxGeometry width="50" height="50" relative="1" as="geometry">
            <mxPoint x="230" y="120" as="sourcePoint" />
            <mxPoint x="280" y="70" as="targetPoint" />
          </mxGeometry>
        </mxCell>
        <mxCell id="dz-a4pQGunZjvAAqzRaD-234" value="" style="endArrow=none;html=1;rounded=0;exitX=1;exitY=1;exitDx=0;exitDy=0;entryX=0;entryY=0;entryDx=0;entryDy=0;" edge="1" parent="dz-a4pQGunZjvAAqzRaD-223" source="dz-a4pQGunZjvAAqzRaD-228" target="dz-a4pQGunZjvAAqzRaD-224">
          <mxGeometry width="50" height="50" relative="1" as="geometry">
            <mxPoint x="230" y="120" as="sourcePoint" />
            <mxPoint x="280" y="70" as="targetPoint" />
          </mxGeometry>
        </mxCell>
        <mxCell id="dz-a4pQGunZjvAAqzRaD-235" value="" style="endArrow=none;html=1;rounded=0;exitX=1;exitY=1;exitDx=0;exitDy=0;entryX=0.25;entryY=0;entryDx=0;entryDy=0;" edge="1" parent="dz-a4pQGunZjvAAqzRaD-223" source="dz-a4pQGunZjvAAqzRaD-227" target="dz-a4pQGunZjvAAqzRaD-224">
          <mxGeometry width="50" height="50" relative="1" as="geometry">
            <mxPoint x="230" y="120" as="sourcePoint" />
            <mxPoint x="280" y="70" as="targetPoint" />
          </mxGeometry>
        </mxCell>
        <mxCell id="dz-a4pQGunZjvAAqzRaD-236" value="" style="endArrow=none;html=1;rounded=0;exitX=1;exitY=0;exitDx=0;exitDy=0;entryX=0;entryY=0.5;entryDx=0;entryDy=0;" edge="1" parent="dz-a4pQGunZjvAAqzRaD-223" source="dz-a4pQGunZjvAAqzRaD-224" target="dz-a4pQGunZjvAAqzRaD-232">
          <mxGeometry width="50" height="50" relative="1" as="geometry">
            <mxPoint x="230" y="120" as="sourcePoint" />
            <mxPoint x="280" y="70" as="targetPoint" />
          </mxGeometry>
        </mxCell>
        <mxCell id="dz-a4pQGunZjvAAqzRaD-237" value="" style="endArrow=none;html=1;rounded=0;exitX=1;exitY=0.5;exitDx=0;exitDy=0;entryX=0;entryY=0.5;entryDx=0;entryDy=0;" edge="1" parent="dz-a4pQGunZjvAAqzRaD-223" source="dz-a4pQGunZjvAAqzRaD-224" target="dz-a4pQGunZjvAAqzRaD-231">
          <mxGeometry width="50" height="50" relative="1" as="geometry">
            <mxPoint x="230" y="120" as="sourcePoint" />
            <mxPoint x="280" y="70" as="targetPoint" />
          </mxGeometry>
        </mxCell>
        <mxCell id="dz-a4pQGunZjvAAqzRaD-238" value="&lt;b&gt;N&lt;/b&gt;" style="text;html=1;strokeColor=none;fillColor=none;align=center;verticalAlign=middle;whiteSpace=wrap;rounded=0;" vertex="1" parent="dz-a4pQGunZjvAAqzRaD-223">
          <mxGeometry x="190" y="142.5" width="60" height="30" as="geometry" />
        </mxCell>
        <mxCell id="dz-a4pQGunZjvAAqzRaD-239" value="&lt;b&gt;1&lt;/b&gt;" style="text;html=1;strokeColor=none;fillColor=none;align=center;verticalAlign=middle;whiteSpace=wrap;rounded=0;" vertex="1" parent="dz-a4pQGunZjvAAqzRaD-223">
          <mxGeometry x="190" y="82.5" width="35" height="20" as="geometry" />
        </mxCell>
        <mxCell id="dz-a4pQGunZjvAAqzRaD-240" value="" style="endArrow=none;html=1;rounded=0;entryX=0.5;entryY=0;entryDx=0;entryDy=0;" edge="1" parent="1" target="dz-a4pQGunZjvAAqzRaD-198">
          <mxGeometry width="50" height="50" relative="1" as="geometry">
            <mxPoint x="-440" y="410" as="sourcePoint" />
            <mxPoint x="-340" y="560" as="targetPoint" />
          </mxGeometry>
        </mxCell>
        <mxCell id="dz-a4pQGunZjvAAqzRaD-241" value="" style="group" vertex="1" connectable="0" parent="1">
          <mxGeometry x="385" y="-430" width="570" height="200" as="geometry" />
        </mxCell>
        <mxCell id="dz-a4pQGunZjvAAqzRaD-242" value="Joining_Date" style="ellipse;whiteSpace=wrap;html=1;" vertex="1" parent="dz-a4pQGunZjvAAqzRaD-241">
          <mxGeometry x="40" y="130" width="100" height="30" as="geometry" />
        </mxCell>
        <mxCell id="dz-a4pQGunZjvAAqzRaD-243" value="DOB" style="ellipse;whiteSpace=wrap;html=1;" vertex="1" parent="dz-a4pQGunZjvAAqzRaD-241">
          <mxGeometry x="385" y="70" width="100" height="30" as="geometry" />
        </mxCell>
        <mxCell id="dz-a4pQGunZjvAAqzRaD-244" value="name" style="ellipse;whiteSpace=wrap;html=1;" vertex="1" parent="dz-a4pQGunZjvAAqzRaD-241">
          <mxGeometry x="55" y="85" width="100" height="30" as="geometry" />
        </mxCell>
        <mxCell id="dz-a4pQGunZjvAAqzRaD-245" value="Address" style="ellipse;whiteSpace=wrap;html=1;" vertex="1" parent="dz-a4pQGunZjvAAqzRaD-241">
          <mxGeometry x="175" y="20" width="100" height="30" as="geometry" />
        </mxCell>
        <mxCell id="dz-a4pQGunZjvAAqzRaD-246" value="ContactInfo" style="ellipse;whiteSpace=wrap;html=1;" vertex="1" parent="dz-a4pQGunZjvAAqzRaD-241">
          <mxGeometry x="100" y="50" width="100" height="30" as="geometry" />
        </mxCell>
        <mxCell id="dz-a4pQGunZjvAAqzRaD-247" value="&lt;u&gt;Staff_ID&lt;/u&gt;" style="ellipse;whiteSpace=wrap;html=1;" vertex="1" parent="dz-a4pQGunZjvAAqzRaD-241">
          <mxGeometry x="40" y="170" width="100" height="30" as="geometry" />
        </mxCell>
        <mxCell id="dz-a4pQGunZjvAAqzRaD-248" value="Empl_Status" style="ellipse;whiteSpace=wrap;html=1;" vertex="1" parent="dz-a4pQGunZjvAAqzRaD-241">
          <mxGeometry x="395" y="110" width="100" height="30" as="geometry" />
        </mxCell>
        <mxCell id="dz-a4pQGunZjvAAqzRaD-249" value="Salary" style="ellipse;whiteSpace=wrap;html=1;" vertex="1" parent="dz-a4pQGunZjvAAqzRaD-241">
          <mxGeometry x="275" y="10" width="100" height="30" as="geometry" />
        </mxCell>
        <mxCell id="dz-a4pQGunZjvAAqzRaD-250" value="Qualification" style="ellipse;whiteSpace=wrap;html=1;" vertex="1" parent="dz-a4pQGunZjvAAqzRaD-241">
          <mxGeometry x="405" y="150" width="100" height="30" as="geometry" />
        </mxCell>
        <mxCell id="dz-a4pQGunZjvAAqzRaD-251" value="Staff" style="rounded=0;whiteSpace=wrap;html=1;fillColor=#D4E1F5;" vertex="1" parent="dz-a4pQGunZjvAAqzRaD-241">
          <mxGeometry x="215" y="170" width="120" height="30" as="geometry" />
        </mxCell>
        <mxCell id="dz-a4pQGunZjvAAqzRaD-252" value="" style="endArrow=none;html=1;rounded=0;entryX=0;entryY=0.5;entryDx=0;entryDy=0;exitX=1;exitY=0.5;exitDx=0;exitDy=0;" edge="1" parent="dz-a4pQGunZjvAAqzRaD-241" source="dz-a4pQGunZjvAAqzRaD-247" target="dz-a4pQGunZjvAAqzRaD-251">
          <mxGeometry width="50" height="50" relative="1" as="geometry">
            <mxPoint x="35" y="260" as="sourcePoint" />
            <mxPoint x="85" y="210" as="targetPoint" />
          </mxGeometry>
        </mxCell>
        <mxCell id="dz-a4pQGunZjvAAqzRaD-253" value="" style="endArrow=none;html=1;rounded=0;entryX=0;entryY=0;entryDx=0;entryDy=0;exitX=1;exitY=0.5;exitDx=0;exitDy=0;" edge="1" parent="dz-a4pQGunZjvAAqzRaD-241" source="dz-a4pQGunZjvAAqzRaD-242" target="dz-a4pQGunZjvAAqzRaD-251">
          <mxGeometry width="50" height="50" relative="1" as="geometry">
            <mxPoint x="35" y="260" as="sourcePoint" />
            <mxPoint x="85" y="210" as="targetPoint" />
          </mxGeometry>
        </mxCell>
        <mxCell id="dz-a4pQGunZjvAAqzRaD-254" value="" style="endArrow=none;html=1;rounded=0;entryX=0.25;entryY=0;entryDx=0;entryDy=0;exitX=1;exitY=1;exitDx=0;exitDy=0;" edge="1" parent="dz-a4pQGunZjvAAqzRaD-241" source="dz-a4pQGunZjvAAqzRaD-246" target="dz-a4pQGunZjvAAqzRaD-251">
          <mxGeometry width="50" height="50" relative="1" as="geometry">
            <mxPoint x="35" y="260" as="sourcePoint" />
            <mxPoint x="85" y="210" as="targetPoint" />
          </mxGeometry>
        </mxCell>
        <mxCell id="dz-a4pQGunZjvAAqzRaD-255" value="" style="endArrow=none;html=1;rounded=0;exitX=0.5;exitY=1;exitDx=0;exitDy=0;" edge="1" parent="dz-a4pQGunZjvAAqzRaD-241" source="dz-a4pQGunZjvAAqzRaD-245" target="dz-a4pQGunZjvAAqzRaD-251">
          <mxGeometry width="50" height="50" relative="1" as="geometry">
            <mxPoint x="35" y="260" as="sourcePoint" />
            <mxPoint x="85" y="210" as="targetPoint" />
          </mxGeometry>
        </mxCell>
        <mxCell id="dz-a4pQGunZjvAAqzRaD-256" value="" style="endArrow=none;html=1;rounded=0;exitX=0.5;exitY=1;exitDx=0;exitDy=0;entryX=0.5;entryY=0;entryDx=0;entryDy=0;" edge="1" parent="dz-a4pQGunZjvAAqzRaD-241" source="dz-a4pQGunZjvAAqzRaD-249" target="dz-a4pQGunZjvAAqzRaD-251">
          <mxGeometry width="50" height="50" relative="1" as="geometry">
            <mxPoint x="35" y="260" as="sourcePoint" />
            <mxPoint x="85" y="210" as="targetPoint" />
          </mxGeometry>
        </mxCell>
        <mxCell id="dz-a4pQGunZjvAAqzRaD-257" value="" style="endArrow=none;html=1;rounded=0;exitX=0.272;exitY=1.022;exitDx=0;exitDy=0;exitPerimeter=0;entryX=0.68;entryY=0.048;entryDx=0;entryDy=0;entryPerimeter=0;" edge="1" parent="dz-a4pQGunZjvAAqzRaD-241" source="dz-a4pQGunZjvAAqzRaD-243" target="dz-a4pQGunZjvAAqzRaD-251">
          <mxGeometry width="50" height="50" relative="1" as="geometry">
            <mxPoint x="35" y="260" as="sourcePoint" />
            <mxPoint x="85" y="210" as="targetPoint" />
          </mxGeometry>
        </mxCell>
        <mxCell id="dz-a4pQGunZjvAAqzRaD-258" value="" style="endArrow=none;html=1;rounded=0;exitX=0;exitY=1;exitDx=0;exitDy=0;" edge="1" parent="dz-a4pQGunZjvAAqzRaD-241" source="dz-a4pQGunZjvAAqzRaD-248" target="dz-a4pQGunZjvAAqzRaD-251">
          <mxGeometry width="50" height="50" relative="1" as="geometry">
            <mxPoint x="35" y="260" as="sourcePoint" />
            <mxPoint x="85" y="210" as="targetPoint" />
          </mxGeometry>
        </mxCell>
        <mxCell id="dz-a4pQGunZjvAAqzRaD-259" value="Age" style="ellipse;whiteSpace=wrap;html=1;dashed=1;dashPattern=8 8;" vertex="1" parent="dz-a4pQGunZjvAAqzRaD-241">
          <mxGeometry x="390" y="20" width="75" height="30" as="geometry" />
        </mxCell>
        <mxCell id="dz-a4pQGunZjvAAqzRaD-260" value="Unit" style="ellipse;whiteSpace=wrap;html=1;" vertex="1" parent="dz-a4pQGunZjvAAqzRaD-241">
          <mxGeometry x="122.5" y="-20" width="55" height="40" as="geometry" />
        </mxCell>
        <mxCell id="dz-a4pQGunZjvAAqzRaD-261" value="" style="endArrow=none;html=1;rounded=0;exitX=0;exitY=0;exitDx=0;exitDy=0;entryX=1;entryY=1;entryDx=0;entryDy=0;" edge="1" parent="dz-a4pQGunZjvAAqzRaD-241" source="dz-a4pQGunZjvAAqzRaD-245" target="dz-a4pQGunZjvAAqzRaD-260">
          <mxGeometry width="50" height="50" relative="1" as="geometry">
            <mxPoint x="55" y="190" as="sourcePoint" />
            <mxPoint x="105" y="140" as="targetPoint" />
          </mxGeometry>
        </mxCell>
        <mxCell id="dz-a4pQGunZjvAAqzRaD-262" value="" style="endArrow=none;html=1;rounded=0;entryX=0.5;entryY=0;entryDx=0;entryDy=0;" edge="1" parent="1" target="dz-a4pQGunZjvAAqzRaD-95">
          <mxGeometry width="50" height="50" relative="1" as="geometry">
            <mxPoint x="660" y="-230" as="sourcePoint" />
            <mxPoint x="700" y="-190" as="targetPoint" />
          </mxGeometry>
        </mxCell>
        <mxCell id="dz-a4pQGunZjvAAqzRaD-263" value="" style="endArrow=none;html=1;rounded=0;exitX=0.5;exitY=1;exitDx=0;exitDy=0;" edge="1" parent="1" source="dz-a4pQGunZjvAAqzRaD-95">
          <mxGeometry width="50" height="50" relative="1" as="geometry">
            <mxPoint x="650" y="-140" as="sourcePoint" />
            <mxPoint x="660" y="-10" as="targetPoint" />
          </mxGeometry>
        </mxCell>
        <mxCell id="dz-a4pQGunZjvAAqzRaD-264" value="" style="endArrow=none;html=1;rounded=0;exitX=0.5;exitY=0;exitDx=0;exitDy=0;" edge="1" parent="1" source="dz-a4pQGunZjvAAqzRaD-76">
          <mxGeometry width="50" height="50" relative="1" as="geometry">
            <mxPoint x="630" y="80" as="sourcePoint" />
            <mxPoint x="660" y="20" as="targetPoint" />
          </mxGeometry>
        </mxCell>
        <mxCell id="dz-a4pQGunZjvAAqzRaD-265" value="Teaches" style="rhombus;whiteSpace=wrap;html=1;fillColor=#FFB366;" vertex="1" parent="1">
          <mxGeometry x="1080" y="-185" width="80" height="50" as="geometry" />
        </mxCell>
        <mxCell id="dz-a4pQGunZjvAAqzRaD-266" value="" style="endArrow=none;html=1;rounded=0;entryX=0.5;entryY=1;entryDx=0;entryDy=0;exitX=1;exitY=0;exitDx=0;exitDy=0;" edge="1" parent="1" source="dz-a4pQGunZjvAAqzRaD-448" target="dz-a4pQGunZjvAAqzRaD-265">
          <mxGeometry width="50" height="50" relative="1" as="geometry">
            <mxPoint x="680" y="-160" as="sourcePoint" />
            <mxPoint x="990" y="-180" as="targetPoint" />
            <Array as="points">
              <mxPoint x="710" y="-180" />
              <mxPoint x="710" y="-140" />
            </Array>
          </mxGeometry>
        </mxCell>
        <mxCell id="dz-a4pQGunZjvAAqzRaD-267" value="" style="endArrow=none;html=1;rounded=0;exitX=0.5;exitY=0;exitDx=0;exitDy=0;" edge="1" parent="1" source="dz-a4pQGunZjvAAqzRaD-265">
          <mxGeometry width="50" height="50" relative="1" as="geometry">
            <mxPoint x="940" y="-130" as="sourcePoint" />
            <mxPoint x="1120" y="-210" as="targetPoint" />
          </mxGeometry>
        </mxCell>
        <mxCell id="dz-a4pQGunZjvAAqzRaD-268" value="" style="group" vertex="1" connectable="0" parent="1">
          <mxGeometry x="1340" y="-330" width="490" height="220" as="geometry" />
        </mxCell>
        <mxCell id="dz-a4pQGunZjvAAqzRaD-269" value="News and events" style="rounded=0;whiteSpace=wrap;html=1;fillColor=#D4E1F5;" vertex="1" parent="dz-a4pQGunZjvAAqzRaD-268">
          <mxGeometry x="190" y="160" width="120" height="30" as="geometry" />
        </mxCell>
        <mxCell id="dz-a4pQGunZjvAAqzRaD-270" value="ContactInfo" style="ellipse;whiteSpace=wrap;html=1;" vertex="1" parent="dz-a4pQGunZjvAAqzRaD-268">
          <mxGeometry x="120" width="80" height="30" as="geometry" />
        </mxCell>
        <mxCell id="dz-a4pQGunZjvAAqzRaD-271" value="Schedule" style="ellipse;whiteSpace=wrap;html=1;" vertex="1" parent="dz-a4pQGunZjvAAqzRaD-268">
          <mxGeometry x="60" y="40" width="80" height="30" as="geometry" />
        </mxCell>
        <mxCell id="dz-a4pQGunZjvAAqzRaD-272" value="Description" style="ellipse;whiteSpace=wrap;html=1;" vertex="1" parent="dz-a4pQGunZjvAAqzRaD-268">
          <mxGeometry x="20" y="80" width="80" height="30" as="geometry" />
        </mxCell>
        <mxCell id="dz-a4pQGunZjvAAqzRaD-273" value="Title" style="ellipse;whiteSpace=wrap;html=1;" vertex="1" parent="dz-a4pQGunZjvAAqzRaD-268">
          <mxGeometry x="10" y="120" width="80" height="30" as="geometry" />
        </mxCell>
        <mxCell id="dz-a4pQGunZjvAAqzRaD-274" value="&lt;u&gt;News_ID&lt;/u&gt;" style="ellipse;whiteSpace=wrap;html=1;" vertex="1" parent="dz-a4pQGunZjvAAqzRaD-268">
          <mxGeometry y="160" width="80" height="30" as="geometry" />
        </mxCell>
        <mxCell id="dz-a4pQGunZjvAAqzRaD-275" value="Category" style="ellipse;whiteSpace=wrap;html=1;" vertex="1" parent="dz-a4pQGunZjvAAqzRaD-268">
          <mxGeometry x="370" y="40" width="80" height="30" as="geometry" />
        </mxCell>
        <mxCell id="dz-a4pQGunZjvAAqzRaD-276" value="Organizer" style="ellipse;whiteSpace=wrap;html=1;" vertex="1" parent="dz-a4pQGunZjvAAqzRaD-268">
          <mxGeometry x="300" y="10" width="80" height="30" as="geometry" />
        </mxCell>
        <mxCell id="dz-a4pQGunZjvAAqzRaD-277" value="Address" style="ellipse;whiteSpace=wrap;html=1;" vertex="1" parent="dz-a4pQGunZjvAAqzRaD-268">
          <mxGeometry x="210" width="80" height="30" as="geometry" />
        </mxCell>
        <mxCell id="dz-a4pQGunZjvAAqzRaD-278" value="Images" style="ellipse;whiteSpace=wrap;html=1;" vertex="1" parent="dz-a4pQGunZjvAAqzRaD-268">
          <mxGeometry x="400" y="80" width="80" height="30" as="geometry" />
        </mxCell>
        <mxCell id="dz-a4pQGunZjvAAqzRaD-279" value="Status" style="ellipse;whiteSpace=wrap;html=1;" vertex="1" parent="dz-a4pQGunZjvAAqzRaD-268">
          <mxGeometry x="410" y="130" width="80" height="30" as="geometry" />
        </mxCell>
        <mxCell id="dz-a4pQGunZjvAAqzRaD-280" value="Link" style="ellipse;whiteSpace=wrap;html=1;" vertex="1" parent="dz-a4pQGunZjvAAqzRaD-268">
          <mxGeometry x="410" y="170" width="80" height="30" as="geometry" />
        </mxCell>
        <mxCell id="dz-a4pQGunZjvAAqzRaD-281" value="" style="endArrow=none;html=1;rounded=0;entryX=0;entryY=0.5;entryDx=0;entryDy=0;exitX=1;exitY=0.5;exitDx=0;exitDy=0;" edge="1" parent="dz-a4pQGunZjvAAqzRaD-268" source="dz-a4pQGunZjvAAqzRaD-274" target="dz-a4pQGunZjvAAqzRaD-269">
          <mxGeometry width="50" height="50" relative="1" as="geometry">
            <mxPoint x="-10" y="280" as="sourcePoint" />
            <mxPoint x="40" y="230" as="targetPoint" />
          </mxGeometry>
        </mxCell>
        <mxCell id="dz-a4pQGunZjvAAqzRaD-282" value="" style="endArrow=none;html=1;rounded=0;exitX=0;exitY=0.25;exitDx=0;exitDy=0;entryX=0.951;entryY=0.671;entryDx=0;entryDy=0;entryPerimeter=0;" edge="1" parent="dz-a4pQGunZjvAAqzRaD-268" source="dz-a4pQGunZjvAAqzRaD-269" target="dz-a4pQGunZjvAAqzRaD-273">
          <mxGeometry width="50" height="50" relative="1" as="geometry">
            <mxPoint x="180" y="160" as="sourcePoint" />
            <mxPoint x="100" y="110" as="targetPoint" />
          </mxGeometry>
        </mxCell>
        <mxCell id="dz-a4pQGunZjvAAqzRaD-283" value="" style="endArrow=none;html=1;rounded=0;exitX=0.873;exitY=0.006;exitDx=0;exitDy=0;exitPerimeter=0;entryX=0;entryY=1;entryDx=0;entryDy=0;" edge="1" parent="dz-a4pQGunZjvAAqzRaD-268" source="dz-a4pQGunZjvAAqzRaD-269" target="dz-a4pQGunZjvAAqzRaD-278">
          <mxGeometry width="50" height="50" relative="1" as="geometry">
            <mxPoint x="170" y="120" as="sourcePoint" />
            <mxPoint x="220" y="70" as="targetPoint" />
          </mxGeometry>
        </mxCell>
        <mxCell id="dz-a4pQGunZjvAAqzRaD-284" value="" style="endArrow=none;html=1;rounded=0;exitX=1;exitY=0;exitDx=0;exitDy=0;" edge="1" parent="dz-a4pQGunZjvAAqzRaD-268" source="dz-a4pQGunZjvAAqzRaD-269" target="dz-a4pQGunZjvAAqzRaD-279">
          <mxGeometry width="50" height="50" relative="1" as="geometry">
            <mxPoint x="350" y="160" as="sourcePoint" />
            <mxPoint x="400" y="110" as="targetPoint" />
          </mxGeometry>
        </mxCell>
        <mxCell id="dz-a4pQGunZjvAAqzRaD-285" value="" style="endArrow=none;html=1;rounded=0;exitX=1;exitY=0.5;exitDx=0;exitDy=0;entryX=0;entryY=0.5;entryDx=0;entryDy=0;" edge="1" parent="dz-a4pQGunZjvAAqzRaD-268" source="dz-a4pQGunZjvAAqzRaD-269" target="dz-a4pQGunZjvAAqzRaD-280">
          <mxGeometry width="50" height="50" relative="1" as="geometry">
            <mxPoint x="350" y="160" as="sourcePoint" />
            <mxPoint x="400" y="110" as="targetPoint" />
          </mxGeometry>
        </mxCell>
        <mxCell id="dz-a4pQGunZjvAAqzRaD-286" value="&lt;b&gt;N&lt;/b&gt;" style="text;html=1;strokeColor=none;fillColor=none;align=center;verticalAlign=middle;whiteSpace=wrap;rounded=0;" vertex="1" parent="dz-a4pQGunZjvAAqzRaD-268">
          <mxGeometry x="200" y="190" width="60" height="30" as="geometry" />
        </mxCell>
        <mxCell id="dz-a4pQGunZjvAAqzRaD-287" value="Announces" style="rhombus;whiteSpace=wrap;html=1;fillColor=#FFB366;" vertex="1" parent="1">
          <mxGeometry x="1275" y="-130" width="105" height="60" as="geometry" />
        </mxCell>
        <mxCell id="dz-a4pQGunZjvAAqzRaD-288" value="" style="endArrow=none;html=1;rounded=0;exitX=1;exitY=0;exitDx=0;exitDy=0;" edge="1" parent="1" source="dz-a4pQGunZjvAAqzRaD-87">
          <mxGeometry width="50" height="50" relative="1" as="geometry">
            <mxPoint x="1100" y="-130" as="sourcePoint" />
            <mxPoint x="1280" y="-100" as="targetPoint" />
          </mxGeometry>
        </mxCell>
        <mxCell id="dz-a4pQGunZjvAAqzRaD-289" value="" style="endArrow=none;html=1;rounded=0;exitX=1;exitY=0.5;exitDx=0;exitDy=0;entryX=0.5;entryY=1;entryDx=0;entryDy=0;" edge="1" parent="1" source="dz-a4pQGunZjvAAqzRaD-287" target="dz-a4pQGunZjvAAqzRaD-269">
          <mxGeometry width="50" height="50" relative="1" as="geometry">
            <mxPoint x="1390" y="-160" as="sourcePoint" />
            <mxPoint x="1440" y="-210" as="targetPoint" />
            <Array as="points">
              <mxPoint x="1590" y="-100" />
            </Array>
          </mxGeometry>
        </mxCell>
        <mxCell id="dz-a4pQGunZjvAAqzRaD-290" value="" style="group" vertex="1" connectable="0" parent="1">
          <mxGeometry y="-350" width="390" height="130" as="geometry" />
        </mxCell>
        <mxCell id="dz-a4pQGunZjvAAqzRaD-291" value="Scholarships" style="rounded=0;whiteSpace=wrap;html=1;fillColor=#D4E1F5;" vertex="1" parent="dz-a4pQGunZjvAAqzRaD-290">
          <mxGeometry x="140" y="100" width="120" height="30" as="geometry" />
        </mxCell>
        <mxCell id="dz-a4pQGunZjvAAqzRaD-292" value="Name" style="ellipse;whiteSpace=wrap;html=1;" vertex="1" parent="dz-a4pQGunZjvAAqzRaD-290">
          <mxGeometry x="30" y="50" width="80" height="30" as="geometry" />
        </mxCell>
        <mxCell id="dz-a4pQGunZjvAAqzRaD-293" value="&lt;u&gt;Scholarship_ID&lt;/u&gt;" style="ellipse;whiteSpace=wrap;html=1;" vertex="1" parent="dz-a4pQGunZjvAAqzRaD-290">
          <mxGeometry x="-10" y="110" width="110" height="40" as="geometry" />
        </mxCell>
        <mxCell id="dz-a4pQGunZjvAAqzRaD-294" value="Description" style="ellipse;whiteSpace=wrap;html=1;" vertex="1" parent="dz-a4pQGunZjvAAqzRaD-290">
          <mxGeometry x="60" y="10" width="80" height="30" as="geometry" />
        </mxCell>
        <mxCell id="dz-a4pQGunZjvAAqzRaD-295" value="Provider" style="ellipse;whiteSpace=wrap;html=1;" vertex="1" parent="dz-a4pQGunZjvAAqzRaD-290">
          <mxGeometry x="310" y="100" width="80" height="30" as="geometry" />
        </mxCell>
        <mxCell id="dz-a4pQGunZjvAAqzRaD-296" value="Amount" style="ellipse;whiteSpace=wrap;html=1;" vertex="1" parent="dz-a4pQGunZjvAAqzRaD-290">
          <mxGeometry x="130" y="-10" width="80" height="30" as="geometry" />
        </mxCell>
        <mxCell id="dz-a4pQGunZjvAAqzRaD-297" value="Deadline" style="ellipse;whiteSpace=wrap;html=1;" vertex="1" parent="dz-a4pQGunZjvAAqzRaD-290">
          <mxGeometry x="210" width="80" height="30" as="geometry" />
        </mxCell>
        <mxCell id="dz-a4pQGunZjvAAqzRaD-298" value="Duration" style="ellipse;whiteSpace=wrap;html=1;" vertex="1" parent="dz-a4pQGunZjvAAqzRaD-290">
          <mxGeometry x="270" y="30" width="80" height="30" as="geometry" />
        </mxCell>
        <mxCell id="dz-a4pQGunZjvAAqzRaD-299" value="URL" style="ellipse;whiteSpace=wrap;html=1;" vertex="1" parent="dz-a4pQGunZjvAAqzRaD-290">
          <mxGeometry x="310" y="60" width="80" height="30" as="geometry" />
        </mxCell>
        <mxCell id="dz-a4pQGunZjvAAqzRaD-300" value="" style="endArrow=none;html=1;rounded=0;exitX=1;exitY=0.5;exitDx=0;exitDy=0;entryX=0;entryY=0.5;entryDx=0;entryDy=0;" edge="1" parent="dz-a4pQGunZjvAAqzRaD-290" source="dz-a4pQGunZjvAAqzRaD-293" target="dz-a4pQGunZjvAAqzRaD-291">
          <mxGeometry width="50" height="50" relative="1" as="geometry">
            <mxPoint x="170" y="140" as="sourcePoint" />
            <mxPoint x="220" y="90" as="targetPoint" />
          </mxGeometry>
        </mxCell>
        <mxCell id="dz-a4pQGunZjvAAqzRaD-301" value="" style="endArrow=none;html=1;rounded=0;exitX=1;exitY=1;exitDx=0;exitDy=0;entryX=0;entryY=0;entryDx=0;entryDy=0;" edge="1" parent="dz-a4pQGunZjvAAqzRaD-290" source="dz-a4pQGunZjvAAqzRaD-292" target="dz-a4pQGunZjvAAqzRaD-291">
          <mxGeometry width="50" height="50" relative="1" as="geometry">
            <mxPoint x="170" y="140" as="sourcePoint" />
            <mxPoint x="220" y="90" as="targetPoint" />
          </mxGeometry>
        </mxCell>
        <mxCell id="dz-a4pQGunZjvAAqzRaD-302" value="" style="endArrow=none;html=1;rounded=0;exitX=1;exitY=1;exitDx=0;exitDy=0;entryX=0.117;entryY=0.03;entryDx=0;entryDy=0;entryPerimeter=0;" edge="1" parent="dz-a4pQGunZjvAAqzRaD-290" source="dz-a4pQGunZjvAAqzRaD-294" target="dz-a4pQGunZjvAAqzRaD-291">
          <mxGeometry width="50" height="50" relative="1" as="geometry">
            <mxPoint x="170" y="140" as="sourcePoint" />
            <mxPoint x="220" y="90" as="targetPoint" />
          </mxGeometry>
        </mxCell>
        <mxCell id="dz-a4pQGunZjvAAqzRaD-303" value="" style="endArrow=none;html=1;rounded=0;exitX=0.055;exitY=0.832;exitDx=0;exitDy=0;exitPerimeter=0;entryX=0.5;entryY=0;entryDx=0;entryDy=0;" edge="1" parent="dz-a4pQGunZjvAAqzRaD-290" source="dz-a4pQGunZjvAAqzRaD-298" target="dz-a4pQGunZjvAAqzRaD-291">
          <mxGeometry width="50" height="50" relative="1" as="geometry">
            <mxPoint x="170" y="140" as="sourcePoint" />
            <mxPoint x="220" y="90" as="targetPoint" />
          </mxGeometry>
        </mxCell>
        <mxCell id="dz-a4pQGunZjvAAqzRaD-304" value="" style="endArrow=none;html=1;rounded=0;exitX=0;exitY=0.5;exitDx=0;exitDy=0;entryX=0.626;entryY=-0.028;entryDx=0;entryDy=0;entryPerimeter=0;" edge="1" parent="dz-a4pQGunZjvAAqzRaD-290" source="dz-a4pQGunZjvAAqzRaD-299" target="dz-a4pQGunZjvAAqzRaD-291">
          <mxGeometry width="50" height="50" relative="1" as="geometry">
            <mxPoint x="170" y="140" as="sourcePoint" />
            <mxPoint x="220" y="90" as="targetPoint" />
          </mxGeometry>
        </mxCell>
        <mxCell id="dz-a4pQGunZjvAAqzRaD-305" value="Provides&amp;nbsp;" style="rhombus;whiteSpace=wrap;html=1;fillColor=#FFB366;" vertex="1" parent="1">
          <mxGeometry x="160" y="-180" width="100" height="80" as="geometry" />
        </mxCell>
        <mxCell id="dz-a4pQGunZjvAAqzRaD-306" value="" style="endArrow=none;html=1;rounded=0;exitX=1;exitY=0.5;exitDx=0;exitDy=0;" edge="1" parent="1" source="dz-a4pQGunZjvAAqzRaD-305">
          <mxGeometry width="50" height="50" relative="1" as="geometry">
            <mxPoint x="330" y="-90" as="sourcePoint" />
            <mxPoint x="600" y="-230" as="targetPoint" />
          </mxGeometry>
        </mxCell>
        <mxCell id="dz-a4pQGunZjvAAqzRaD-307" value="" style="endArrow=none;html=1;rounded=0;entryX=0.5;entryY=0;entryDx=0;entryDy=0;" edge="1" parent="1" target="dz-a4pQGunZjvAAqzRaD-305">
          <mxGeometry width="50" height="50" relative="1" as="geometry">
            <mxPoint x="210" y="-220" as="sourcePoint" />
            <mxPoint x="380" y="-140" as="targetPoint" />
          </mxGeometry>
        </mxCell>
        <mxCell id="dz-a4pQGunZjvAAqzRaD-308" value="" style="group" vertex="1" connectable="0" parent="1">
          <mxGeometry x="-400" y="-490" width="470" height="160" as="geometry" />
        </mxCell>
        <mxCell id="dz-a4pQGunZjvAAqzRaD-309" value="Admissions" style="rounded=0;whiteSpace=wrap;html=1;fillColor=#D4E1F5;" vertex="1" parent="dz-a4pQGunZjvAAqzRaD-308">
          <mxGeometry x="180" y="120" width="120" height="30" as="geometry" />
        </mxCell>
        <mxCell id="dz-a4pQGunZjvAAqzRaD-310" value="&lt;u&gt;Admission_ID&lt;/u&gt;" style="ellipse;whiteSpace=wrap;html=1;" vertex="1" parent="dz-a4pQGunZjvAAqzRaD-308">
          <mxGeometry x="10" y="120" width="90" height="40" as="geometry" />
        </mxCell>
        <mxCell id="dz-a4pQGunZjvAAqzRaD-311" value="LOR" style="ellipse;whiteSpace=wrap;html=1;" vertex="1" parent="dz-a4pQGunZjvAAqzRaD-308">
          <mxGeometry x="320" y="5" width="80" height="30" as="geometry" />
        </mxCell>
        <mxCell id="dz-a4pQGunZjvAAqzRaD-312" value="Application_fees" style="ellipse;whiteSpace=wrap;html=1;" vertex="1" parent="dz-a4pQGunZjvAAqzRaD-308">
          <mxGeometry x="370" y="125" width="100" height="30" as="geometry" />
        </mxCell>
        <mxCell id="dz-a4pQGunZjvAAqzRaD-313" value="Portfolio" style="ellipse;whiteSpace=wrap;html=1;" vertex="1" parent="dz-a4pQGunZjvAAqzRaD-308">
          <mxGeometry x="380" y="85" width="80" height="30" as="geometry" />
        </mxCell>
        <mxCell id="dz-a4pQGunZjvAAqzRaD-314" value="Resume" style="ellipse;whiteSpace=wrap;html=1;" vertex="1" parent="dz-a4pQGunZjvAAqzRaD-308">
          <mxGeometry x="355" y="45" width="80" height="30" as="geometry" />
        </mxCell>
        <mxCell id="dz-a4pQGunZjvAAqzRaD-315" value="Application_type" style="ellipse;whiteSpace=wrap;html=1;" vertex="1" parent="dz-a4pQGunZjvAAqzRaD-308">
          <mxGeometry x="200" width="110" height="40" as="geometry" />
        </mxCell>
        <mxCell id="dz-a4pQGunZjvAAqzRaD-316" value="Status" style="ellipse;whiteSpace=wrap;html=1;" vertex="1" parent="dz-a4pQGunZjvAAqzRaD-308">
          <mxGeometry x="110" y="5" width="80" height="30" as="geometry" />
        </mxCell>
        <mxCell id="dz-a4pQGunZjvAAqzRaD-317" value="Date" style="ellipse;whiteSpace=wrap;html=1;" vertex="1" parent="dz-a4pQGunZjvAAqzRaD-308">
          <mxGeometry x="50" y="35" width="80" height="30" as="geometry" />
        </mxCell>
        <mxCell id="dz-a4pQGunZjvAAqzRaD-318" value="Name_of_applicant" style="ellipse;whiteSpace=wrap;html=1;" vertex="1" parent="dz-a4pQGunZjvAAqzRaD-308">
          <mxGeometry y="75" width="130" height="30" as="geometry" />
        </mxCell>
        <mxCell id="dz-a4pQGunZjvAAqzRaD-319" value="" style="endArrow=none;html=1;rounded=0;exitX=1;exitY=0.5;exitDx=0;exitDy=0;entryX=0;entryY=0.25;entryDx=0;entryDy=0;" edge="1" parent="dz-a4pQGunZjvAAqzRaD-308" source="dz-a4pQGunZjvAAqzRaD-318" target="dz-a4pQGunZjvAAqzRaD-309">
          <mxGeometry width="50" height="50" relative="1" as="geometry">
            <mxPoint x="410" y="310" as="sourcePoint" />
            <mxPoint x="460" y="260" as="targetPoint" />
          </mxGeometry>
        </mxCell>
        <mxCell id="dz-a4pQGunZjvAAqzRaD-320" value="" style="endArrow=none;html=1;rounded=0;exitX=1;exitY=1;exitDx=0;exitDy=0;entryX=0;entryY=0;entryDx=0;entryDy=0;" edge="1" parent="dz-a4pQGunZjvAAqzRaD-308" source="dz-a4pQGunZjvAAqzRaD-317" target="dz-a4pQGunZjvAAqzRaD-309">
          <mxGeometry width="50" height="50" relative="1" as="geometry">
            <mxPoint x="410" y="310" as="sourcePoint" />
            <mxPoint x="460" y="260" as="targetPoint" />
          </mxGeometry>
        </mxCell>
        <mxCell id="dz-a4pQGunZjvAAqzRaD-321" value="" style="endArrow=none;html=1;rounded=0;exitX=0.695;exitY=0.98;exitDx=0;exitDy=0;exitPerimeter=0;entryX=0.25;entryY=0;entryDx=0;entryDy=0;" edge="1" parent="dz-a4pQGunZjvAAqzRaD-308" source="dz-a4pQGunZjvAAqzRaD-316" target="dz-a4pQGunZjvAAqzRaD-309">
          <mxGeometry width="50" height="50" relative="1" as="geometry">
            <mxPoint x="410" y="310" as="sourcePoint" />
            <mxPoint x="460" y="260" as="targetPoint" />
          </mxGeometry>
        </mxCell>
        <mxCell id="dz-a4pQGunZjvAAqzRaD-322" value="" style="endArrow=none;html=1;rounded=0;exitX=0.356;exitY=0.94;exitDx=0;exitDy=0;exitPerimeter=0;entryX=0.5;entryY=0;entryDx=0;entryDy=0;" edge="1" parent="dz-a4pQGunZjvAAqzRaD-308" source="dz-a4pQGunZjvAAqzRaD-315" target="dz-a4pQGunZjvAAqzRaD-309">
          <mxGeometry width="50" height="50" relative="1" as="geometry">
            <mxPoint x="410" y="310" as="sourcePoint" />
            <mxPoint x="460" y="260" as="targetPoint" />
          </mxGeometry>
        </mxCell>
        <mxCell id="dz-a4pQGunZjvAAqzRaD-323" value="" style="endArrow=none;html=1;rounded=0;exitX=0;exitY=1;exitDx=0;exitDy=0;entryX=0.75;entryY=0;entryDx=0;entryDy=0;" edge="1" parent="dz-a4pQGunZjvAAqzRaD-308" source="dz-a4pQGunZjvAAqzRaD-311" target="dz-a4pQGunZjvAAqzRaD-309">
          <mxGeometry width="50" height="50" relative="1" as="geometry">
            <mxPoint x="410" y="310" as="sourcePoint" />
            <mxPoint x="460" y="260" as="targetPoint" />
          </mxGeometry>
        </mxCell>
        <mxCell id="dz-a4pQGunZjvAAqzRaD-324" value="" style="endArrow=none;html=1;rounded=0;exitX=0;exitY=1;exitDx=0;exitDy=0;entryX=0.893;entryY=0.027;entryDx=0;entryDy=0;entryPerimeter=0;" edge="1" parent="dz-a4pQGunZjvAAqzRaD-308" source="dz-a4pQGunZjvAAqzRaD-314" target="dz-a4pQGunZjvAAqzRaD-309">
          <mxGeometry width="50" height="50" relative="1" as="geometry">
            <mxPoint x="410" y="310" as="sourcePoint" />
            <mxPoint x="460" y="260" as="targetPoint" />
          </mxGeometry>
        </mxCell>
        <mxCell id="dz-a4pQGunZjvAAqzRaD-325" value="" style="endArrow=none;html=1;rounded=0;exitX=0;exitY=1;exitDx=0;exitDy=0;entryX=1;entryY=0.25;entryDx=0;entryDy=0;" edge="1" parent="dz-a4pQGunZjvAAqzRaD-308" source="dz-a4pQGunZjvAAqzRaD-313" target="dz-a4pQGunZjvAAqzRaD-309">
          <mxGeometry width="50" height="50" relative="1" as="geometry">
            <mxPoint x="410" y="310" as="sourcePoint" />
            <mxPoint x="460" y="260" as="targetPoint" />
          </mxGeometry>
        </mxCell>
        <mxCell id="dz-a4pQGunZjvAAqzRaD-326" value="" style="endArrow=none;html=1;rounded=0;exitX=1;exitY=0.5;exitDx=0;exitDy=0;entryX=0;entryY=0.5;entryDx=0;entryDy=0;" edge="1" parent="dz-a4pQGunZjvAAqzRaD-308" source="dz-a4pQGunZjvAAqzRaD-309" target="dz-a4pQGunZjvAAqzRaD-312">
          <mxGeometry width="50" height="50" relative="1" as="geometry">
            <mxPoint x="410" y="310" as="sourcePoint" />
            <mxPoint x="460" y="260" as="targetPoint" />
          </mxGeometry>
        </mxCell>
        <mxCell id="dz-a4pQGunZjvAAqzRaD-327" value="" style="endArrow=none;html=1;rounded=0;entryX=0;entryY=0.5;entryDx=0;entryDy=0;exitX=1;exitY=0.5;exitDx=0;exitDy=0;" edge="1" parent="1" source="dz-a4pQGunZjvAAqzRaD-328" target="dz-a4pQGunZjvAAqzRaD-87">
          <mxGeometry width="50" height="50" relative="1" as="geometry">
            <mxPoint x="-100" y="5" as="sourcePoint" />
            <mxPoint x="420" y="40" as="targetPoint" />
          </mxGeometry>
        </mxCell>
        <mxCell id="dz-a4pQGunZjvAAqzRaD-328" value="Belongs to" style="rhombus;whiteSpace=wrap;html=1;fillColor=#FFB366;" vertex="1" parent="1">
          <mxGeometry x="-200" y="-35" width="80" height="80" as="geometry" />
        </mxCell>
        <mxCell id="dz-a4pQGunZjvAAqzRaD-329" value="" style="endArrow=none;html=1;rounded=0;entryX=0.5;entryY=0;entryDx=0;entryDy=0;" edge="1" parent="1" target="dz-a4pQGunZjvAAqzRaD-328">
          <mxGeometry width="50" height="50" relative="1" as="geometry">
            <mxPoint x="-160" y="-100" as="sourcePoint" />
            <mxPoint x="90" y="40" as="targetPoint" />
          </mxGeometry>
        </mxCell>
        <mxCell id="dz-a4pQGunZjvAAqzRaD-330" value="" style="endArrow=none;html=1;rounded=0;exitX=0.75;exitY=1;exitDx=0;exitDy=0;" edge="1" parent="1" source="dz-a4pQGunZjvAAqzRaD-2">
          <mxGeometry width="50" height="50" relative="1" as="geometry">
            <mxPoint x="850" y="770" as="sourcePoint" />
            <mxPoint x="904.8148148148148" y="665.1851851851852" as="targetPoint" />
          </mxGeometry>
        </mxCell>
        <mxCell id="dz-a4pQGunZjvAAqzRaD-331" value="" style="endArrow=none;html=1;rounded=0;entryX=0.5;entryY=0;entryDx=0;entryDy=0;exitX=0.5;exitY=1;exitDx=0;exitDy=0;" edge="1" parent="1" source="dz-a4pQGunZjvAAqzRaD-336" target="dz-a4pQGunZjvAAqzRaD-224">
          <mxGeometry width="50" height="50" relative="1" as="geometry">
            <mxPoint x="1200" y="-410" as="sourcePoint" />
            <mxPoint x="930" y="-80" as="targetPoint" />
          </mxGeometry>
        </mxCell>
        <mxCell id="dz-a4pQGunZjvAAqzRaD-332" value="has" style="rhombus;whiteSpace=wrap;html=1;fillColor=#FFB366;" vertex="1" parent="1">
          <mxGeometry x="350" y="770" width="80" height="80" as="geometry" />
        </mxCell>
        <mxCell id="dz-a4pQGunZjvAAqzRaD-333" value="" style="endArrow=none;html=1;rounded=0;exitX=0.5;exitY=0;exitDx=0;exitDy=0;entryX=0.5;entryY=1;entryDx=0;entryDy=0;" edge="1" parent="1" source="dz-a4pQGunZjvAAqzRaD-332" target="dz-a4pQGunZjvAAqzRaD-1">
          <mxGeometry width="50" height="50" relative="1" as="geometry">
            <mxPoint x="360" y="720" as="sourcePoint" />
            <mxPoint x="410" y="670" as="targetPoint" />
          </mxGeometry>
        </mxCell>
        <mxCell id="dz-a4pQGunZjvAAqzRaD-334" value="" style="endArrow=none;html=1;rounded=0;exitX=0;exitY=0.75;exitDx=0;exitDy=0;" edge="1" parent="1" source="dz-a4pQGunZjvAAqzRaD-111">
          <mxGeometry width="50" height="50" relative="1" as="geometry">
            <mxPoint x="360" y="720" as="sourcePoint" />
            <mxPoint x="430" y="810" as="targetPoint" />
          </mxGeometry>
        </mxCell>
        <mxCell id="dz-a4pQGunZjvAAqzRaD-335" value="" style="group" vertex="1" connectable="0" parent="1">
          <mxGeometry x="915" y="-620" width="405" height="220" as="geometry" />
        </mxCell>
        <mxCell id="dz-a4pQGunZjvAAqzRaD-336" value="has" style="rhombus;whiteSpace=wrap;html=1;fillColor=#FFB366;strokeColor=#d79b00;" vertex="1" parent="dz-a4pQGunZjvAAqzRaD-335">
          <mxGeometry x="162.5" y="160" width="80" height="60" as="geometry" />
        </mxCell>
        <mxCell id="dz-a4pQGunZjvAAqzRaD-337" value="" style="group" vertex="1" connectable="0" parent="dz-a4pQGunZjvAAqzRaD-335">
          <mxGeometry width="405" height="130" as="geometry" />
        </mxCell>
        <mxCell id="dz-a4pQGunZjvAAqzRaD-338" value="Fees" style="rounded=0;whiteSpace=wrap;html=1;fillColor=#D4E1F5;" vertex="1" parent="dz-a4pQGunZjvAAqzRaD-337">
          <mxGeometry x="145" y="100" width="120" height="30" as="geometry" />
        </mxCell>
        <mxCell id="dz-a4pQGunZjvAAqzRaD-339" value="Late_fee_penalty" style="ellipse;whiteSpace=wrap;html=1;" vertex="1" parent="dz-a4pQGunZjvAAqzRaD-337">
          <mxGeometry x="265" y="20" width="120" height="30" as="geometry" />
        </mxCell>
        <mxCell id="dz-a4pQGunZjvAAqzRaD-340" value="Currency" style="ellipse;whiteSpace=wrap;html=1;" vertex="1" parent="dz-a4pQGunZjvAAqzRaD-337">
          <mxGeometry x="185" width="80" height="30" as="geometry" />
        </mxCell>
        <mxCell id="dz-a4pQGunZjvAAqzRaD-341" value="Amount" style="ellipse;whiteSpace=wrap;html=1;" vertex="1" parent="dz-a4pQGunZjvAAqzRaD-337">
          <mxGeometry x="95" width="80" height="30" as="geometry" />
        </mxCell>
        <mxCell id="dz-a4pQGunZjvAAqzRaD-342" value="Desc" style="ellipse;whiteSpace=wrap;html=1;" vertex="1" parent="dz-a4pQGunZjvAAqzRaD-337">
          <mxGeometry x="25" y="40" width="80" height="30" as="geometry" />
        </mxCell>
        <mxCell id="dz-a4pQGunZjvAAqzRaD-343" value="&lt;u&gt;Fees_ID&lt;/u&gt;" style="ellipse;whiteSpace=wrap;html=1;" vertex="1" parent="dz-a4pQGunZjvAAqzRaD-337">
          <mxGeometry y="90" width="80" height="30" as="geometry" />
        </mxCell>
        <mxCell id="dz-a4pQGunZjvAAqzRaD-344" value="T&amp;amp;C" style="ellipse;whiteSpace=wrap;html=1;" vertex="1" parent="dz-a4pQGunZjvAAqzRaD-337">
          <mxGeometry x="325" y="100" width="80" height="30" as="geometry" />
        </mxCell>
        <mxCell id="dz-a4pQGunZjvAAqzRaD-345" value="Fees_status" style="ellipse;whiteSpace=wrap;html=1;" vertex="1" parent="dz-a4pQGunZjvAAqzRaD-337">
          <mxGeometry x="315" y="60" width="80" height="30" as="geometry" />
        </mxCell>
        <mxCell id="dz-a4pQGunZjvAAqzRaD-346" value="" style="endArrow=none;html=1;rounded=0;entryX=0;entryY=0.5;entryDx=0;entryDy=0;exitX=1;exitY=0.5;exitDx=0;exitDy=0;" edge="1" parent="dz-a4pQGunZjvAAqzRaD-337" source="dz-a4pQGunZjvAAqzRaD-343" target="dz-a4pQGunZjvAAqzRaD-338">
          <mxGeometry width="50" height="50" relative="1" as="geometry">
            <mxPoint x="-5" y="250" as="sourcePoint" />
            <mxPoint x="45" y="200" as="targetPoint" />
          </mxGeometry>
        </mxCell>
        <mxCell id="dz-a4pQGunZjvAAqzRaD-347" value="" style="endArrow=none;html=1;rounded=0;entryX=0.265;entryY=0.9;entryDx=0;entryDy=0;entryPerimeter=0;exitX=0.325;exitY=0.059;exitDx=0;exitDy=0;exitPerimeter=0;" edge="1" parent="dz-a4pQGunZjvAAqzRaD-337" source="dz-a4pQGunZjvAAqzRaD-338" target="dz-a4pQGunZjvAAqzRaD-340">
          <mxGeometry width="50" height="50" relative="1" as="geometry">
            <mxPoint x="195" y="90" as="sourcePoint" />
            <mxPoint x="195" y="30" as="targetPoint" />
          </mxGeometry>
        </mxCell>
        <mxCell id="dz-a4pQGunZjvAAqzRaD-348" value="" style="endArrow=none;html=1;rounded=0;exitX=0.5;exitY=0;exitDx=0;exitDy=0;entryX=0;entryY=1;entryDx=0;entryDy=0;" edge="1" parent="dz-a4pQGunZjvAAqzRaD-337" source="dz-a4pQGunZjvAAqzRaD-338" target="dz-a4pQGunZjvAAqzRaD-339">
          <mxGeometry width="50" height="50" relative="1" as="geometry">
            <mxPoint x="145" y="80" as="sourcePoint" />
            <mxPoint x="195" y="30" as="targetPoint" />
          </mxGeometry>
        </mxCell>
        <mxCell id="dz-a4pQGunZjvAAqzRaD-349" value="" style="endArrow=none;html=1;rounded=0;exitX=0.83;exitY=0.014;exitDx=0;exitDy=0;exitPerimeter=0;entryX=0;entryY=0.5;entryDx=0;entryDy=0;" edge="1" parent="dz-a4pQGunZjvAAqzRaD-337" source="dz-a4pQGunZjvAAqzRaD-338" target="dz-a4pQGunZjvAAqzRaD-345">
          <mxGeometry width="50" height="50" relative="1" as="geometry">
            <mxPoint x="145" y="80" as="sourcePoint" />
            <mxPoint x="195" y="30" as="targetPoint" />
          </mxGeometry>
        </mxCell>
        <mxCell id="dz-a4pQGunZjvAAqzRaD-350" value="" style="endArrow=none;html=1;rounded=0;exitX=1;exitY=0.5;exitDx=0;exitDy=0;entryX=0;entryY=0.5;entryDx=0;entryDy=0;" edge="1" parent="dz-a4pQGunZjvAAqzRaD-337" source="dz-a4pQGunZjvAAqzRaD-338" target="dz-a4pQGunZjvAAqzRaD-344">
          <mxGeometry width="50" height="50" relative="1" as="geometry">
            <mxPoint x="145" y="80" as="sourcePoint" />
            <mxPoint x="315" y="110" as="targetPoint" />
          </mxGeometry>
        </mxCell>
        <mxCell id="dz-a4pQGunZjvAAqzRaD-351" value="" style="endArrow=none;html=1;rounded=0;exitX=0.5;exitY=0;exitDx=0;exitDy=0;" edge="1" parent="dz-a4pQGunZjvAAqzRaD-335" source="dz-a4pQGunZjvAAqzRaD-336">
          <mxGeometry width="50" height="50" relative="1" as="geometry">
            <mxPoint x="12.5" y="220" as="sourcePoint" />
            <mxPoint x="203" y="130" as="targetPoint" />
          </mxGeometry>
        </mxCell>
        <mxCell id="dz-a4pQGunZjvAAqzRaD-352" value="&lt;b&gt;1&lt;/b&gt;" style="text;html=1;strokeColor=none;fillColor=none;align=center;verticalAlign=middle;whiteSpace=wrap;rounded=0;" vertex="1" parent="dz-a4pQGunZjvAAqzRaD-335">
          <mxGeometry x="205" y="130" width="35" height="20" as="geometry" />
        </mxCell>
        <mxCell id="dz-a4pQGunZjvAAqzRaD-353" value="" style="group" vertex="1" connectable="0" parent="1">
          <mxGeometry x="-17.5" y="605" width="375" height="200" as="geometry" />
        </mxCell>
        <mxCell id="dz-a4pQGunZjvAAqzRaD-354" value="" style="group" vertex="1" connectable="0" parent="dz-a4pQGunZjvAAqzRaD-353">
          <mxGeometry width="375" height="147.5" as="geometry" />
        </mxCell>
        <mxCell id="dz-a4pQGunZjvAAqzRaD-355" value="Research_centre" style="rounded=0;whiteSpace=wrap;html=1;fillColor=#D4E1F5;" vertex="1" parent="dz-a4pQGunZjvAAqzRaD-354">
          <mxGeometry x="105" y="87.5" width="120" height="30" as="geometry" />
        </mxCell>
        <mxCell id="dz-a4pQGunZjvAAqzRaD-356" value="Timeline" style="ellipse;whiteSpace=wrap;html=1;" vertex="1" parent="dz-a4pQGunZjvAAqzRaD-354">
          <mxGeometry x="245" y="20" width="80" height="30" as="geometry" />
        </mxCell>
        <mxCell id="dz-a4pQGunZjvAAqzRaD-357" value="Objective" style="ellipse;whiteSpace=wrap;html=1;" vertex="1" parent="dz-a4pQGunZjvAAqzRaD-354">
          <mxGeometry x="165" width="80" height="30" as="geometry" />
        </mxCell>
        <mxCell id="dz-a4pQGunZjvAAqzRaD-358" value="Research_area" style="ellipse;whiteSpace=wrap;html=1;" vertex="1" parent="dz-a4pQGunZjvAAqzRaD-354">
          <mxGeometry x="65" y="10" width="100" height="30" as="geometry" />
        </mxCell>
        <mxCell id="dz-a4pQGunZjvAAqzRaD-359" value="Title" style="ellipse;whiteSpace=wrap;html=1;" vertex="1" parent="dz-a4pQGunZjvAAqzRaD-354">
          <mxGeometry x="15" y="50" width="80" height="30" as="geometry" />
        </mxCell>
        <mxCell id="dz-a4pQGunZjvAAqzRaD-360" value="&lt;u&gt;Res_ID&lt;/u&gt;" style="ellipse;whiteSpace=wrap;html=1;" vertex="1" parent="dz-a4pQGunZjvAAqzRaD-354">
          <mxGeometry y="87.5" width="80" height="30" as="geometry" />
        </mxCell>
        <mxCell id="dz-a4pQGunZjvAAqzRaD-361" value="Outcome" style="ellipse;whiteSpace=wrap;html=1;" vertex="1" parent="dz-a4pQGunZjvAAqzRaD-354">
          <mxGeometry x="295" y="50" width="80" height="30" as="geometry" />
        </mxCell>
        <mxCell id="dz-a4pQGunZjvAAqzRaD-362" value="Budget" style="ellipse;whiteSpace=wrap;html=1;" vertex="1" parent="dz-a4pQGunZjvAAqzRaD-354">
          <mxGeometry x="285" y="87.5" width="80" height="30" as="geometry" />
        </mxCell>
        <mxCell id="dz-a4pQGunZjvAAqzRaD-363" value="" style="endArrow=none;html=1;rounded=0;exitX=1;exitY=0.5;exitDx=0;exitDy=0;entryX=0;entryY=0.5;entryDx=0;entryDy=0;" edge="1" parent="dz-a4pQGunZjvAAqzRaD-354" source="dz-a4pQGunZjvAAqzRaD-360" target="dz-a4pQGunZjvAAqzRaD-355">
          <mxGeometry width="50" height="50" relative="1" as="geometry">
            <mxPoint x="397.5" y="65" as="sourcePoint" />
            <mxPoint x="447.5" y="15" as="targetPoint" />
          </mxGeometry>
        </mxCell>
        <mxCell id="dz-a4pQGunZjvAAqzRaD-364" value="" style="endArrow=none;html=1;rounded=0;exitX=1;exitY=1;exitDx=0;exitDy=0;entryX=0;entryY=0;entryDx=0;entryDy=0;" edge="1" parent="dz-a4pQGunZjvAAqzRaD-354" source="dz-a4pQGunZjvAAqzRaD-359" target="dz-a4pQGunZjvAAqzRaD-355">
          <mxGeometry width="50" height="50" relative="1" as="geometry">
            <mxPoint x="247.5" y="95" as="sourcePoint" />
            <mxPoint x="107.5" y="85" as="targetPoint" />
          </mxGeometry>
        </mxCell>
        <mxCell id="dz-a4pQGunZjvAAqzRaD-365" value="" style="endArrow=none;html=1;rounded=0;exitX=0.5;exitY=1;exitDx=0;exitDy=0;entryX=0.181;entryY=0.029;entryDx=0;entryDy=0;entryPerimeter=0;" edge="1" parent="dz-a4pQGunZjvAAqzRaD-354" source="dz-a4pQGunZjvAAqzRaD-358" target="dz-a4pQGunZjvAAqzRaD-355">
          <mxGeometry width="50" height="50" relative="1" as="geometry">
            <mxPoint x="247.5" y="95" as="sourcePoint" />
            <mxPoint x="297.5" y="45" as="targetPoint" />
          </mxGeometry>
        </mxCell>
        <mxCell id="dz-a4pQGunZjvAAqzRaD-366" value="" style="endArrow=none;html=1;rounded=0;exitX=0.384;exitY=0.007;exitDx=0;exitDy=0;exitPerimeter=0;entryX=0.5;entryY=1;entryDx=0;entryDy=0;" edge="1" parent="dz-a4pQGunZjvAAqzRaD-354" source="dz-a4pQGunZjvAAqzRaD-355" target="dz-a4pQGunZjvAAqzRaD-357">
          <mxGeometry width="50" height="50" relative="1" as="geometry">
            <mxPoint x="247.5" y="95" as="sourcePoint" />
            <mxPoint x="297.5" y="45" as="targetPoint" />
          </mxGeometry>
        </mxCell>
        <mxCell id="dz-a4pQGunZjvAAqzRaD-367" value="" style="endArrow=none;html=1;rounded=0;entryX=0;entryY=0.5;entryDx=0;entryDy=0;exitX=0.875;exitY=0.093;exitDx=0;exitDy=0;exitPerimeter=0;" edge="1" parent="dz-a4pQGunZjvAAqzRaD-354" source="dz-a4pQGunZjvAAqzRaD-355" target="dz-a4pQGunZjvAAqzRaD-361">
          <mxGeometry width="50" height="50" relative="1" as="geometry">
            <mxPoint x="217.5" y="85" as="sourcePoint" />
            <mxPoint x="297.5" y="45" as="targetPoint" />
          </mxGeometry>
        </mxCell>
        <mxCell id="dz-a4pQGunZjvAAqzRaD-368" value="" style="endArrow=none;html=1;rounded=0;entryX=0;entryY=1;entryDx=0;entryDy=0;exitX=0.656;exitY=0.071;exitDx=0;exitDy=0;exitPerimeter=0;" edge="1" parent="dz-a4pQGunZjvAAqzRaD-354" source="dz-a4pQGunZjvAAqzRaD-355" target="dz-a4pQGunZjvAAqzRaD-356">
          <mxGeometry width="50" height="50" relative="1" as="geometry">
            <mxPoint x="187.5" y="85" as="sourcePoint" />
            <mxPoint x="297.5" y="45" as="targetPoint" />
          </mxGeometry>
        </mxCell>
        <mxCell id="dz-a4pQGunZjvAAqzRaD-369" value="" style="endArrow=none;html=1;rounded=0;exitX=1;exitY=0.5;exitDx=0;exitDy=0;entryX=0;entryY=0.5;entryDx=0;entryDy=0;" edge="1" parent="dz-a4pQGunZjvAAqzRaD-354" source="dz-a4pQGunZjvAAqzRaD-355" target="dz-a4pQGunZjvAAqzRaD-362">
          <mxGeometry width="50" height="50" relative="1" as="geometry">
            <mxPoint x="247.5" y="95" as="sourcePoint" />
            <mxPoint x="297.5" y="45" as="targetPoint" />
          </mxGeometry>
        </mxCell>
        <mxCell id="dz-a4pQGunZjvAAqzRaD-370" value="&lt;b&gt;N&lt;/b&gt;" style="text;html=1;strokeColor=none;fillColor=none;align=center;verticalAlign=middle;whiteSpace=wrap;rounded=0;" vertex="1" parent="dz-a4pQGunZjvAAqzRaD-354">
          <mxGeometry x="117.5" y="117.5" width="60" height="30" as="geometry" />
        </mxCell>
        <mxCell id="dz-a4pQGunZjvAAqzRaD-371" value="" style="endArrow=none;html=1;rounded=0;entryX=0.118;entryY=0.98;entryDx=0;entryDy=0;entryPerimeter=0;" edge="1" parent="1" target="dz-a4pQGunZjvAAqzRaD-2">
          <mxGeometry width="50" height="50" relative="1" as="geometry">
            <mxPoint x="-200" y="770" as="sourcePoint" />
            <mxPoint x="120" y="610" as="targetPoint" />
          </mxGeometry>
        </mxCell>
        <mxCell id="dz-a4pQGunZjvAAqzRaD-372" value="have" style="rhombus;whiteSpace=wrap;html=1;fillColor=#FFB366;" vertex="1" parent="1">
          <mxGeometry x="-200" y="740" width="80" height="60" as="geometry" />
        </mxCell>
        <mxCell id="dz-a4pQGunZjvAAqzRaD-373" value="" style="endArrow=none;html=1;rounded=0;exitX=1;exitY=0.5;exitDx=0;exitDy=0;" edge="1" parent="1" source="dz-a4pQGunZjvAAqzRaD-372">
          <mxGeometry width="50" height="50" relative="1" as="geometry">
            <mxPoint x="160" y="660" as="sourcePoint" />
            <mxPoint x="150" y="720" as="targetPoint" />
            <Array as="points">
              <mxPoint x="150" y="770" />
            </Array>
          </mxGeometry>
        </mxCell>
        <mxCell id="dz-a4pQGunZjvAAqzRaD-374" value="" style="group" vertex="1" connectable="0" parent="1">
          <mxGeometry x="-590" y="540" width="380" height="130" as="geometry" />
        </mxCell>
        <mxCell id="dz-a4pQGunZjvAAqzRaD-375" value="Library" style="rounded=0;whiteSpace=wrap;html=1;fillColor=#D4E1F5;" vertex="1" parent="dz-a4pQGunZjvAAqzRaD-374">
          <mxGeometry x="130" y="100" width="120" height="30" as="geometry" />
        </mxCell>
        <mxCell id="dz-a4pQGunZjvAAqzRaD-376" value="Address" style="ellipse;whiteSpace=wrap;html=1;" vertex="1" parent="dz-a4pQGunZjvAAqzRaD-374">
          <mxGeometry x="170" width="80" height="30" as="geometry" />
        </mxCell>
        <mxCell id="dz-a4pQGunZjvAAqzRaD-377" value="ContactInfo" style="ellipse;whiteSpace=wrap;html=1;" vertex="1" parent="dz-a4pQGunZjvAAqzRaD-374">
          <mxGeometry x="80" y="10" width="80" height="30" as="geometry" />
        </mxCell>
        <mxCell id="dz-a4pQGunZjvAAqzRaD-378" value="name" style="ellipse;whiteSpace=wrap;html=1;" vertex="1" parent="dz-a4pQGunZjvAAqzRaD-374">
          <mxGeometry x="10" y="40" width="80" height="30" as="geometry" />
        </mxCell>
        <mxCell id="dz-a4pQGunZjvAAqzRaD-379" value="&lt;u&gt;Lib_ID&lt;/u&gt;" style="ellipse;whiteSpace=wrap;html=1;" vertex="1" parent="dz-a4pQGunZjvAAqzRaD-374">
          <mxGeometry y="90" width="80" height="30" as="geometry" />
        </mxCell>
        <mxCell id="dz-a4pQGunZjvAAqzRaD-380" value="Collections" style="ellipse;whiteSpace=wrap;html=1;" vertex="1" parent="dz-a4pQGunZjvAAqzRaD-374">
          <mxGeometry x="300" y="60" width="80" height="30" as="geometry" />
        </mxCell>
        <mxCell id="dz-a4pQGunZjvAAqzRaD-381" value="Facilities" style="ellipse;whiteSpace=wrap;html=1;" vertex="1" parent="dz-a4pQGunZjvAAqzRaD-374">
          <mxGeometry x="255" y="10" width="80" height="30" as="geometry" />
        </mxCell>
        <mxCell id="dz-a4pQGunZjvAAqzRaD-382" value="Capacity" style="ellipse;whiteSpace=wrap;html=1;" vertex="1" parent="dz-a4pQGunZjvAAqzRaD-374">
          <mxGeometry x="290" y="100" width="80" height="30" as="geometry" />
        </mxCell>
        <mxCell id="dz-a4pQGunZjvAAqzRaD-383" value="" style="endArrow=none;html=1;rounded=0;exitX=1;exitY=1;exitDx=0;exitDy=0;entryX=0;entryY=0.5;entryDx=0;entryDy=0;" edge="1" parent="dz-a4pQGunZjvAAqzRaD-374" source="dz-a4pQGunZjvAAqzRaD-379" target="dz-a4pQGunZjvAAqzRaD-375">
          <mxGeometry width="50" height="50" relative="1" as="geometry">
            <mxPoint x="270" y="170" as="sourcePoint" />
            <mxPoint x="320" y="120" as="targetPoint" />
          </mxGeometry>
        </mxCell>
        <mxCell id="dz-a4pQGunZjvAAqzRaD-384" value="" style="endArrow=none;html=1;rounded=0;exitX=1;exitY=1;exitDx=0;exitDy=0;entryX=0;entryY=0;entryDx=0;entryDy=0;" edge="1" parent="dz-a4pQGunZjvAAqzRaD-374" source="dz-a4pQGunZjvAAqzRaD-378" target="dz-a4pQGunZjvAAqzRaD-375">
          <mxGeometry width="50" height="50" relative="1" as="geometry">
            <mxPoint x="270" y="170" as="sourcePoint" />
            <mxPoint x="320" y="120" as="targetPoint" />
          </mxGeometry>
        </mxCell>
        <mxCell id="dz-a4pQGunZjvAAqzRaD-385" value="" style="endArrow=none;html=1;rounded=0;exitX=0.5;exitY=1;exitDx=0;exitDy=0;entryX=0.25;entryY=0;entryDx=0;entryDy=0;" edge="1" parent="dz-a4pQGunZjvAAqzRaD-374" source="dz-a4pQGunZjvAAqzRaD-377" target="dz-a4pQGunZjvAAqzRaD-375">
          <mxGeometry width="50" height="50" relative="1" as="geometry">
            <mxPoint x="270" y="170" as="sourcePoint" />
            <mxPoint x="320" y="120" as="targetPoint" />
          </mxGeometry>
        </mxCell>
        <mxCell id="dz-a4pQGunZjvAAqzRaD-386" value="" style="endArrow=none;html=1;rounded=0;exitX=0.75;exitY=0;exitDx=0;exitDy=0;entryX=0;entryY=1;entryDx=0;entryDy=0;" edge="1" parent="dz-a4pQGunZjvAAqzRaD-374" source="dz-a4pQGunZjvAAqzRaD-375" target="dz-a4pQGunZjvAAqzRaD-381">
          <mxGeometry width="50" height="50" relative="1" as="geometry">
            <mxPoint x="270" y="170" as="sourcePoint" />
            <mxPoint x="320" y="120" as="targetPoint" />
          </mxGeometry>
        </mxCell>
        <mxCell id="dz-a4pQGunZjvAAqzRaD-387" value="" style="endArrow=none;html=1;rounded=0;exitX=1;exitY=0;exitDx=0;exitDy=0;entryX=0;entryY=1;entryDx=0;entryDy=0;" edge="1" parent="dz-a4pQGunZjvAAqzRaD-374" source="dz-a4pQGunZjvAAqzRaD-375" target="dz-a4pQGunZjvAAqzRaD-380">
          <mxGeometry width="50" height="50" relative="1" as="geometry">
            <mxPoint x="270" y="170" as="sourcePoint" />
            <mxPoint x="320" y="120" as="targetPoint" />
          </mxGeometry>
        </mxCell>
        <mxCell id="dz-a4pQGunZjvAAqzRaD-388" value="&lt;b&gt;N&lt;/b&gt;" style="text;html=1;strokeColor=none;fillColor=none;align=center;verticalAlign=middle;whiteSpace=wrap;rounded=0;" vertex="1" parent="dz-a4pQGunZjvAAqzRaD-374">
          <mxGeometry x="180" y="70" width="60" height="30" as="geometry" />
        </mxCell>
        <mxCell id="dz-a4pQGunZjvAAqzRaD-389" value="has" style="rhombus;whiteSpace=wrap;html=1;fillColor=#FFB366;" vertex="1" parent="1">
          <mxGeometry x="-120" y="450" width="80" height="70" as="geometry" />
        </mxCell>
        <mxCell id="dz-a4pQGunZjvAAqzRaD-390" value="" style="endArrow=none;html=1;rounded=0;exitX=0.883;exitY=-0.007;exitDx=0;exitDy=0;exitPerimeter=0;entryX=0;entryY=0.5;entryDx=0;entryDy=0;" edge="1" parent="1" source="dz-a4pQGunZjvAAqzRaD-375" target="dz-a4pQGunZjvAAqzRaD-389">
          <mxGeometry width="50" height="50" relative="1" as="geometry">
            <mxPoint x="-170" y="530" as="sourcePoint" />
            <mxPoint x="-120" y="480" as="targetPoint" />
          </mxGeometry>
        </mxCell>
        <mxCell id="dz-a4pQGunZjvAAqzRaD-391" value="" style="endArrow=none;html=1;rounded=0;entryX=1;entryY=0.5;entryDx=0;entryDy=0;exitX=0;exitY=1;exitDx=0;exitDy=0;" edge="1" parent="1" source="dz-a4pQGunZjvAAqzRaD-2" target="dz-a4pQGunZjvAAqzRaD-389">
          <mxGeometry width="50" height="50" relative="1" as="geometry">
            <mxPoint x="-100" y="510" as="sourcePoint" />
            <mxPoint x="-50" y="460" as="targetPoint" />
          </mxGeometry>
        </mxCell>
        <mxCell id="dz-a4pQGunZjvAAqzRaD-392" value="" style="endArrow=none;html=1;rounded=0;" edge="1" parent="1" target="dz-a4pQGunZjvAAqzRaD-393">
          <mxGeometry width="50" height="50" relative="1" as="geometry">
            <mxPoint x="-160" y="-130" as="sourcePoint" />
            <mxPoint x="-160" y="-250" as="targetPoint" />
          </mxGeometry>
        </mxCell>
        <mxCell id="dz-a4pQGunZjvAAqzRaD-393" value="Apply for" style="rhombus;whiteSpace=wrap;html=1;fillColor=#FFB366;" vertex="1" parent="1">
          <mxGeometry x="-200" y="-300" width="80" height="70" as="geometry" />
        </mxCell>
        <mxCell id="dz-a4pQGunZjvAAqzRaD-394" value="" style="endArrow=none;html=1;rounded=0;entryX=0.5;entryY=0;entryDx=0;entryDy=0;" edge="1" parent="1" target="dz-a4pQGunZjvAAqzRaD-393">
          <mxGeometry width="50" height="50" relative="1" as="geometry">
            <mxPoint x="-160" y="-340" as="sourcePoint" />
            <mxPoint x="-30" y="-260" as="targetPoint" />
          </mxGeometry>
        </mxCell>
        <mxCell id="dz-a4pQGunZjvAAqzRaD-395" value="Earns" style="rhombus;whiteSpace=wrap;html=1;fillColor=#FFB366;" vertex="1" parent="1">
          <mxGeometry x="-400" y="-30" width="80" height="60" as="geometry" />
        </mxCell>
        <mxCell id="dz-a4pQGunZjvAAqzRaD-396" value="" style="endArrow=none;html=1;rounded=0;exitX=1;exitY=0.5;exitDx=0;exitDy=0;" edge="1" parent="1" source="dz-a4pQGunZjvAAqzRaD-395">
          <mxGeometry width="50" height="50" relative="1" as="geometry">
            <mxPoint x="-500" y="-10" as="sourcePoint" />
            <mxPoint x="-190" y="-100" as="targetPoint" />
          </mxGeometry>
        </mxCell>
        <mxCell id="dz-a4pQGunZjvAAqzRaD-397" value="" style="endArrow=none;html=1;rounded=0;entryX=0;entryY=0.5;entryDx=0;entryDy=0;exitX=0.5;exitY=0;exitDx=0;exitDy=0;" edge="1" parent="1" source="dz-a4pQGunZjvAAqzRaD-12" target="dz-a4pQGunZjvAAqzRaD-395">
          <mxGeometry width="50" height="50" relative="1" as="geometry">
            <mxPoint x="-400" y="140" as="sourcePoint" />
            <mxPoint x="-450" y="-60" as="targetPoint" />
          </mxGeometry>
        </mxCell>
        <mxCell id="dz-a4pQGunZjvAAqzRaD-398" value="" style="endArrow=none;html=1;rounded=0;exitX=0;exitY=0;exitDx=0;exitDy=0;entryX=0.798;entryY=0.919;entryDx=0;entryDy=0;entryPerimeter=0;" edge="1" parent="1" source="dz-a4pQGunZjvAAqzRaD-2" target="dz-a4pQGunZjvAAqzRaD-10">
          <mxGeometry width="50" height="50" relative="1" as="geometry">
            <mxPoint x="400" y="440" as="sourcePoint" />
            <mxPoint x="450" y="390" as="targetPoint" />
          </mxGeometry>
        </mxCell>
        <mxCell id="dz-a4pQGunZjvAAqzRaD-399" value="" style="endArrow=none;html=1;rounded=0;exitX=0.182;exitY=-0.017;exitDx=0;exitDy=0;exitPerimeter=0;entryX=0.5;entryY=1;entryDx=0;entryDy=0;" edge="1" parent="1" source="dz-a4pQGunZjvAAqzRaD-2" target="dz-a4pQGunZjvAAqzRaD-9">
          <mxGeometry width="50" height="50" relative="1" as="geometry">
            <mxPoint x="400" y="440" as="sourcePoint" />
            <mxPoint x="450" y="390" as="targetPoint" />
          </mxGeometry>
        </mxCell>
        <mxCell id="dz-a4pQGunZjvAAqzRaD-400" value="" style="endArrow=none;html=1;rounded=0;exitX=0.75;exitY=0;exitDx=0;exitDy=0;entryX=0.5;entryY=1;entryDx=0;entryDy=0;" edge="1" parent="1" source="dz-a4pQGunZjvAAqzRaD-2" target="dz-a4pQGunZjvAAqzRaD-49">
          <mxGeometry width="50" height="50" relative="1" as="geometry">
            <mxPoint x="400" y="440" as="sourcePoint" />
            <mxPoint x="450" y="390" as="targetPoint" />
          </mxGeometry>
        </mxCell>
        <mxCell id="dz-a4pQGunZjvAAqzRaD-401" value="" style="endArrow=none;html=1;rounded=0;exitX=0.777;exitY=0.968;exitDx=0;exitDy=0;exitPerimeter=0;" edge="1" parent="1" source="dz-a4pQGunZjvAAqzRaD-213">
          <mxGeometry width="50" height="50" relative="1" as="geometry">
            <mxPoint x="1420" y="490" as="sourcePoint" />
            <mxPoint x="1480" y="450" as="targetPoint" />
          </mxGeometry>
        </mxCell>
        <mxCell id="dz-a4pQGunZjvAAqzRaD-402" value="" style="endArrow=none;html=1;rounded=0;entryX=0.25;entryY=0;entryDx=0;entryDy=0;" edge="1" parent="1" target="dz-a4pQGunZjvAAqzRaD-212">
          <mxGeometry width="50" height="50" relative="1" as="geometry">
            <mxPoint x="1450" y="300" as="sourcePoint" />
            <mxPoint x="1470" y="440" as="targetPoint" />
          </mxGeometry>
        </mxCell>
        <mxCell id="dz-a4pQGunZjvAAqzRaD-403" value="" style="endArrow=none;html=1;rounded=0;entryX=1;entryY=0.5;entryDx=0;entryDy=0;" edge="1" parent="1" target="dz-a4pQGunZjvAAqzRaD-212">
          <mxGeometry width="50" height="50" relative="1" as="geometry">
            <mxPoint x="1680" y="460" as="sourcePoint" />
            <mxPoint x="1470" y="440" as="targetPoint" />
          </mxGeometry>
        </mxCell>
        <mxCell id="dz-a4pQGunZjvAAqzRaD-404" value="" style="endArrow=none;html=1;rounded=0;entryX=0;entryY=0.5;entryDx=0;entryDy=0;" edge="1" parent="1" target="dz-a4pQGunZjvAAqzRaD-99">
          <mxGeometry width="50" height="50" relative="1" as="geometry">
            <mxPoint x="1170" y="620" as="sourcePoint" />
            <mxPoint x="1330" y="550" as="targetPoint" />
          </mxGeometry>
        </mxCell>
        <mxCell id="dz-a4pQGunZjvAAqzRaD-405" value="" style="endArrow=none;html=1;rounded=0;exitX=0.409;exitY=1.03;exitDx=0;exitDy=0;exitPerimeter=0;" edge="1" parent="1" source="dz-a4pQGunZjvAAqzRaD-101">
          <mxGeometry width="50" height="50" relative="1" as="geometry">
            <mxPoint x="1280" y="600" as="sourcePoint" />
            <mxPoint x="1123" y="620" as="targetPoint" />
          </mxGeometry>
        </mxCell>
        <mxCell id="dz-a4pQGunZjvAAqzRaD-406" value="" style="endArrow=none;html=1;rounded=0;exitX=0.5;exitY=1;exitDx=0;exitDy=0;" edge="1" parent="1" source="dz-a4pQGunZjvAAqzRaD-102">
          <mxGeometry width="50" height="50" relative="1" as="geometry">
            <mxPoint x="1280" y="600" as="sourcePoint" />
            <mxPoint x="1100" y="620" as="targetPoint" />
          </mxGeometry>
        </mxCell>
        <mxCell id="dz-a4pQGunZjvAAqzRaD-407" value="" style="endArrow=none;html=1;rounded=0;exitX=0.25;exitY=0;exitDx=0;exitDy=0;" edge="1" parent="1" source="dz-a4pQGunZjvAAqzRaD-48">
          <mxGeometry width="50" height="50" relative="1" as="geometry">
            <mxPoint x="940" y="160" as="sourcePoint" />
            <mxPoint x="990" y="110" as="targetPoint" />
          </mxGeometry>
        </mxCell>
        <mxCell id="dz-a4pQGunZjvAAqzRaD-408" value="" style="endArrow=none;html=1;rounded=0;entryX=1;entryY=1;entryDx=0;entryDy=0;" edge="1" parent="1" target="dz-a4pQGunZjvAAqzRaD-272">
          <mxGeometry width="50" height="50" relative="1" as="geometry">
            <mxPoint x="1530" y="-170" as="sourcePoint" />
            <mxPoint x="1440" y="-220" as="targetPoint" />
          </mxGeometry>
        </mxCell>
        <mxCell id="dz-a4pQGunZjvAAqzRaD-409" value="" style="endArrow=none;html=1;rounded=0;exitX=0.689;exitY=1.005;exitDx=0;exitDy=0;exitPerimeter=0;" edge="1" parent="1" source="dz-a4pQGunZjvAAqzRaD-271">
          <mxGeometry width="50" height="50" relative="1" as="geometry">
            <mxPoint x="1390" y="-170" as="sourcePoint" />
            <mxPoint x="1550" y="-170" as="targetPoint" />
          </mxGeometry>
        </mxCell>
        <mxCell id="dz-a4pQGunZjvAAqzRaD-410" value="" style="endArrow=none;html=1;rounded=0;" edge="1" parent="1">
          <mxGeometry width="50" height="50" relative="1" as="geometry">
            <mxPoint x="1560" y="-170" as="sourcePoint" />
            <mxPoint x="1510" y="-300" as="targetPoint" />
          </mxGeometry>
        </mxCell>
        <mxCell id="dz-a4pQGunZjvAAqzRaD-411" value="" style="endArrow=none;html=1;rounded=0;entryX=0.5;entryY=1;entryDx=0;entryDy=0;" edge="1" parent="1" target="dz-a4pQGunZjvAAqzRaD-277">
          <mxGeometry width="50" height="50" relative="1" as="geometry">
            <mxPoint x="1580" y="-170" as="sourcePoint" />
            <mxPoint x="1560" y="-260" as="targetPoint" />
          </mxGeometry>
        </mxCell>
        <mxCell id="dz-a4pQGunZjvAAqzRaD-412" value="" style="endArrow=none;html=1;rounded=0;" edge="1" parent="1">
          <mxGeometry width="50" height="50" relative="1" as="geometry">
            <mxPoint x="1610" y="-170" as="sourcePoint" />
            <mxPoint x="1660" y="-290" as="targetPoint" />
          </mxGeometry>
        </mxCell>
        <mxCell id="dz-a4pQGunZjvAAqzRaD-413" value="" style="endArrow=none;html=1;rounded=0;entryX=0.233;entryY=0.948;entryDx=0;entryDy=0;entryPerimeter=0;" edge="1" parent="1" target="dz-a4pQGunZjvAAqzRaD-275">
          <mxGeometry width="50" height="50" relative="1" as="geometry">
            <mxPoint x="1620" y="-170" as="sourcePoint" />
            <mxPoint x="1560" y="-260" as="targetPoint" />
          </mxGeometry>
        </mxCell>
        <mxCell id="dz-a4pQGunZjvAAqzRaD-414" value="" style="endArrow=none;html=1;rounded=0;" edge="1" parent="1">
          <mxGeometry width="50" height="50" relative="1" as="geometry">
            <mxPoint x="1080" y="-330" as="sourcePoint" />
            <mxPoint x="1110" y="-240" as="targetPoint" />
          </mxGeometry>
        </mxCell>
        <mxCell id="dz-a4pQGunZjvAAqzRaD-415" value="" style="endArrow=none;html=1;rounded=0;" edge="1" parent="1">
          <mxGeometry width="50" height="50" relative="1" as="geometry">
            <mxPoint x="1140" y="-240" as="sourcePoint" />
            <mxPoint x="1170" y="-320" as="targetPoint" />
          </mxGeometry>
        </mxCell>
        <mxCell id="dz-a4pQGunZjvAAqzRaD-416" value="" style="endArrow=none;html=1;rounded=0;entryX=0.282;entryY=0.918;entryDx=0;entryDy=0;entryPerimeter=0;" edge="1" parent="1" target="dz-a4pQGunZjvAAqzRaD-230">
          <mxGeometry width="50" height="50" relative="1" as="geometry">
            <mxPoint x="1160" y="-240" as="sourcePoint" />
            <mxPoint x="1210" y="-280" as="targetPoint" />
          </mxGeometry>
        </mxCell>
        <mxCell id="dz-a4pQGunZjvAAqzRaD-417" value="" style="endArrow=none;html=1;rounded=0;entryX=1;entryY=1;entryDx=0;entryDy=0;" edge="1" parent="1" target="dz-a4pQGunZjvAAqzRaD-342">
          <mxGeometry width="50" height="50" relative="1" as="geometry">
            <mxPoint x="1060" y="-520" as="sourcePoint" />
            <mxPoint x="1110" y="-590" as="targetPoint" />
          </mxGeometry>
        </mxCell>
        <mxCell id="dz-a4pQGunZjvAAqzRaD-418" value="" style="endArrow=none;html=1;rounded=0;entryX=0.64;entryY=0.967;entryDx=0;entryDy=0;entryPerimeter=0;" edge="1" parent="1" target="dz-a4pQGunZjvAAqzRaD-341">
          <mxGeometry width="50" height="50" relative="1" as="geometry">
            <mxPoint x="1080" y="-520" as="sourcePoint" />
            <mxPoint x="1110" y="-590" as="targetPoint" />
          </mxGeometry>
        </mxCell>
        <mxCell id="dz-a4pQGunZjvAAqzRaD-419" value="" style="endArrow=none;html=1;rounded=0;exitX=0.756;exitY=0.956;exitDx=0;exitDy=0;exitPerimeter=0;" edge="1" parent="1" source="dz-a4pQGunZjvAAqzRaD-85">
          <mxGeometry width="50" height="50" relative="1" as="geometry">
            <mxPoint x="560" y="-20" as="sourcePoint" />
            <mxPoint x="630" y="-10" as="targetPoint" />
          </mxGeometry>
        </mxCell>
        <mxCell id="dz-a4pQGunZjvAAqzRaD-420" value="" style="endArrow=none;html=1;rounded=0;exitX=0.16;exitY=0.048;exitDx=0;exitDy=0;exitPerimeter=0;" edge="1" parent="1" source="dz-a4pQGunZjvAAqzRaD-251">
          <mxGeometry width="50" height="50" relative="1" as="geometry">
            <mxPoint x="420" y="-170" as="sourcePoint" />
            <mxPoint x="530" y="-320" as="targetPoint" />
          </mxGeometry>
        </mxCell>
        <mxCell id="dz-a4pQGunZjvAAqzRaD-421" value="" style="endArrow=none;html=1;rounded=0;entryX=0;entryY=1;entryDx=0;entryDy=0;" edge="1" parent="1" target="dz-a4pQGunZjvAAqzRaD-250">
          <mxGeometry width="50" height="50" relative="1" as="geometry">
            <mxPoint x="720" y="-260" as="sourcePoint" />
            <mxPoint x="470" y="-220" as="targetPoint" />
          </mxGeometry>
        </mxCell>
        <mxCell id="dz-a4pQGunZjvAAqzRaD-422" value="" style="endArrow=none;html=1;rounded=0;exitX=0.409;exitY=1.001;exitDx=0;exitDy=0;exitPerimeter=0;" edge="1" parent="1" source="dz-a4pQGunZjvAAqzRaD-296">
          <mxGeometry width="50" height="50" relative="1" as="geometry">
            <mxPoint x="170" y="-210" as="sourcePoint" />
            <mxPoint x="170" y="-250" as="targetPoint" />
          </mxGeometry>
        </mxCell>
        <mxCell id="dz-a4pQGunZjvAAqzRaD-423" value="" style="endArrow=none;html=1;rounded=0;exitX=0.231;exitY=0.939;exitDx=0;exitDy=0;exitPerimeter=0;" edge="1" parent="1" source="dz-a4pQGunZjvAAqzRaD-297">
          <mxGeometry width="50" height="50" relative="1" as="geometry">
            <mxPoint x="170" y="-210" as="sourcePoint" />
            <mxPoint x="190" y="-250" as="targetPoint" />
          </mxGeometry>
        </mxCell>
        <mxCell id="dz-a4pQGunZjvAAqzRaD-424" value="" style="endArrow=none;html=1;rounded=0;entryX=1;entryY=0.25;entryDx=0;entryDy=0;" edge="1" parent="1" target="dz-a4pQGunZjvAAqzRaD-291">
          <mxGeometry width="50" height="50" relative="1" as="geometry">
            <mxPoint x="310" y="-240" as="sourcePoint" />
            <mxPoint x="220" y="-260" as="targetPoint" />
          </mxGeometry>
        </mxCell>
        <mxCell id="dz-a4pQGunZjvAAqzRaD-425" value="" style="endArrow=none;html=1;rounded=0;exitX=1;exitY=0.5;exitDx=0;exitDy=0;" edge="1" parent="1" source="dz-a4pQGunZjvAAqzRaD-310">
          <mxGeometry width="50" height="50" relative="1" as="geometry">
            <mxPoint x="-310" y="-340" as="sourcePoint" />
            <mxPoint x="-220" y="-360" as="targetPoint" />
          </mxGeometry>
        </mxCell>
        <mxCell id="dz-a4pQGunZjvAAqzRaD-426" value="" style="endArrow=none;html=1;rounded=0;exitX=1;exitY=1;exitDx=0;exitDy=0;" edge="1" parent="1" source="dz-a4pQGunZjvAAqzRaD-29">
          <mxGeometry width="50" height="50" relative="1" as="geometry">
            <mxPoint x="-110" y="60" as="sourcePoint" />
            <mxPoint x="-210" y="-130" as="targetPoint" />
          </mxGeometry>
        </mxCell>
        <mxCell id="dz-a4pQGunZjvAAqzRaD-427" value="" style="endArrow=none;html=1;rounded=0;entryX=0.25;entryY=0;entryDx=0;entryDy=0;" edge="1" parent="1" target="dz-a4pQGunZjvAAqzRaD-23">
          <mxGeometry width="50" height="50" relative="1" as="geometry">
            <mxPoint x="-200" y="-180" as="sourcePoint" />
            <mxPoint x="-60" y="10" as="targetPoint" />
          </mxGeometry>
        </mxCell>
        <mxCell id="dz-a4pQGunZjvAAqzRaD-428" value="" style="endArrow=none;html=1;rounded=0;exitX=0.5;exitY=1;exitDx=0;exitDy=0;" edge="1" parent="1" source="dz-a4pQGunZjvAAqzRaD-17">
          <mxGeometry width="50" height="50" relative="1" as="geometry">
            <mxPoint x="-160" y="380" as="sourcePoint" />
            <mxPoint x="-460" y="170" as="targetPoint" />
          </mxGeometry>
        </mxCell>
        <mxCell id="dz-a4pQGunZjvAAqzRaD-429" value="" style="endArrow=none;html=1;rounded=0;" edge="1" parent="1">
          <mxGeometry width="50" height="50" relative="1" as="geometry">
            <mxPoint x="-450" y="100" as="sourcePoint" />
            <mxPoint x="-440" y="150" as="targetPoint" />
          </mxGeometry>
        </mxCell>
        <mxCell id="dz-a4pQGunZjvAAqzRaD-430" value="" style="endArrow=none;html=1;rounded=0;exitX=1;exitY=0.5;exitDx=0;exitDy=0;" edge="1" parent="1" source="dz-a4pQGunZjvAAqzRaD-191">
          <mxGeometry width="50" height="50" relative="1" as="geometry">
            <mxPoint x="-520" y="410" as="sourcePoint" />
            <mxPoint x="-500" y="396" as="targetPoint" />
          </mxGeometry>
        </mxCell>
        <mxCell id="dz-a4pQGunZjvAAqzRaD-431" value="" style="endArrow=none;html=1;rounded=0;entryX=0.5;entryY=0;entryDx=0;entryDy=0;" edge="1" parent="1" target="dz-a4pQGunZjvAAqzRaD-375">
          <mxGeometry width="50" height="50" relative="1" as="geometry">
            <mxPoint x="-380" y="570" as="sourcePoint" />
            <mxPoint x="-270" y="660" as="targetPoint" />
          </mxGeometry>
        </mxCell>
        <mxCell id="dz-a4pQGunZjvAAqzRaD-432" value="" style="endArrow=none;html=1;rounded=0;" edge="1" parent="1">
          <mxGeometry width="50" height="50" relative="1" as="geometry">
            <mxPoint x="-340" y="660" as="sourcePoint" />
            <mxPoint x="-300" y="660" as="targetPoint" />
          </mxGeometry>
        </mxCell>
        <mxCell id="dz-a4pQGunZjvAAqzRaD-433" value="" style="endArrow=none;html=1;rounded=0;exitX=1;exitY=1;exitDx=0;exitDy=0;entryX=0;entryY=0.5;entryDx=0;entryDy=0;" edge="1" parent="1" source="dz-a4pQGunZjvAAqzRaD-4" target="dz-a4pQGunZjvAAqzRaD-1">
          <mxGeometry width="50" height="50" relative="1" as="geometry">
            <mxPoint x="360" y="590" as="sourcePoint" />
            <mxPoint x="410" y="540" as="targetPoint" />
          </mxGeometry>
        </mxCell>
        <mxCell id="dz-a4pQGunZjvAAqzRaD-434" value="" style="endArrow=none;html=1;rounded=0;exitX=1;exitY=1;exitDx=0;exitDy=0;entryX=0;entryY=0;entryDx=0;entryDy=0;" edge="1" parent="1" source="dz-a4pQGunZjvAAqzRaD-5" target="dz-a4pQGunZjvAAqzRaD-1">
          <mxGeometry width="50" height="50" relative="1" as="geometry">
            <mxPoint x="320" y="600" as="sourcePoint" />
            <mxPoint x="370" y="550" as="targetPoint" />
          </mxGeometry>
        </mxCell>
        <mxCell id="dz-a4pQGunZjvAAqzRaD-435" value="" style="endArrow=none;html=1;rounded=0;exitX=0.647;exitY=1.016;exitDx=0;exitDy=0;exitPerimeter=0;entryX=0.25;entryY=0;entryDx=0;entryDy=0;" edge="1" parent="1" source="dz-a4pQGunZjvAAqzRaD-6" target="dz-a4pQGunZjvAAqzRaD-1">
          <mxGeometry width="50" height="50" relative="1" as="geometry">
            <mxPoint x="320" y="600" as="sourcePoint" />
            <mxPoint x="370" y="550" as="targetPoint" />
          </mxGeometry>
        </mxCell>
        <mxCell id="dz-a4pQGunZjvAAqzRaD-436" value="" style="endArrow=none;html=1;rounded=0;exitX=0.5;exitY=1;exitDx=0;exitDy=0;entryX=0.75;entryY=0;entryDx=0;entryDy=0;" edge="1" parent="1" source="dz-a4pQGunZjvAAqzRaD-81" target="dz-a4pQGunZjvAAqzRaD-1">
          <mxGeometry width="50" height="50" relative="1" as="geometry">
            <mxPoint x="320" y="600" as="sourcePoint" />
            <mxPoint x="370" y="550" as="targetPoint" />
          </mxGeometry>
        </mxCell>
        <mxCell id="dz-a4pQGunZjvAAqzRaD-437" value="" style="endArrow=none;html=1;rounded=0;exitX=1;exitY=0;exitDx=0;exitDy=0;entryX=0.212;entryY=0.94;entryDx=0;entryDy=0;entryPerimeter=0;" edge="1" parent="1" source="dz-a4pQGunZjvAAqzRaD-1" target="dz-a4pQGunZjvAAqzRaD-80">
          <mxGeometry width="50" height="50" relative="1" as="geometry">
            <mxPoint x="320" y="600" as="sourcePoint" />
            <mxPoint x="370" y="550" as="targetPoint" />
          </mxGeometry>
        </mxCell>
        <mxCell id="dz-a4pQGunZjvAAqzRaD-438" value="" style="endArrow=none;html=1;rounded=0;exitX=1;exitY=0.5;exitDx=0;exitDy=0;entryX=0.294;entryY=0.959;entryDx=0;entryDy=0;entryPerimeter=0;" edge="1" parent="1" source="dz-a4pQGunZjvAAqzRaD-1" target="dz-a4pQGunZjvAAqzRaD-79">
          <mxGeometry width="50" height="50" relative="1" as="geometry">
            <mxPoint x="320" y="600" as="sourcePoint" />
            <mxPoint x="370" y="550" as="targetPoint" />
          </mxGeometry>
        </mxCell>
        <mxCell id="dz-a4pQGunZjvAAqzRaD-439" value="" style="endArrow=none;html=1;rounded=0;exitX=0;exitY=0.5;exitDx=0;exitDy=0;entryX=1;entryY=0.75;entryDx=0;entryDy=0;" edge="1" parent="1" source="dz-a4pQGunZjvAAqzRaD-78" target="dz-a4pQGunZjvAAqzRaD-1">
          <mxGeometry width="50" height="50" relative="1" as="geometry">
            <mxPoint x="320" y="600" as="sourcePoint" />
            <mxPoint x="370" y="550" as="targetPoint" />
          </mxGeometry>
        </mxCell>
        <mxCell id="dz-a4pQGunZjvAAqzRaD-440" value="" style="endArrow=none;html=1;rounded=0;entryX=1;entryY=1;entryDx=0;entryDy=0;" edge="1" parent="1" target="dz-a4pQGunZjvAAqzRaD-115">
          <mxGeometry width="50" height="50" relative="1" as="geometry">
            <mxPoint x="560" y="810" as="sourcePoint" />
            <mxPoint x="490" y="660" as="targetPoint" />
          </mxGeometry>
        </mxCell>
        <mxCell id="dz-a4pQGunZjvAAqzRaD-441" value="&lt;b&gt;1&lt;/b&gt;" style="text;html=1;strokeColor=none;fillColor=none;align=center;verticalAlign=middle;whiteSpace=wrap;rounded=0;" vertex="1" parent="1">
          <mxGeometry x="390" y="560" width="35" height="20" as="geometry" />
        </mxCell>
        <mxCell id="dz-a4pQGunZjvAAqzRaD-442" value="&lt;b&gt;N&lt;/b&gt;" style="text;html=1;strokeColor=none;fillColor=none;align=center;verticalAlign=middle;whiteSpace=wrap;rounded=0;" vertex="1" parent="1">
          <mxGeometry x="377.5" y="380" width="60" height="30" as="geometry" />
        </mxCell>
        <mxCell id="dz-a4pQGunZjvAAqzRaD-443" value="&lt;b&gt;1&lt;/b&gt;" style="text;html=1;strokeColor=none;fillColor=none;align=center;verticalAlign=middle;whiteSpace=wrap;rounded=0;" vertex="1" parent="1">
          <mxGeometry x="385" y="330" width="35" height="20" as="geometry" />
        </mxCell>
        <mxCell id="dz-a4pQGunZjvAAqzRaD-444" value="&lt;b&gt;1&lt;/b&gt;" style="text;html=1;strokeColor=none;fillColor=none;align=center;verticalAlign=middle;whiteSpace=wrap;rounded=0;" vertex="1" parent="1">
          <mxGeometry x="1440" y="480" width="35" height="20" as="geometry" />
        </mxCell>
        <mxCell id="dz-a4pQGunZjvAAqzRaD-445" value="&lt;b&gt;1&lt;/b&gt;" style="text;html=1;strokeColor=none;fillColor=none;align=center;verticalAlign=middle;whiteSpace=wrap;rounded=0;" vertex="1" parent="1">
          <mxGeometry x="270" y="360" width="35" height="20" as="geometry" />
        </mxCell>
        <mxCell id="dz-a4pQGunZjvAAqzRaD-446" value="&lt;b&gt;N&lt;/b&gt;" style="text;html=1;strokeColor=none;fillColor=none;align=center;verticalAlign=middle;whiteSpace=wrap;rounded=0;" vertex="1" parent="1">
          <mxGeometry x="-440" y="410" width="60" height="30" as="geometry" />
        </mxCell>
        <mxCell id="dz-a4pQGunZjvAAqzRaD-447" value="&lt;b&gt;N&lt;/b&gt;" style="text;html=1;strokeColor=none;fillColor=none;align=center;verticalAlign=middle;whiteSpace=wrap;rounded=0;" vertex="1" parent="1">
          <mxGeometry x="-110" y="315" width="60" height="30" as="geometry" />
        </mxCell>
        <mxCell id="dz-a4pQGunZjvAAqzRaD-448" value="&lt;b&gt;N&lt;/b&gt;" style="text;html=1;strokeColor=none;fillColor=none;align=center;verticalAlign=middle;whiteSpace=wrap;rounded=0;" vertex="1" parent="1">
          <mxGeometry x="650" y="-230" width="60" height="30" as="geometry" />
        </mxCell>
        <mxCell id="dz-a4pQGunZjvAAqzRaD-449" value="" style="endArrow=none;html=1;rounded=0;exitX=0.412;exitY=0.074;exitDx=0;exitDy=0;exitPerimeter=0;" edge="1" parent="1" source="dz-a4pQGunZjvAAqzRaD-95">
          <mxGeometry width="50" height="50" relative="1" as="geometry">
            <mxPoint x="630" y="-150" as="sourcePoint" />
            <mxPoint x="653" y="-230" as="targetPoint" />
          </mxGeometry>
        </mxCell>
        <mxCell id="dz-a4pQGunZjvAAqzRaD-450" value="&lt;b&gt;1&lt;/b&gt;" style="text;html=1;strokeColor=none;fillColor=none;align=center;verticalAlign=middle;whiteSpace=wrap;rounded=0;" vertex="1" parent="1">
          <mxGeometry x="600" y="-230" width="35" height="20" as="geometry" />
        </mxCell>
        <mxCell id="dz-a4pQGunZjvAAqzRaD-451" value="&lt;b&gt;1&lt;/b&gt;" style="text;html=1;strokeColor=none;fillColor=none;align=center;verticalAlign=middle;whiteSpace=wrap;rounded=0;" vertex="1" parent="1">
          <mxGeometry x="210" y="-220" width="35" height="20" as="geometry" />
        </mxCell>
        <mxCell id="dz-a4pQGunZjvAAqzRaD-452" value="&lt;b&gt;1&lt;/b&gt;" style="text;html=1;strokeColor=none;fillColor=none;align=center;verticalAlign=middle;whiteSpace=wrap;rounded=0;" vertex="1" parent="1">
          <mxGeometry x="-165" y="-330" width="35" height="20" as="geometry" />
        </mxCell>
        <mxCell id="dz-a4pQGunZjvAAqzRaD-453" value="" style="endArrow=none;html=1;rounded=0;exitX=0.5;exitY=0;exitDx=0;exitDy=0;" edge="1" parent="1" source="dz-a4pQGunZjvAAqzRaD-251">
          <mxGeometry width="50" height="50" relative="1" as="geometry">
            <mxPoint x="830" y="-150" as="sourcePoint" />
            <mxPoint x="790" y="-380" as="targetPoint" />
          </mxGeometry>
        </mxCell>
        <mxCell id="dz-a4pQGunZjvAAqzRaD-454" value="FirstName" style="ellipse;whiteSpace=wrap;html=1;" vertex="1" parent="1">
          <mxGeometry x="-450" y="-185" width="120" height="30" as="geometry" />
        </mxCell>
        <mxCell id="dz-a4pQGunZjvAAqzRaD-455" value="LastName" style="ellipse;whiteSpace=wrap;html=1;" vertex="1" parent="1">
          <mxGeometry x="-320" y="-260" width="120" height="30" as="geometry" />
        </mxCell>
        <mxCell id="dz-a4pQGunZjvAAqzRaD-456" value="" style="endArrow=none;html=1;rounded=0;exitX=1;exitY=0.5;exitDx=0;exitDy=0;entryX=0;entryY=0.5;entryDx=0;entryDy=0;" edge="1" parent="1" source="dz-a4pQGunZjvAAqzRaD-454" target="dz-a4pQGunZjvAAqzRaD-29">
          <mxGeometry width="50" height="50" relative="1" as="geometry">
            <mxPoint x="-70" y="-60" as="sourcePoint" />
            <mxPoint x="-20" y="-110" as="targetPoint" />
          </mxGeometry>
        </mxCell>
        <mxCell id="dz-a4pQGunZjvAAqzRaD-457" value="" style="endArrow=none;html=1;rounded=0;entryX=0.5;entryY=0;entryDx=0;entryDy=0;exitX=0.5;exitY=1;exitDx=0;exitDy=0;" edge="1" parent="1" source="dz-a4pQGunZjvAAqzRaD-455" target="dz-a4pQGunZjvAAqzRaD-29">
          <mxGeometry width="50" height="50" relative="1" as="geometry">
            <mxPoint x="-270" y="-220" as="sourcePoint" />
            <mxPoint x="-20" y="-110" as="targetPoint" />
          </mxGeometry>
        </mxCell>
        <mxCell id="dz-a4pQGunZjvAAqzRaD-458" value="" style="endArrow=none;html=1;rounded=0;entryX=0;entryY=1;entryDx=0;entryDy=0;" edge="1" parent="1" target="dz-a4pQGunZjvAAqzRaD-42">
          <mxGeometry width="50" height="50" relative="1" as="geometry">
            <mxPoint x="-100" y="-120" as="sourcePoint" />
            <mxPoint x="-65" y="-120" as="targetPoint" />
          </mxGeometry>
        </mxCell>
        <mxCell id="dz-a4pQGunZjvAAqzRaD-459" value="" style="ellipse;whiteSpace=wrap;html=1;" vertex="1" parent="1">
          <mxGeometry x="40" y="-200" width="120" height="50" as="geometry" />
        </mxCell>
        <mxCell id="dz-a4pQGunZjvAAqzRaD-460" value="Phone_No" style="ellipse;whiteSpace=wrap;html=1;" vertex="1" parent="1">
          <mxGeometry x="55" y="-195" width="90" height="40" as="geometry" />
        </mxCell>
        <mxCell id="dz-a4pQGunZjvAAqzRaD-461" value="" style="endArrow=none;html=1;rounded=0;entryX=0.037;entryY=0.844;entryDx=0;entryDy=0;entryPerimeter=0;" edge="1" parent="1" target="dz-a4pQGunZjvAAqzRaD-460">
          <mxGeometry width="50" height="50" relative="1" as="geometry">
            <mxPoint x="-100" y="-120" as="sourcePoint" />
            <mxPoint x="90" y="-130" as="targetPoint" />
          </mxGeometry>
        </mxCell>
        <mxCell id="dz-a4pQGunZjvAAqzRaD-462" value="MiddleName" style="ellipse;whiteSpace=wrap;html=1;" vertex="1" parent="1">
          <mxGeometry x="330" y="-430" width="95" height="40" as="geometry" />
        </mxCell>
        <mxCell id="dz-a4pQGunZjvAAqzRaD-463" value="FirstName" style="ellipse;whiteSpace=wrap;html=1;" vertex="1" parent="1">
          <mxGeometry x="330" y="-380" width="90" height="40" as="geometry" />
        </mxCell>
        <mxCell id="dz-a4pQGunZjvAAqzRaD-464" value="LastName" style="ellipse;whiteSpace=wrap;html=1;" vertex="1" parent="1">
          <mxGeometry x="410" y="-460" width="90" height="40" as="geometry" />
        </mxCell>
        <mxCell id="dz-a4pQGunZjvAAqzRaD-465" value="" style="endArrow=none;html=1;rounded=0;exitX=0;exitY=0.5;exitDx=0;exitDy=0;entryX=1;entryY=1;entryDx=0;entryDy=0;" edge="1" parent="1" source="dz-a4pQGunZjvAAqzRaD-244" target="dz-a4pQGunZjvAAqzRaD-463">
          <mxGeometry width="50" height="50" relative="1" as="geometry">
            <mxPoint x="580" y="-350" as="sourcePoint" />
            <mxPoint x="630" y="-400" as="targetPoint" />
          </mxGeometry>
        </mxCell>
        <mxCell id="dz-a4pQGunZjvAAqzRaD-466" value="" style="endArrow=none;html=1;rounded=0;exitX=1;exitY=1;exitDx=0;exitDy=0;entryX=0;entryY=0;entryDx=0;entryDy=0;" edge="1" parent="1" source="dz-a4pQGunZjvAAqzRaD-462" target="dz-a4pQGunZjvAAqzRaD-244">
          <mxGeometry width="50" height="50" relative="1" as="geometry">
            <mxPoint x="580" y="-350" as="sourcePoint" />
            <mxPoint x="630" y="-400" as="targetPoint" />
          </mxGeometry>
        </mxCell>
        <mxCell id="dz-a4pQGunZjvAAqzRaD-467" value="" style="endArrow=none;html=1;rounded=0;exitX=0.442;exitY=0.967;exitDx=0;exitDy=0;exitPerimeter=0;entryX=0.297;entryY=0.109;entryDx=0;entryDy=0;entryPerimeter=0;" edge="1" parent="1" source="dz-a4pQGunZjvAAqzRaD-464" target="dz-a4pQGunZjvAAqzRaD-244">
          <mxGeometry width="50" height="50" relative="1" as="geometry">
            <mxPoint x="580" y="-350" as="sourcePoint" />
            <mxPoint x="630" y="-400" as="targetPoint" />
          </mxGeometry>
        </mxCell>
        <mxCell id="dz-a4pQGunZjvAAqzRaD-468" value="Gender" style="ellipse;whiteSpace=wrap;html=1;" vertex="1" parent="1">
          <mxGeometry x="810" y="-240" width="100" height="30" as="geometry" />
        </mxCell>
        <mxCell id="dz-a4pQGunZjvAAqzRaD-469" value="" style="endArrow=none;html=1;rounded=0;exitX=0;exitY=0.5;exitDx=0;exitDy=0;entryX=1;entryY=0.5;entryDx=0;entryDy=0;" edge="1" parent="1" source="dz-a4pQGunZjvAAqzRaD-468" target="dz-a4pQGunZjvAAqzRaD-251">
          <mxGeometry width="50" height="50" relative="1" as="geometry">
            <mxPoint x="420" y="-170" as="sourcePoint" />
            <mxPoint x="470" y="-220" as="targetPoint" />
          </mxGeometry>
        </mxCell>
        <mxCell id="dz-a4pQGunZjvAAqzRaD-470" value="Street" style="ellipse;whiteSpace=wrap;html=1;" vertex="1" parent="1">
          <mxGeometry x="540" y="-490" width="50" height="40" as="geometry" />
        </mxCell>
        <mxCell id="dz-a4pQGunZjvAAqzRaD-471" value="City" style="ellipse;whiteSpace=wrap;html=1;" vertex="1" parent="1">
          <mxGeometry x="592.5" y="-520" width="57.5" height="40" as="geometry" />
        </mxCell>
        <mxCell id="dz-a4pQGunZjvAAqzRaD-472" value="Province" style="ellipse;whiteSpace=wrap;html=1;" vertex="1" parent="1">
          <mxGeometry x="660" y="-520" width="70" height="40" as="geometry" />
        </mxCell>
        <mxCell id="dz-a4pQGunZjvAAqzRaD-473" value="Postal_Code" style="ellipse;whiteSpace=wrap;html=1;" vertex="1" parent="1">
          <mxGeometry x="680" y="-470" width="90" height="40" as="geometry" />
        </mxCell>
        <mxCell id="dz-a4pQGunZjvAAqzRaD-474" value="" style="endArrow=none;html=1;rounded=0;exitX=0.334;exitY=-0.022;exitDx=0;exitDy=0;exitPerimeter=0;entryX=1;entryY=1;entryDx=0;entryDy=0;" edge="1" parent="1" source="dz-a4pQGunZjvAAqzRaD-245" target="dz-a4pQGunZjvAAqzRaD-470">
          <mxGeometry width="50" height="50" relative="1" as="geometry">
            <mxPoint x="530" y="-340" as="sourcePoint" />
            <mxPoint x="580" y="-390" as="targetPoint" />
          </mxGeometry>
        </mxCell>
        <mxCell id="dz-a4pQGunZjvAAqzRaD-475" value="" style="endArrow=none;html=1;rounded=0;entryX=0.5;entryY=1;entryDx=0;entryDy=0;" edge="1" parent="1" target="dz-a4pQGunZjvAAqzRaD-471">
          <mxGeometry width="50" height="50" relative="1" as="geometry">
            <mxPoint x="610" y="-410" as="sourcePoint" />
            <mxPoint x="580" y="-390" as="targetPoint" />
          </mxGeometry>
        </mxCell>
        <mxCell id="dz-a4pQGunZjvAAqzRaD-476" value="" style="endArrow=none;html=1;rounded=0;exitX=0;exitY=1;exitDx=0;exitDy=0;entryX=0.618;entryY=-0.006;entryDx=0;entryDy=0;entryPerimeter=0;" edge="1" parent="1" source="dz-a4pQGunZjvAAqzRaD-472" target="dz-a4pQGunZjvAAqzRaD-245">
          <mxGeometry width="50" height="50" relative="1" as="geometry">
            <mxPoint x="530" y="-340" as="sourcePoint" />
            <mxPoint x="580" y="-390" as="targetPoint" />
          </mxGeometry>
        </mxCell>
        <mxCell id="dz-a4pQGunZjvAAqzRaD-477" value="" style="endArrow=none;html=1;rounded=0;exitX=0;exitY=0.5;exitDx=0;exitDy=0;entryX=0.741;entryY=0.057;entryDx=0;entryDy=0;entryPerimeter=0;" edge="1" parent="1" source="dz-a4pQGunZjvAAqzRaD-473" target="dz-a4pQGunZjvAAqzRaD-245">
          <mxGeometry width="50" height="50" relative="1" as="geometry">
            <mxPoint x="530" y="-340" as="sourcePoint" />
            <mxPoint x="580" y="-390" as="targetPoint" />
          </mxGeometry>
        </mxCell>
        <mxCell id="dz-a4pQGunZjvAAqzRaD-478" value="&lt;b&gt;1&lt;/b&gt;" style="text;html=1;strokeColor=none;fillColor=none;align=center;verticalAlign=middle;whiteSpace=wrap;rounded=0;" vertex="1" parent="1">
          <mxGeometry x="707.5" y="-230" width="35" height="20" as="geometry" />
        </mxCell>
        <mxCell id="dz-a4pQGunZjvAAqzRaD-479" value="" style="edgeStyle=orthogonalEdgeStyle;rounded=0;orthogonalLoop=1;jettySize=auto;html=1;" edge="1" parent="1" source="dz-a4pQGunZjvAAqzRaD-23" target="dz-a4pQGunZjvAAqzRaD-393">
          <mxGeometry relative="1" as="geometry" />
        </mxCell>
        <mxCell id="dz-a4pQGunZjvAAqzRaD-480" value="Offers" style="rhombus;whiteSpace=wrap;html=1;fillColor=#FFB366;" vertex="1" parent="1">
          <mxGeometry x="-97.5" y="-292.5" width="80" height="55" as="geometry" />
        </mxCell>
        <mxCell id="dz-a4pQGunZjvAAqzRaD-481" value="" style="endArrow=none;html=1;rounded=0;exitX=0;exitY=0.25;exitDx=0;exitDy=0;entryX=1;entryY=0.5;entryDx=0;entryDy=0;" edge="1" parent="1" source="dz-a4pQGunZjvAAqzRaD-291" target="dz-a4pQGunZjvAAqzRaD-480">
          <mxGeometry width="50" height="50" relative="1" as="geometry">
            <mxPoint x="-20" y="-90" as="sourcePoint" />
            <mxPoint x="30" y="-140" as="targetPoint" />
          </mxGeometry>
        </mxCell>
        <mxCell id="dz-a4pQGunZjvAAqzRaD-482" value="" style="endArrow=none;html=1;rounded=0;exitX=0.888;exitY=1.04;exitDx=0;exitDy=0;exitPerimeter=0;entryX=0;entryY=0.5;entryDx=0;entryDy=0;" edge="1" parent="1" source="dz-a4pQGunZjvAAqzRaD-309" target="dz-a4pQGunZjvAAqzRaD-480">
          <mxGeometry width="50" height="50" relative="1" as="geometry">
            <mxPoint x="-20" y="-90" as="sourcePoint" />
            <mxPoint x="30" y="-140" as="targetPoint" />
          </mxGeometry>
        </mxCell>
      </root>
    </mxGraphModel>
  </diagram>
</mxfile>
